<?xml version="1.0" encoding="UTF-8"?>
<svg viewBox="0.0 -1400.0  932.4 1470.0" preserveAspectRatio="xMinYMin meet" xmlns="http://www.w3.org/2000/svg" version="1.1">
    <desc>Powered by Aleker CAD Engine</desc>
    <g id="cad" bboxX="888" bboxY="1400">
        <path d="M 445.5 -100.0 L 442.500000 -100.000000" style="fill:none;stroke-width:2.0;stroke:black;"/>
        <path d="M 869.0 -0.0 L 869.000000 -100.000000" style="fill:none;stroke-width:2.0;stroke:black;"/>
        <path d="M 869.0 -0.0 L 19.000000 -0.000000" style="fill:none;stroke-width:2.0;stroke:black;"/>
        <path d="M 19.0 -0.0 L 19.000000 -100.000000" style="fill:none;stroke-width:2.0;stroke:black;"/>
        <path d="M 0.0 -1400.0 L 442.500000 -1400.000000" style="fill:none;stroke-width:2.0;stroke:black;"/>
        <path d="M 0.0 -1400.0 L 0.000000 -100.000000" style="fill:none;stroke-width:2.0;stroke:black;"/>
        <path d="M 0.0 -100.0 L 442.500000 -100.000000" style="fill:none;stroke-width:2.0;stroke:black;"/>
        <path d="M 442.5 -1400.0 L 442.500000 -100.000000" style="fill:none;stroke-width:2.0;stroke:black;"/>
        <path d="M 445.5 -100.0 L 442.500000 -100.000000" style="fill:none;stroke-width:2.0;stroke:black;"/>
        <path d="M 465.5 -750.0 A10.0 10.0 0 0 1 485.5, -750.0" style="fill:none;stroke-width:2.0;stroke:black;"/>
        <path d="M 485.5 -750.0 A10.0 10.0 0 0 1 465.5, -750.0" style="fill:none;stroke-width:2.0;stroke:black;"/>
        <path d="M 0.0 -0.0 L 19.000000 -0.000000" style="fill:none;stroke-width:2.0;stroke:black;"/>
        <path d="M 0.0 -0.0 L 0.000000 -100.000000" style="fill:none;stroke-width:2.0;stroke:black;"/>
        <path d="M 19.0 -0.0 L 19.000000 -100.000000" style="fill:none;stroke-width:2.0;stroke:black;"/>
        <path d="M 888.0 -0.0 L 869.000000 -0.000000" style="fill:none;stroke-width:2.0;stroke:black;"/>
        <path d="M 888.0 -0.0 L 888.000000 -100.000000" style="fill:none;stroke-width:2.0;stroke:black;"/>
        <path d="M 869.0 -0.0 L 869.000000 -100.000000" style="fill:none;stroke-width:2.0;stroke:black;"/>
        <path d="M 888.0 -1400.0 L 445.500000 -1400.000000" style="fill:none;stroke-width:2.0;stroke:black;"/>
        <path d="M 445.5 -1400.0 L 445.500000 -100.000000" style="fill:none;stroke-width:2.0;stroke:black;"/>
        <path d="M 888.0 -100.0 L 445.500000 -100.000000" style="fill:none;stroke-width:2.0;stroke:black;"/>
        <path d="M 888.0 -1400.0 L 888.000000 -100.000000" style="fill:none;stroke-width:2.0;stroke:black;"/>
        <path d="M 0.0 -1400.0 L 0.000000 -100.000000" style="fill:none;stroke-width:2.0;stroke:black;"/>
        <path d="M 888.0 -1400.0 L 0.000000 -1400.000000" style="fill:none;stroke-width:2.0;stroke:black;"/>
        <path d="M 888.0 -100.0 L 888.000000 -1400.000000" style="fill:none;stroke-width:2.0;stroke:black;"/>
        <path d="M 888.0 -100.0 L 0.000000 -100.000000" style="fill:none;stroke-width:2.0;stroke:black;"/>
        <path d="M 422.5 -750.0 A10.0 10.0 0 0 0 402.5, -750.0" style="fill:none;stroke-width:2.0;stroke:black;"/>
        <path d="M 402.5 -750.0 A10.0 10.0 0 0 0 422.5, -750.0" style="fill:none;stroke-width:2.0;stroke:black;"/>
    </g>
</svg>
