<?xml version="1.0" encoding="UTF-8"?>
<svg viewBox="0.0 -2000.0  816.9 2100.0" preserveAspectRatio="xMinYMin meet" xmlns="http://www.w3.org/2000/svg" version="1.1">
    <desc>Powered by Aleker CAD Engine</desc>
    <g id="cad" bboxX="778" bboxY="2000">
        <path d="M 725.9 -1673.0 L 51.073313 -1673.004113" style="fill:none;stroke-width:2.0;stroke:black;"/>
        <path d="M 725.9 -1654.0 L 51.073313 -1654.004113" style="fill:none;stroke-width:2.0;stroke:black;"/>
        <path d="M 725.9 -1509.5 L 51.073313 -1509.506170" style="fill:none;stroke-width:2.0;stroke:black;"/>
        <path d="M 725.9 -1490.5 L 51.073313 -1490.506170" style="fill:none;stroke-width:2.0;stroke:black;"/>
        <path d="M 725.9 -830.5 L 51.073313 -830.500000" style="fill:none;stroke-width:2.0;stroke:black;"/>
        <path d="M 725.9 -732.0 L 51.073313 -732.000000" style="fill:none;stroke-width:2.0;stroke:black;"/>
        <path d="M 725.9 -875.5 L 51.073313 -875.500000" style="fill:none;stroke-width:2.0;stroke:black;"/>
        <path d="M 725.9 -974.0 L 51.073313 -974.000000" style="fill:none;stroke-width:2.0;stroke:black;"/>
        <path d="M 51.1 -100.0 L 725.926687 -100.000000" style="fill:none;stroke-width:2.0;stroke:black;"/>
        <path d="M 51.1 -119.0 L 725.926687 -119.000000" style="fill:none;stroke-width:2.0;stroke:black;"/>
        <path d="M 777.8 -100.0 L 744.854386 -100.000000" style="fill:none;stroke-width:2.0;stroke:black;"/>
        <path d="M 744.9 -100.0 L 725.926687 -100.000000" style="fill:none;stroke-width:2.0;stroke:black;"/>
        <path d="M 777.8 -2000.0 L 744.854386 -2000.000000" style="fill:none;stroke-width:2.0;stroke:black;"/>
        <path d="M 744.9 -2000.0 L 725.926687 -2000.000000" style="fill:none;stroke-width:2.0;stroke:black;"/>
        <path d="M 777.8 -100.0 L 777.755679 -2000.000000" style="fill:none;stroke-width:2.0;stroke:black;"/>
        <path d="M 744.9 -100.0 L 744.854386 -2000.000000" style="fill:none;stroke-width:2.0;stroke:black;"/>
        <path d="M 725.9 -100.0 L 725.926687 -2000.000000" style="fill:none;stroke-width:2.0;stroke:black;"/>
        <path d="M 725.9 -588.5 L 51.073313 -588.500000" style="fill:none;stroke-width:2.0;stroke:black;"/>
        <path d="M 725.9 -687.0 L 51.073313 -687.000000" style="fill:none;stroke-width:2.0;stroke:black;"/>
        <path d="M 777.0 -0.0 L 758.000000 -0.000000" style="fill:none;stroke-width:2.0;stroke:black;"/>
        <path d="M 777.0 -2000.0 L 776.927699 -2000.000000" style="fill:none;stroke-width:2.0;stroke:black;"/>
        <path d="M 777.0 -0.0 L 777.000000 -100.000000" style="fill:none;stroke-width:2.0;stroke:black;"/>
        <path d="M 758.0 -0.0 L 758.000000 -100.000000" style="fill:none;stroke-width:2.0;stroke:black;"/>
        <path d="" style="fill:none;stroke-width:2.0;stroke:black;"/>
        <path d="" style="fill:none;stroke-width:2.0;stroke:black;"/>
        <path d="" style="fill:none;stroke-width:2.0;stroke:black;"/>
        <path d="" style="fill:none;stroke-width:2.0;stroke:black;"/>
        <path d="" style="fill:none;stroke-width:2.0;stroke:black;"/>
        <path d="" style="fill:none;stroke-width:2.0;stroke:black;"/>
        <path d="M 725.9 -1836.5 L 51.073313 -1836.502057" style="fill:none;stroke-width:2.0;stroke:black;"/>
        <path d="M 725.9 -1817.5 L 51.073313 -1817.502057" style="fill:none;stroke-width:2.0;stroke:black;"/>
        <path d="M -0.8 -2000.0 L 32.145614 -2000.000000" style="fill:none;stroke-width:2.0;stroke:black;"/>
        <path d="M 51.1 -2000.0 L 32.145614 -2000.000000" style="fill:none;stroke-width:2.0;stroke:black;"/>
        <path d="M -0.8 -100.0 L 32.145614 -100.000000" style="fill:none;stroke-width:2.0;stroke:black;"/>
        <path d="M 51.1 -100.0 L 32.145614 -100.000000" style="fill:none;stroke-width:2.0;stroke:black;"/>
        <path d="M 51.1 -2000.0 L 51.073313 -100.000000" style="fill:none;stroke-width:2.0;stroke:black;"/>
        <path d="M -0.8 -2000.0 L -0.755679 -100.000000" style="fill:none;stroke-width:2.0;stroke:black;"/>
        <path d="M 32.1 -2000.0 L 32.145614 -100.000000" style="fill:none;stroke-width:2.0;stroke:black;"/>
        <path d="M 19.0 -0.0 L 0.000000 -0.000000" style="fill:none;stroke-width:2.0;stroke:black;"/>
        <path d="M 19.0 -100.0 L 19.000000 -0.000000" style="fill:none;stroke-width:2.0;stroke:black;"/>
        <path d="M 0.0 -100.0 L 0.000000 -0.000000" style="fill:none;stroke-width:2.0;stroke:black;"/>
        <path d="M 725.9 -2000.0 L 51.073313 -2000.000000" style="fill:none;stroke-width:2.0;stroke:black;"/>
        <path d="M 725.9 -1981.0 L 51.073313 -1981.000000" style="fill:none;stroke-width:2.0;stroke:black;"/>
        <path d="M 725.9 -1346.0 L 51.073313 -1346.008227" style="fill:none;stroke-width:2.0;stroke:black;"/>
        <path d="M 725.9 -1327.0 L 51.073313 -1327.008227" style="fill:none;stroke-width:2.0;stroke:black;"/>
        <path d="M 725.9 -974.0 L 51.073313 -974.000000" style="fill:none;stroke-width:2.0;stroke:black;"/>
        <path d="M 725.9 -875.5 L 51.073313 -875.500000" style="fill:none;stroke-width:2.0;stroke:black;"/>
        <path d="M 725.9 -1182.5 L 51.073313 -1182.510283" style="fill:none;stroke-width:2.0;stroke:black;"/>
        <path d="M 725.9 -1163.5 L 51.073313 -1163.510283" style="fill:none;stroke-width:2.0;stroke:black;"/>
        <path d="M 725.9 -1019.0 L 51.073313 -1019.000000" style="fill:none;stroke-width:2.0;stroke:black;"/>
        <path d="M 725.9 -1038.0 L 51.073313 -1038.000000" style="fill:none;stroke-width:2.0;stroke:black;"/>
        <path d="M 771.3 -2000.0 L 752.386465 -2000.000000" style="fill:none;stroke-width:2.0;stroke:black;"/>
        <path d="M 776.9 -2000.0 L 771.314164 -2000.000000" style="fill:none;stroke-width:2.0;stroke:black;"/>
        <path d="M 776.9 -100.0 L 776.927699 -2000.000000" style="fill:none;stroke-width:2.0;stroke:black;"/>
        <path d="" style="fill:none;stroke-width:2.0;stroke:black;"/>
        <path d="M 771.3 -2000.0 L 771.314164 -100.000000" style="fill:none;stroke-width:2.0;stroke:black;"/>
        <path d="M 758.0 -0.0 L 19.000000 -0.000000" style="fill:none;stroke-width:2.0;stroke:black;"/>
        <path d="M 725.9 -588.0 L 51.073313 -588.000000" style="fill:none;stroke-width:2.0;stroke:black;"/>
        <path d="M 725.9 -1019.0 L 51.073313 -1019.000000" style="fill:none;stroke-width:2.0;stroke:black;"/>
        <path d="M 725.9 -732.0 L 51.073313 -732.000000" style="fill:none;stroke-width:2.0;stroke:black;"/>
        <path d="M 725.9 -830.5 L 51.073313 -830.500000" style="fill:none;stroke-width:2.0;stroke:black;"/>
        <path d="M 725.9 -687.0 L 51.073313 -687.000000" style="fill:none;stroke-width:2.0;stroke:black;"/>
        <path d="M 725.9 -588.5 L 51.073313 -588.500000" style="fill:none;stroke-width:2.0;stroke:black;"/>
        <path d="" style="fill:none;stroke-width:2.0;stroke:black;"/>
        <path d="" style="fill:none;stroke-width:2.0;stroke:black;"/>
        <path d="" style="fill:none;stroke-width:2.0;stroke:black;"/>
        <path d="" style="fill:none;stroke-width:2.0;stroke:black;"/>
        <path d="" style="fill:none;stroke-width:2.0;stroke:black;"/>
        <path d="" style="fill:none;stroke-width:2.0;stroke:black;"/>
        <path d="M 5.7 -2000.0 L 0.072301 -2000.000000" style="fill:none;stroke-width:2.0;stroke:black;"/>
        <path d="M 0.1 -2000.0 L 0.072301 -100.000000" style="fill:none;stroke-width:2.0;stroke:black;"/>
        <path d="M 24.6 -100.0 L 5.685836 -100.000000" style="fill:none;stroke-width:2.0;stroke:black;"/>
        <path d="" style="fill:none;stroke-width:2.0;stroke:black;"/>
        <path d="" style="fill:none;stroke-width:2.0;stroke:black;"/>
        <path d="M 5.7 -100.0 L 5.685836 -2000.000000" style="fill:none;stroke-width:2.0;stroke:black;"/>
        <path d="M 749.2 -1050.0 L 768.139872 -1050.000000" style="fill:none;stroke-width:2.0;stroke:black;"/>
        <path d="M 27.8 -1050.0 L 8.860128 -1050.000000" style="fill:none;stroke-width:2.0;stroke:black;"/>
        <path d="M 769.0 -1040.0 L 750.083730 -1040.000000" style="fill:none;stroke-width:2.0;stroke:black;"/>
        <path d="M 769.0 -1060.0 L 750.083730 -1060.000000" style="fill:none;stroke-width:2.0;stroke:black;"/>
        <path d="M 8.0 -1040.0 L 26.916270 -1040.000000" style="fill:none;stroke-width:2.0;stroke:black;"/>
        <path d="M 8.0 -1060.0 L 26.916270 -1060.000000" style="fill:none;stroke-width:2.0;stroke:black;"/>
    </g>
</svg>
