<?xml version="1.0" encoding="UTF-8"?>
<svg viewBox="0.0 -2200.0  630.0 2310.0" preserveAspectRatio="xMinYMin meet" xmlns="http://www.w3.org/2000/svg" version="1.1">
    <desc>Powered by Aleker CAD Engine</desc>
    <g id="cad" bboxX="600" bboxY="2200">
        <path d="M 581.0 -516.2 L 581.000000 -535.200000" style="fill:none;stroke-width:2.0;stroke:black;"/>
        <path d="M 19.0 -516.2 L 19.000000 -535.200000" style="fill:none;stroke-width:2.0;stroke:black;"/>
        <path d="M 581.0 -516.2 L 19.000000 -516.200000" style="fill:none;stroke-width:2.0;stroke:black;"/>
        <path d="M 581.0 -535.2 L 19.000000 -535.200000" style="fill:none;stroke-width:2.0;stroke:black;"/>
        <path d="M 581.0 -1764.8 L 581.000000 -1783.800000" style="fill:none;stroke-width:2.0;stroke:black;"/>
        <path d="M 19.0 -1764.8 L 19.000000 -1783.800000" style="fill:none;stroke-width:2.0;stroke:black;"/>
        <path d="M 581.0 -1764.8 L 19.000000 -1764.800000" style="fill:none;stroke-width:2.0;stroke:black;"/>
        <path d="M 581.0 -1783.8 L 19.000000 -1783.800000" style="fill:none;stroke-width:2.0;stroke:black;"/>
        <path d="M 581.0 -932.4 L 581.000000 -951.400000" style="fill:none;stroke-width:2.0;stroke:black;"/>
        <path d="M 19.0 -932.4 L 19.000000 -951.400000" style="fill:none;stroke-width:2.0;stroke:black;"/>
        <path d="M 581.0 -932.4 L 19.000000 -932.400000" style="fill:none;stroke-width:2.0;stroke:black;"/>
        <path d="M 581.0 -951.4 L 19.000000 -951.400000" style="fill:none;stroke-width:2.0;stroke:black;"/>
        <path d="M 600.0 -2200.0 L 581.000000 -2200.000000" style="fill:none;stroke-width:2.0;stroke:black;"/>
        <path d="M 600.0 -0.0 L 581.000000 -0.000000" style="fill:none;stroke-width:2.0;stroke:black;"/>
        <path d="M 600.0 -0.0 L 600.000000 -2200.000000" style="fill:none;stroke-width:2.0;stroke:black;"/>
        <path d="M 581.0 -0.0 L 581.000000 -2200.000000" style="fill:none;stroke-width:2.0;stroke:black;"/>
        <path d="M 19.0 -100.0 L 19.000000 -119.000000" style="fill:none;stroke-width:2.0;stroke:black;"/>
        <path d="M 581.0 -100.0 L 581.000000 -119.000000" style="fill:none;stroke-width:2.0;stroke:black;"/>
        <path d="M 19.0 -100.0 L 581.000000 -100.000000" style="fill:none;stroke-width:2.0;stroke:black;"/>
        <path d="M 19.0 -119.0 L 581.000000 -119.000000" style="fill:none;stroke-width:2.0;stroke:black;"/>
        <path d="M 0.0 -2200.0 L 19.000000 -2200.000000" style="fill:none;stroke-width:2.0;stroke:black;"/>
        <path d="M 0.0 -0.0 L 19.000000 -0.000000" style="fill:none;stroke-width:2.0;stroke:black;"/>
        <path d="M 0.0 -2200.0 L 0.000000 -0.000000" style="fill:none;stroke-width:2.0;stroke:black;"/>
        <path d="M 19.0 -2200.0 L 19.000000 -0.000000" style="fill:none;stroke-width:2.0;stroke:black;"/>
        <path d="M 581.0 -1348.6 L 581.000000 -1367.600000" style="fill:none;stroke-width:2.0;stroke:black;"/>
        <path d="M 19.0 -1348.6 L 19.000000 -1367.600000" style="fill:none;stroke-width:2.0;stroke:black;"/>
        <path d="M 581.0 -1348.6 L 19.000000 -1348.600000" style="fill:none;stroke-width:2.0;stroke:black;"/>
        <path d="M 581.0 -1367.6 L 19.000000 -1367.600000" style="fill:none;stroke-width:2.0;stroke:black;"/>
        <path d="M 19.0 -2181.0 L 581.000000 -2181.000000" style="fill:none;stroke-width:2.0;stroke:black;"/>
        <path d="M 19.0 -2200.0 L 581.000000 -2200.000000" style="fill:none;stroke-width:2.0;stroke:black;"/>
        <path d="M 19.0 -0.0 L 581.000000 -0.000000" style="fill:none;stroke-width:2.0;stroke:black;"/>
    </g>
</svg>
