<?xml version="1.0" encoding="UTF-8"?>
<svg viewBox="0.0 -2200.0  630.0 2310.0" preserveAspectRatio="xMinYMin meet" xmlns="http://www.w3.org/2000/svg" version="1.1">
    <desc>Powered by Aleker CAD Engine</desc>
    <g id="cad" bboxX="600" bboxY="2200">
        <path d="M 400.3 -1778.0 L 390.333333 -1778.000000" style="fill:none;stroke-width:2.0;stroke:black;"/>
        <path d="M 400.3 -1828.0 L 400.333333 -1778.000000" style="fill:none;stroke-width:2.0;stroke:black;"/>
        <path d="M 390.3 -1828.0 L 390.333333 -1778.000000" style="fill:none;stroke-width:2.0;stroke:black;"/>
        <path d="M 209.7 -909.0 L 199.666667 -909.000000" style="fill:none;stroke-width:2.0;stroke:black;"/>
        <path d="M 209.7 -959.0 L 209.666667 -909.000000" style="fill:none;stroke-width:2.0;stroke:black;"/>
        <path d="M 199.7 -959.0 L 199.666667 -909.000000" style="fill:none;stroke-width:2.0;stroke:black;"/>
        <path d="M 400.3 -909.0 L 390.333333 -909.000000" style="fill:none;stroke-width:2.0;stroke:black;"/>
        <path d="M 400.3 -959.0 L 400.333333 -909.000000" style="fill:none;stroke-width:2.0;stroke:black;"/>
        <path d="M 390.3 -959.0 L 390.333333 -909.000000" style="fill:none;stroke-width:2.0;stroke:black;"/>
        <path d="" style="fill:none;stroke-width:2.0;stroke:black;"/>
        <path d="" style="fill:none;stroke-width:2.0;stroke:black;"/>
        <path d="" style="fill:none;stroke-width:2.0;stroke:black;"/>
        <path d="" style="fill:none;stroke-width:2.0;stroke:black;"/>
        <path d="M 600.0 -2200.0 L 581.000000 -2200.000000" style="fill:none;stroke-width:2.0;stroke:black;"/>
        <path d="M 600.0 -0.0 L 581.000000 -0.000000" style="fill:none;stroke-width:2.0;stroke:black;"/>
        <path d="M 600.0 -0.0 L 600.000000 -2200.000000" style="fill:none;stroke-width:2.0;stroke:black;"/>
        <path d="M 581.0 -0.0 L 581.000000 -2200.000000" style="fill:none;stroke-width:2.0;stroke:black;"/>
        <path d="M 19.0 -100.0 L 19.000000 -119.000000" style="fill:none;stroke-width:2.0;stroke:black;"/>
        <path d="M 581.0 -100.0 L 581.000000 -119.000000" style="fill:none;stroke-width:2.0;stroke:black;"/>
        <path d="M 19.0 -100.0 L 581.000000 -100.000000" style="fill:none;stroke-width:2.0;stroke:black;"/>
        <path d="M 19.0 -119.0 L 581.000000 -119.000000" style="fill:none;stroke-width:2.0;stroke:black;"/>
        <path d="M 0.0 -2200.0 L 19.000000 -2200.000000" style="fill:none;stroke-width:2.0;stroke:black;"/>
        <path d="M 0.0 -0.0 L 19.000000 -0.000000" style="fill:none;stroke-width:2.0;stroke:black;"/>
        <path d="M 0.0 -2200.0 L 0.000000 -0.000000" style="fill:none;stroke-width:2.0;stroke:black;"/>
        <path d="M 19.0 -2200.0 L 19.000000 -0.000000" style="fill:none;stroke-width:2.0;stroke:black;"/>
        <path d="M 19.0 -1888.0 L 19.000000 -1907.000000" style="fill:none;stroke-width:2.0;stroke:black;"/>
        <path d="M 581.0 -1888.0 L 581.000000 -1907.000000" style="fill:none;stroke-width:2.0;stroke:black;"/>
        <path d="M 581.0 -1888.0 L 19.000000 -1888.000000" style="fill:none;stroke-width:2.0;stroke:black;"/>
        <path d="M 581.0 -1907.0 L 19.000000 -1907.000000" style="fill:none;stroke-width:2.0;stroke:black;"/>
        <path d="" style="fill:none;stroke-width:2.0;stroke:black;"/>
        <path d="M 209.7 -1778.0 L 199.666667 -1778.000000" style="fill:none;stroke-width:2.0;stroke:black;"/>
        <path d="M 209.7 -1828.0 L 209.666667 -1778.000000" style="fill:none;stroke-width:2.0;stroke:black;"/>
        <path d="M 199.7 -1828.0 L 199.666667 -1778.000000" style="fill:none;stroke-width:2.0;stroke:black;"/>
        <path d="M 19.0 -2181.0 L 581.000000 -2181.000000" style="fill:none;stroke-width:2.0;stroke:black;"/>
        <path d="M 19.0 -2200.0 L 581.000000 -2200.000000" style="fill:none;stroke-width:2.0;stroke:black;"/>
        <path d="M 19.0 -0.0 L 581.000000 -0.000000" style="fill:none;stroke-width:2.0;stroke:black;"/>
        <path d="" style="fill:none;stroke-width:2.0;stroke:black;"/>
        <path d="" style="fill:none;stroke-width:2.0;stroke:black;"/>
        <path d="" style="fill:none;stroke-width:2.0;stroke:black;"/>
        <path d="" style="fill:none;stroke-width:2.0;stroke:black;"/>
        <path d="" style="fill:none;stroke-width:2.0;stroke:black;"/>
        <path d="M 395.3 -984.0 L 395.333333 -949.000000" style="fill:none;stroke-width:2.0;stroke:black;"/>
        <path d="M 19.0 -989.0 L 581.000000 -989.000000" style="fill:none;stroke-width:2.0;stroke:black;"/>
        <path d="M 395.3 -1853.0 L 395.333333 -1818.000000" style="fill:none;stroke-width:2.0;stroke:black;"/>
        <path d="M 204.7 -1848.0 L 204.666667 -1818.000000" style="fill:none;stroke-width:2.0;stroke:black;"/>
        <path d="M 19.0 -1858.0 L 581.000000 -1858.000000" style="fill:none;stroke-width:2.0;stroke:black;"/>
        <path d="M 204.7 -979.0 L 204.666667 -949.000000" style="fill:none;stroke-width:2.0;stroke:black;"/>
        <path d="M 400.3 -959.0 L 400.333333 -984.000000" style="fill:none;stroke-width:2.0;stroke:black;"/>
        <path d="M 390.3 -959.0 L 390.333333 -984.000000" style="fill:none;stroke-width:2.0;stroke:black;"/>
        <path d="M 581.0 -974.0 L 204.666667 -974.000000" style="fill:none;stroke-width:2.0;stroke:black;"/>
        <path d="M 199.7 -974.0 L 19.000000 -974.000000" style="fill:none;stroke-width:2.0;stroke:black;"/>
        <path d="M 581.0 -1004.0 L 19.000000 -1004.000000" style="fill:none;stroke-width:2.0;stroke:black;"/>
        <path d="M 400.3 -1828.0 L 400.333333 -1853.000000" style="fill:none;stroke-width:2.0;stroke:black;"/>
        <path d="M 390.3 -1828.0 L 390.333333 -1853.000000" style="fill:none;stroke-width:2.0;stroke:black;"/>
        <path d="M 209.7 -1828.0 L 209.666667 -1848.000000" style="fill:none;stroke-width:2.0;stroke:black;"/>
        <path d="M 199.7 -1828.0 L 199.666667 -1848.000000" style="fill:none;stroke-width:2.0;stroke:black;"/>
        <path d="M 581.0 -1843.0 L 204.666667 -1843.000000" style="fill:none;stroke-width:2.0;stroke:black;"/>
        <path d="M 199.7 -1843.0 L 19.000000 -1843.000000" style="fill:none;stroke-width:2.0;stroke:black;"/>
        <path d="M 581.0 -1873.0 L 19.000000 -1873.000000" style="fill:none;stroke-width:2.0;stroke:black;"/>
        <path d="M 209.7 -959.0 L 209.666667 -979.000000" style="fill:none;stroke-width:2.0;stroke:black;"/>
        <path d="M 199.7 -959.0 L 199.666667 -979.000000" style="fill:none;stroke-width:2.0;stroke:black;"/>
    </g>
</svg>
