<?xml version="1.0" encoding="UTF-8"?>
<svg viewBox="0.0 -2000.0  2199.8 2100.0" preserveAspectRatio="xMinYMin meet" xmlns="http://www.w3.org/2000/svg" version="1.1">
    <desc>Powered by Aleker CAD Engine</desc>
    <g id="cad" bboxX="2095" bboxY="2000">
        <path d="M 1057.0 -2000.0 L 1038.000000 -2000.000000" style="fill:none;stroke-width:2.0;stroke:black;"/>
        <path d="M 1057.0 -0.0 L 1038.000000 -0.000000" style="fill:none;stroke-width:2.0;stroke:black;"/>
        <path d="M 1057.0 -2000.0 L 1057.000000 -0.000000" style="fill:none;stroke-width:2.0;stroke:black;"/>
        <path d="M 1038.0 -2000.0 L 1038.000000 -0.000000" style="fill:none;stroke-width:2.0;stroke:black;"/>
        <path d="M 1037.5 -119.0 L 1037.500000 -1981.000000" style="fill:none;stroke-width:2.0;stroke:black;"/>
        <path d="M 538.5 -119.0 L 538.500000 -1981.000000" style="fill:none;stroke-width:2.0;stroke:black;"/>
        <path d="M 1037.5 -119.0 L 538.500000 -119.012340" style="fill:none;stroke-width:2.0;stroke:black;"/>
        <path d="M 1037.5 -1981.0 L 538.500000 -1981.000000" style="fill:none;stroke-width:2.0;stroke:black;"/>
        <path d="M 1556.5 -119.0 L 1556.500000 -1981.000000" style="fill:none;stroke-width:2.0;stroke:black;"/>
        <path d="M 1057.5 -119.0 L 1057.500000 -1981.000000" style="fill:none;stroke-width:2.0;stroke:black;"/>
        <path d="M 1556.5 -119.0 L 1057.500000 -119.012340" style="fill:none;stroke-width:2.0;stroke:black;"/>
        <path d="M 1556.5 -1981.0 L 1057.500000 -1981.000000" style="fill:none;stroke-width:2.0;stroke:black;"/>
        <path d="M 1557.0 -100.0 L 1557.000000 -119.000000" style="fill:none;stroke-width:2.0;stroke:black;"/>
        <path d="M 1557.0 -100.0 L 1057.000000 -100.000000" style="fill:none;stroke-width:2.0;stroke:black;"/>
        <path d="M 1557.0 -119.0 L 1057.000000 -119.000000" style="fill:none;stroke-width:2.0;stroke:black;"/>
        <path d="M 1557.0 -0.0 L 1057.000000 -0.000000" style="fill:none;stroke-width:2.0;stroke:black;"/>
        <path d="M 2076.0 -0.0 L 1576.000000 -0.000000" style="fill:none;stroke-width:2.0;stroke:black;"/>
        <path d="M 1038.0 -100.0 L 1038.000000 -119.000000" style="fill:none;stroke-width:2.0;stroke:black;"/>
        <path d="M 1038.0 -100.0 L 538.000000 -100.000000" style="fill:none;stroke-width:2.0;stroke:black;"/>
        <path d="M 1038.0 -119.0 L 538.000000 -119.000000" style="fill:none;stroke-width:2.0;stroke:black;"/>
        <path d="M 19.0 -2000.0 L 0.000000 -2000.000000" style="fill:none;stroke-width:2.0;stroke:black;"/>
        <path d="M 19.0 -0.0 L 0.000000 -0.000000" style="fill:none;stroke-width:2.0;stroke:black;"/>
        <path d="M 19.0 -2000.0 L 19.000000 -0.000000" style="fill:none;stroke-width:2.0;stroke:black;"/>
        <path d="M 0.0 -2000.0 L 0.000000 -0.000000" style="fill:none;stroke-width:2.0;stroke:black;"/>
        <path d="M 519.0 -100.0 L 519.000000 -119.000000" style="fill:none;stroke-width:2.0;stroke:black;"/>
        <path d="M 19.0 -100.0 L 519.000000 -100.000000" style="fill:none;stroke-width:2.0;stroke:black;"/>
        <path d="M 19.0 -119.0 L 519.000000 -119.000000" style="fill:none;stroke-width:2.0;stroke:black;"/>
        <path d="M 519.0 -2000.0 L 19.000000 -2000.000000" style="fill:none;stroke-width:2.0;stroke:black;"/>
        <path d="M 519.0 -1981.0 L 19.000000 -1981.000000" style="fill:none;stroke-width:2.0;stroke:black;"/>
        <path d="M 518.5 -119.0 L 518.500000 -1981.000000" style="fill:none;stroke-width:2.0;stroke:black;"/>
        <path d="M 19.5 -119.0 L 19.500000 -1981.000000" style="fill:none;stroke-width:2.0;stroke:black;"/>
        <path d="M 518.5 -119.0 L 19.500000 -119.012340" style="fill:none;stroke-width:2.0;stroke:black;"/>
        <path d="M 518.5 -1981.0 L 19.500000 -1981.000000" style="fill:none;stroke-width:2.0;stroke:black;"/>
        <path d="M 1038.0 -2000.0 L 538.000000 -2000.000000" style="fill:none;stroke-width:2.0;stroke:black;"/>
        <path d="M 1038.0 -1981.0 L 538.000000 -1981.000000" style="fill:none;stroke-width:2.0;stroke:black;"/>
        <path d="M 2095.0 -2000.0 L 2076.000000 -2000.000000" style="fill:none;stroke-width:2.0;stroke:black;"/>
        <path d="M 2095.0 -0.0 L 2076.000000 -0.000000" style="fill:none;stroke-width:2.0;stroke:black;"/>
        <path d="M 2095.0 -2000.0 L 2095.000000 -0.000000" style="fill:none;stroke-width:2.0;stroke:black;"/>
        <path d="M 2076.0 -2000.0 L 2076.000000 -0.000000" style="fill:none;stroke-width:2.0;stroke:black;"/>
        <path d="M 538.0 -2000.0 L 519.000000 -2000.000000" style="fill:none;stroke-width:2.0;stroke:black;"/>
        <path d="M 538.0 -0.0 L 519.000000 -0.000000" style="fill:none;stroke-width:2.0;stroke:black;"/>
        <path d="M 538.0 -2000.0 L 538.000000 -0.000000" style="fill:none;stroke-width:2.0;stroke:black;"/>
        <path d="M 519.0 -2000.0 L 519.000000 -0.000000" style="fill:none;stroke-width:2.0;stroke:black;"/>
        <path d="M 1557.0 -2000.0 L 1057.000000 -2000.000000" style="fill:none;stroke-width:2.0;stroke:black;"/>
        <path d="M 1557.0 -1981.0 L 1057.000000 -1981.000000" style="fill:none;stroke-width:2.0;stroke:black;"/>
        <path d="M 1038.0 -0.0 L 538.000000 -0.000000" style="fill:none;stroke-width:2.0;stroke:black;"/>
        <path d="M 1576.0 -2000.0 L 1557.000000 -2000.000000" style="fill:none;stroke-width:2.0;stroke:black;"/>
        <path d="M 1576.0 -0.0 L 1557.000000 -0.000000" style="fill:none;stroke-width:2.0;stroke:black;"/>
        <path d="M 1576.0 -2000.0 L 1576.000000 -0.000000" style="fill:none;stroke-width:2.0;stroke:black;"/>
        <path d="M 1557.0 -2000.0 L 1557.000000 -0.000000" style="fill:none;stroke-width:2.0;stroke:black;"/>
        <path d="M 519.0 -0.0 L 19.000000 -0.000000" style="fill:none;stroke-width:2.0;stroke:black;"/>
        <path d="M 2076.0 -2000.0 L 1576.000000 -2000.000000" style="fill:none;stroke-width:2.0;stroke:black;"/>
        <path d="M 2076.0 -1981.0 L 1576.000000 -1981.000000" style="fill:none;stroke-width:2.0;stroke:black;"/>
        <path d="M 2076.0 -100.0 L 2076.000000 -119.000000" style="fill:none;stroke-width:2.0;stroke:black;"/>
        <path d="M 2076.0 -100.0 L 1576.000000 -100.000000" style="fill:none;stroke-width:2.0;stroke:black;"/>
        <path d="M 2076.0 -119.0 L 1576.000000 -119.000000" style="fill:none;stroke-width:2.0;stroke:black;"/>
        <path d="M 2075.5 -119.0 L 2075.500000 -1981.000000" style="fill:none;stroke-width:2.0;stroke:black;"/>
        <path d="M 1576.5 -119.0 L 1576.500000 -1981.000000" style="fill:none;stroke-width:2.0;stroke:black;"/>
        <path d="M 2075.5 -119.0 L 1576.500000 -119.012340" style="fill:none;stroke-width:2.0;stroke:black;"/>
        <path d="M 2075.5 -1981.0 L 1576.500000 -1981.000000" style="fill:none;stroke-width:2.0;stroke:black;"/>
    </g>
</svg>
