<?xml version="1.0" encoding="UTF-8"?>
<svg viewBox="-200.0 -2000.0  1260.0 2100.0" preserveAspectRatio="xMinYMin meet" xmlns="http://www.w3.org/2000/svg" version="1.1">
    <desc>Powered by Aleker CAD Engine</desc>
    <g id="cad" bboxX="1200" bboxY="2000">
        <path d="M -200.0 -2000.0 L -181.000000 -2000.000000" style="fill:none;stroke-width:2.0;stroke:black;"/>
        <path d="M -200.0 -0.0 L -181.000000 -0.000000" style="fill:none;stroke-width:2.0;stroke:black;"/>
        <path d="M -200.0 -0.0 L -200.000000 -2000.000000" style="fill:none;stroke-width:2.0;stroke:black;"/>
        <path d="M -181.0 -0.0 L -181.000000 -2000.000000" style="fill:none;stroke-width:2.0;stroke:black;"/>
        <path d="M -181.0 -100.0 L 400.000000 -100.000000" style="fill:none;stroke-width:2.0;stroke:black;"/>
        <path d="M -181.0 -0.0 L 400.000000 -0.000000" style="fill:none;stroke-width:2.0;stroke:black;"/>
        <path d="M -180.5 -119.0 L -180.500000 -1981.000000" style="fill:none;stroke-width:2.0;stroke:black;"/>
        <path d="M 400.0 -119.0 L -180.500000 -119.012340" style="fill:none;stroke-width:2.0;stroke:black;"/>
        <path d="M 400.0 -1981.0 L -180.500000 -1981.000000" style="fill:none;stroke-width:2.0;stroke:black;"/>
        <path d="M 400.0 -2000.0 L -181.000000 -2000.000000" style="fill:none;stroke-width:2.0;stroke:black;"/>
        <path d="M 400.0 -1981.0 L -181.000000 -1981.000000" style="fill:none;stroke-width:2.0;stroke:black;"/>
        <path d="M -181.0 -100.0 L -181.000000 -119.000000" style="fill:none;stroke-width:2.0;stroke:black;"/>
        <path d="M 981.0 -100.0 L 981.000000 -119.000000" style="fill:none;stroke-width:2.0;stroke:black;"/>
        <path d="M -181.0 -100.0 L 400.000000 -100.000000" style="fill:none;stroke-width:2.0;stroke:black;"/>
        <path d="M -181.0 -119.0 L 400.000000 -119.000000" style="fill:none;stroke-width:2.0;stroke:black;"/>
        <path d="M 400.0 -0.0 L 400.000000 -2000.000000" style="fill:none;stroke-width:2.0;stroke:black;"/>
        <path d="M 981.0 -2000.0 L 400.000000 -2000.000000" style="fill:none;stroke-width:2.0;stroke:black;"/>
        <path d="M 981.0 -0.0 L 981.000000 -2000.000000" style="fill:none;stroke-width:2.0;stroke:black;"/>
        <path d="M 400.0 -0.0 L 981.000000 -0.000000" style="fill:none;stroke-width:2.0;stroke:black;"/>
        <path d="M 1000.0 -2000.0 L 981.000000 -2000.000000" style="fill:none;stroke-width:2.0;stroke:black;"/>
        <path d="M 1000.0 -0.0 L 981.000000 -0.000000" style="fill:none;stroke-width:2.0;stroke:black;"/>
        <path d="M 1000.0 -0.0 L 1000.000000 -2000.000000" style="fill:none;stroke-width:2.0;stroke:black;"/>
        <path d="M 981.0 -0.0 L 981.000000 -2000.000000" style="fill:none;stroke-width:2.0;stroke:black;"/>
        <path d="M -180.5 -1981.0 L -180.500000 -119.000000" style="fill:none;stroke-width:2.0;stroke:black;"/>
        <path d="M 400.0 -1981.0 L -180.500000 -1981.000000" style="fill:none;stroke-width:2.0;stroke:black;"/>
        <path d="M 400.0 -119.0 L -180.500000 -119.000000" style="fill:none;stroke-width:2.0;stroke:black;"/>
    </g>
</svg>
