<?xml version="1.0" encoding="UTF-8"?>
<svg viewBox="0.0 -400.0  1050.0 420.0" preserveAspectRatio="xMinYMin meet" xmlns="http://www.w3.org/2000/svg" version="1.1">
    <desc>Powered by Aleker CAD Engine</desc>
    <g id="cad" bboxX="1000" bboxY="400">
        <path d="M 962.0 -362.0 L 962.000000 -361.900000" style="fill:none;stroke-width:2.0;stroke:black;"/>
        <path d="M 38.0 -362.0 L 38.000000 -361.900000" style="fill:none;stroke-width:2.0;stroke:black;"/>
        <path d="M 962.0 -362.0 L 38.000000 -362.000000" style="fill:none;stroke-width:2.0;stroke:black;"/>
        <path d="M 962.0 -361.9 L 38.000000 -361.900000" style="fill:none;stroke-width:2.0;stroke:black;"/>
        <path d="M 1000.0 -362.0 L 962.000000 -362.000000" style="fill:none;stroke-width:2.0;stroke:black;"/>
        <path d="M 1000.0 -0.0 L 962.000000 -0.000000" style="fill:none;stroke-width:2.0;stroke:black;"/>
        <path d="M 1000.0 -0.0 L 1000.000000 -362.000000" style="fill:none;stroke-width:2.0;stroke:black;"/>
        <path d="M 962.0 -0.0 L 962.000000 -362.000000" style="fill:none;stroke-width:2.0;stroke:black;"/>
        <path d="M 38.1 -362.0 L 38.000000 -362.000000" style="fill:none;stroke-width:2.0;stroke:black;"/>
        <path d="M 38.1 -0.0 L 38.000000 -0.000000" style="fill:none;stroke-width:2.0;stroke:black;"/>
        <path d="M 38.1 -362.0 L 38.100000 -0.000000" style="fill:none;stroke-width:2.0;stroke:black;"/>
        <path d="M 38.0 -362.0 L 38.000000 -0.000000" style="fill:none;stroke-width:2.0;stroke:black;"/>
        <path d="M 48.1 -314.0 L 86.100000 -314.000000" style="fill:none;stroke-width:2.0;stroke:black;"/>
        <path d="M 48.1 -0.0 L 86.100000 -0.000000" style="fill:none;stroke-width:2.0;stroke:black;"/>
        <path d="M 48.1 -314.0 L 48.100000 -0.000000" style="fill:none;stroke-width:2.0;stroke:black;"/>
        <path d="M 86.1 -314.0 L 86.100000 -0.000000" style="fill:none;stroke-width:2.0;stroke:black;"/>
        <path d="M 48.1 -352.0 L 48.100000 -314.000000" style="fill:none;stroke-width:2.0;stroke:black;"/>
        <path d="M 952.0 -352.0 L 952.000000 -314.000000" style="fill:none;stroke-width:2.0;stroke:black;"/>
        <path d="M 952.0 -352.0 L 48.100000 -352.000000" style="fill:none;stroke-width:2.0;stroke:black;"/>
        <path d="M 952.0 -314.0 L 48.100000 -314.000000" style="fill:none;stroke-width:2.0;stroke:black;"/>
        <path d="M 952.0 -314.0 L 914.000000 -314.000000" style="fill:none;stroke-width:2.0;stroke:black;"/>
        <path d="M 952.0 -0.0 L 914.000000 -0.000000" style="fill:none;stroke-width:2.0;stroke:black;"/>
        <path d="M 952.0 -0.0 L 952.000000 -314.000000" style="fill:none;stroke-width:2.0;stroke:black;"/>
        <path d="M 914.0 -0.0 L 914.000000 -314.000000" style="fill:none;stroke-width:2.0;stroke:black;"/>
        <path d="M 914.0 -314.0 L 914.000000 -313.900000" style="fill:none;stroke-width:2.0;stroke:black;"/>
        <path d="M 86.1 -314.0 L 86.100000 -313.900000" style="fill:none;stroke-width:2.0;stroke:black;"/>
        <path d="M 914.0 -314.0 L 86.100000 -314.000000" style="fill:none;stroke-width:2.0;stroke:black;"/>
        <path d="M 914.0 -313.9 L 86.100000 -313.900000" style="fill:none;stroke-width:2.0;stroke:black;"/>
        <path d="M 961.9 -362.0 L 962.000000 -362.000000" style="fill:none;stroke-width:2.0;stroke:black;"/>
        <path d="M 961.9 -0.0 L 962.000000 -0.000000" style="fill:none;stroke-width:2.0;stroke:black;"/>
        <path d="M 961.9 -0.0 L 961.900000 -362.000000" style="fill:none;stroke-width:2.0;stroke:black;"/>
        <path d="M 962.0 -0.0 L 962.000000 -362.000000" style="fill:none;stroke-width:2.0;stroke:black;"/>
        <path d="M 86.2 -314.0 L 86.100000 -314.000000" style="fill:none;stroke-width:2.0;stroke:black;"/>
        <path d="M 86.2 -0.0 L 86.100000 -0.000000" style="fill:none;stroke-width:2.0;stroke:black;"/>
        <path d="M 86.2 -314.0 L 86.200000 -0.000000" style="fill:none;stroke-width:2.0;stroke:black;"/>
        <path d="M 86.1 -314.0 L 86.100000 -0.000000" style="fill:none;stroke-width:2.0;stroke:black;"/>
        <path d="M 0.0 -400.0 L 0.000000 -362.000000" style="fill:none;stroke-width:2.0;stroke:black;"/>
        <path d="M 1000.0 -400.0 L 1000.000000 -362.000000" style="fill:none;stroke-width:2.0;stroke:black;"/>
        <path d="M 1000.0 -400.0 L 0.000000 -400.000000" style="fill:none;stroke-width:2.0;stroke:black;"/>
        <path d="M 1000.0 -362.0 L 0.000000 -362.000000" style="fill:none;stroke-width:2.0;stroke:black;"/>
        <path d="M 913.9 -314.0 L 914.000000 -314.000000" style="fill:none;stroke-width:2.0;stroke:black;"/>
        <path d="M 913.9 -0.0 L 914.000000 -0.000000" style="fill:none;stroke-width:2.0;stroke:black;"/>
        <path d="M 913.9 -0.0 L 913.900000 -314.000000" style="fill:none;stroke-width:2.0;stroke:black;"/>
        <path d="M 914.0 -0.0 L 914.000000 -314.000000" style="fill:none;stroke-width:2.0;stroke:black;"/>
        <path d="M 0.0 -362.0 L 38.000000 -362.000000" style="fill:none;stroke-width:2.0;stroke:black;"/>
        <path d="M 0.0 -0.0 L 38.000000 -0.000000" style="fill:none;stroke-width:2.0;stroke:black;"/>
        <path d="M 0.0 -362.0 L 0.000000 -0.000000" style="fill:none;stroke-width:2.0;stroke:black;"/>
        <path d="M 38.0 -362.0 L 38.000000 -0.000000" style="fill:none;stroke-width:2.0;stroke:black;"/>
    </g>
</svg>
