<?xml version="1.0" encoding="UTF-8"?>
<svg viewBox="0.0 -300.0  945.0 315.0" preserveAspectRatio="xMinYMin meet" xmlns="http://www.w3.org/2000/svg" version="1.1">
    <desc>Powered by Aleker CAD Engine</desc>
    <g id="cad" bboxX="900" bboxY="300">
        <path d="M 40.1 -0.0 L 40.000000 -0.000000" style="fill:none;stroke-width:2.0;stroke:black;"/>
        <path d="M 40.1 -261.9 L 40.100000 -0.000000" style="fill:none;stroke-width:2.0;stroke:black;"/>
        <path d="M 40.0 -261.9 L 40.000000 -0.000000" style="fill:none;stroke-width:2.0;stroke:black;"/>
        <path d="M 40.1 -162.0 L 40.100000 -143.000000" style="fill:none;stroke-width:2.0;stroke:black;"/>
        <path d="M 859.9 -162.0 L 40.100000 -162.000000" style="fill:none;stroke-width:2.0;stroke:black;"/>
        <path d="M 859.9 -143.0 L 40.100000 -143.000000" style="fill:none;stroke-width:2.0;stroke:black;"/>
        <path d="M 859.9 -0.0 L 860.000000 -0.000000" style="fill:none;stroke-width:2.0;stroke:black;"/>
        <path d="M 859.9 -0.0 L 859.900000 -261.900000" style="fill:none;stroke-width:2.0;stroke:black;"/>
        <path d="M 860.0 -0.0 L 860.000000 -261.900000" style="fill:none;stroke-width:2.0;stroke:black;"/>
        <path d="M 40.1 -63.0 L 40.100000 -143.000000" style="fill:none;stroke-width:2.0;stroke:black;"/>
        <path d="M 859.9 -63.0 L 40.100000 -63.000000" style="fill:none;stroke-width:2.0;stroke:black;"/>
        <path d="M 859.9 -143.0 L 40.100000 -143.000000" style="fill:none;stroke-width:2.0;stroke:black;"/>
        <path d="M 0.0 -300.0 L 0.000000 -262.000000" style="fill:none;stroke-width:2.0;stroke:black;"/>
        <path d="M 900.0 -300.0 L 900.000000 -262.000000" style="fill:none;stroke-width:2.0;stroke:black;"/>
        <path d="M 900.0 -300.0 L 0.000000 -300.000000" style="fill:none;stroke-width:2.0;stroke:black;"/>
        <path d="M 900.0 -262.0 L 0.000000 -262.000000" style="fill:none;stroke-width:2.0;stroke:black;"/>
        <path d="M 860.0 -262.0 L 860.000000 -261.900000" style="fill:none;stroke-width:2.0;stroke:black;"/>
        <path d="M 40.0 -262.0 L 40.000000 -261.900000" style="fill:none;stroke-width:2.0;stroke:black;"/>
        <path d="M 860.0 -262.0 L 40.000000 -262.000000" style="fill:none;stroke-width:2.0;stroke:black;"/>
        <path d="M 860.0 -261.9 L 40.000000 -261.900000" style="fill:none;stroke-width:2.0;stroke:black;"/>
        <path d="M 2.0 -262.0 L 40.000000 -262.000000" style="fill:none;stroke-width:2.0;stroke:black;"/>
        <path d="M 2.0 -0.0 L 40.000000 -0.000000" style="fill:none;stroke-width:2.0;stroke:black;"/>
        <path d="M 2.0 -262.0 L 2.000000 -0.000000" style="fill:none;stroke-width:2.0;stroke:black;"/>
        <path d="M 40.0 -261.9 L 40.000000 -0.000000" style="fill:none;stroke-width:2.0;stroke:black;"/>
        <path d="M 898.0 -262.0 L 860.000000 -262.000000" style="fill:none;stroke-width:2.0;stroke:black;"/>
        <path d="M 898.0 -0.0 L 860.000000 -0.000000" style="fill:none;stroke-width:2.0;stroke:black;"/>
        <path d="M 898.0 -0.0 L 898.000000 -262.000000" style="fill:none;stroke-width:2.0;stroke:black;"/>
        <path d="M 860.0 -0.0 L 860.000000 -261.900000" style="fill:none;stroke-width:2.0;stroke:black;"/>
    </g>
</svg>
