<?xml version="1.0" encoding="UTF-8"?>
<svg viewBox="0.0 -400.0  1050.0 420.0" preserveAspectRatio="xMinYMin meet" xmlns="http://www.w3.org/2000/svg" version="1.1">
    <desc>Powered by Aleker CAD Engine</desc>
    <g id="cad" bboxX="1000" bboxY="400">
        <path d="M 0.0 -110.0 L 0.000000 -148.000000" style="fill:none;stroke-width:2.0;stroke:black;"/>
        <path d="M 1000.0 -110.0 L 1000.000000 -148.000000" style="fill:none;stroke-width:2.0;stroke:black;"/>
        <path d="M 0.0 -110.0 L 1000.000000 -110.000000" style="fill:none;stroke-width:2.0;stroke:black;"/>
        <path d="M 0.0 -148.0 L 1000.000000 -148.000000" style="fill:none;stroke-width:2.0;stroke:black;"/>
        <path d="M 800.0 -362.0 L 762.000000 -362.000000" style="fill:none;stroke-width:2.0;stroke:black;"/>
        <path d="M 800.0 -148.0 L 762.000000 -148.000000" style="fill:none;stroke-width:2.0;stroke:black;"/>
        <path d="M 800.0 -148.0 L 800.000000 -362.000000" style="fill:none;stroke-width:2.0;stroke:black;"/>
        <path d="M 762.0 -148.0 L 762.000000 -362.000000" style="fill:none;stroke-width:2.0;stroke:black;"/>
        <path d="M 761.9 -362.0 L 762.000000 -362.000000" style="fill:none;stroke-width:2.0;stroke:black;"/>
        <path d="M 761.9 -148.0 L 762.000000 -148.000000" style="fill:none;stroke-width:2.0;stroke:black;"/>
        <path d="M 761.9 -148.0 L 761.900000 -362.000000" style="fill:none;stroke-width:2.0;stroke:black;"/>
        <path d="M 762.0 -148.0 L 762.000000 -362.000000" style="fill:none;stroke-width:2.0;stroke:black;"/>
        <path d="M 0.0 -362.0 L 38.000000 -362.000000" style="fill:none;stroke-width:2.0;stroke:black;"/>
        <path d="M 0.0 -148.0 L 38.000000 -148.000000" style="fill:none;stroke-width:2.0;stroke:black;"/>
        <path d="M 0.0 -362.0 L 0.000000 -148.000000" style="fill:none;stroke-width:2.0;stroke:black;"/>
        <path d="M 38.0 -362.0 L 38.000000 -148.000000" style="fill:none;stroke-width:2.0;stroke:black;"/>
        <path d="M 0.0 -400.0 L 0.000000 -362.000000" style="fill:none;stroke-width:2.0;stroke:black;"/>
        <path d="M 1000.0 -400.0 L 1000.000000 -362.000000" style="fill:none;stroke-width:2.0;stroke:black;"/>
        <path d="M 1000.0 -400.0 L 0.000000 -400.000000" style="fill:none;stroke-width:2.0;stroke:black;"/>
        <path d="M 1000.0 -362.0 L 0.000000 -362.000000" style="fill:none;stroke-width:2.0;stroke:black;"/>
        <path d="M 0.0 -0.0 L 0.000000 -110.000000" style="fill:none;stroke-width:2.0;stroke:black;"/>
        <path d="M 1000.0 -0.0 L 1000.000000 -110.000000" style="fill:none;stroke-width:2.0;stroke:black;"/>
        <path d="M 0.0 -0.0 L 1000.000000 -0.000000" style="fill:none;stroke-width:2.0;stroke:black;"/>
        <path d="M 0.0 -110.0 L 1000.000000 -110.000000" style="fill:none;stroke-width:2.0;stroke:black;"/>
        <path d="M 0.0 -148.1 L 0.000000 -148.000000" style="fill:none;stroke-width:2.0;stroke:black;"/>
        <path d="M 1000.0 -148.1 L 1000.000000 -148.000000" style="fill:none;stroke-width:2.0;stroke:black;"/>
        <path d="M 0.0 -148.1 L 1000.000000 -148.100000" style="fill:none;stroke-width:2.0;stroke:black;"/>
        <path d="M 0.0 -148.0 L 1000.000000 -148.000000" style="fill:none;stroke-width:2.0;stroke:black;"/>
        <path d="M 0.0 -361.9 L 0.000000 -362.000000" style="fill:none;stroke-width:2.0;stroke:black;"/>
        <path d="M 1000.0 -361.9 L 1000.000000 -362.000000" style="fill:none;stroke-width:2.0;stroke:black;"/>
        <path d="M 1000.0 -361.9 L 0.000000 -361.900000" style="fill:none;stroke-width:2.0;stroke:black;"/>
        <path d="M 1000.0 -362.0 L 0.000000 -362.000000" style="fill:none;stroke-width:2.0;stroke:black;"/>
        <path d="M 38.1 -362.0 L 38.000000 -362.000000" style="fill:none;stroke-width:2.0;stroke:black;"/>
        <path d="M 38.1 -148.0 L 38.000000 -148.000000" style="fill:none;stroke-width:2.0;stroke:black;"/>
        <path d="M 38.1 -362.0 L 38.100000 -148.000000" style="fill:none;stroke-width:2.0;stroke:black;"/>
        <path d="M 38.0 -362.0 L 38.000000 -148.000000" style="fill:none;stroke-width:2.0;stroke:black;"/>
    </g>
</svg>
