<?xml version="1.0" encoding="UTF-8"?>
<svg viewBox="0.0 -148.0  1050.0 155.4" preserveAspectRatio="xMinYMin meet" xmlns="http://www.w3.org/2000/svg" version="1.1">
    <desc>Powered by Aleker CAD Engine</desc>
    <g id="cad" bboxX="1000" bboxY="148">
        <path d="M 0.0 -110.0 L 0.000000 -148.000000" style="fill:none;stroke-width:2.0;stroke:black;"/>
        <path d="M 1000.0 -110.0 L 1000.000000 -148.000000" style="fill:none;stroke-width:2.0;stroke:black;"/>
        <path d="M 0.0 -110.0 L 1000.000000 -110.000000" style="fill:none;stroke-width:2.0;stroke:black;"/>
        <path d="M 0.0 -148.0 L 1000.000000 -148.000000" style="fill:none;stroke-width:2.0;stroke:black;"/>
        <path d="" style="fill:none;stroke-width:2.0;stroke:black;"/>
        <path d="" style="fill:none;stroke-width:2.0;stroke:black;"/>
        <path d="" style="fill:none;stroke-width:2.0;stroke:black;"/>
        <path d="" style="fill:none;stroke-width:2.0;stroke:black;"/>
        <path d="" style="fill:none;stroke-width:2.0;stroke:black;"/>
        <path d="M 930.2 -47.4 L 930.222078 -47.380000" style="fill:none;stroke-width:2.0;stroke:black;"/>
        <path d="" style="fill:none;stroke-width:2.0;stroke:black;"/>
        <path d="" style="fill:none;stroke-width:2.0;stroke:black;"/>
        <path d="M 930.2 -47.4 L 930.222078 -47.380000" style="fill:none;stroke-width:2.0;stroke:black;"/>
        <path d="" style="fill:none;stroke-width:2.0;stroke:black;"/>
        <path d="" style="fill:none;stroke-width:2.0;stroke:black;"/>
        <path d="" style="fill:none;stroke-width:2.0;stroke:black;"/>
        <path d="" style="fill:none;stroke-width:2.0;stroke:black;"/>
        <path d="" style="fill:none;stroke-width:2.0;stroke:black;"/>
        <path d="M 830.0 -110.0 L 830.000000 -0.000000" style="fill:none;stroke-width:2.0;stroke:black;"/>
        <path d="M 910.0 -110.0 L 910.000000 -0.000000" style="fill:none;stroke-width:2.0;stroke:black;"/>
        <path d="M 910.0 -0.0 L 830.000000 -0.000000" style="fill:none;stroke-width:2.0;stroke:black;"/>
        <path d="M 910.9 -24.5 L 913.911611 -24.493018" style="fill:none;stroke-width:2.0;stroke:black;"/>
        <path d="" style="fill:none;stroke-width:2.0;stroke:black;"/>
        <path d="M 919.0 -30.3 L 920.505280 -30.257619" style="fill:none;stroke-width:2.0;stroke:black;"/>
        <path d="" style="fill:none;stroke-width:2.0;stroke:black;"/>
        <path d="M 925.5 -49.0 L 926.434108 -49.037409" style="fill:none;stroke-width:2.0;stroke:black;"/>
        <path d="" style="fill:none;stroke-width:2.0;stroke:black;"/>
        <path d="" style="fill:none;stroke-width:2.0;stroke:black;"/>
        <path d="" style="fill:none;stroke-width:2.0;stroke:black;"/>
        <path d="M 910.0 -71.4 L 911.903435 -71.353638" style="fill:none;stroke-width:2.0;stroke:black;"/>
        <path d="" style="fill:none;stroke-width:2.0;stroke:black;"/>
        <path d="M 910.9 -24.5 L 913.911611 -24.493018" style="fill:none;stroke-width:2.0;stroke:black;"/>
        <path d="" style="fill:none;stroke-width:2.0;stroke:black;"/>
        <path d="M 919.0 -30.3 L 920.505280 -30.257619" style="fill:none;stroke-width:2.0;stroke:black;"/>
        <path d="M 922.7 -59.2 L 923.829577 -59.212878" style="fill:none;stroke-width:2.0;stroke:black;"/>
        <path d="" style="fill:none;stroke-width:2.0;stroke:black;"/>
        <path d="" style="fill:none;stroke-width:2.0;stroke:black;"/>
        <path d="M 910.0 -71.4 L 911.903435 -71.353638" style="fill:none;stroke-width:2.0;stroke:black;"/>
        <path d="" style="fill:none;stroke-width:2.0;stroke:black;"/>
        <path d="" style="fill:none;stroke-width:2.0;stroke:black;"/>
        <path d="" style="fill:none;stroke-width:2.0;stroke:black;"/>
        <path d="" style="fill:none;stroke-width:2.0;stroke:black;"/>
        <path d="" style="fill:none;stroke-width:2.0;stroke:black;"/>
        <path d="" style="fill:none;stroke-width:2.0;stroke:black;"/>
        <path d="M 925.5 -49.0 L 926.434108 -49.037409" style="fill:none;stroke-width:2.0;stroke:black;"/>
        <path d="" style="fill:none;stroke-width:2.0;stroke:black;"/>
        <path d="M 922.7 -59.2 L 923.829577 -59.212878" style="fill:none;stroke-width:2.0;stroke:black;"/>
        <path d="" style="fill:none;stroke-width:2.0;stroke:black;"/>
        <path d="" style="fill:none;stroke-width:2.0;stroke:black;"/>
        <path d="M 76.0 -58.6 A24.7 24.7 0 0 0 73.4, -49.0" style="fill:none;stroke-width:2.0;stroke:black;"/>
        <path d="" style="fill:none;stroke-width:2.0;stroke:black;"/>
        <path d="M 80.2 -30.3 A24.7 24.7 0 0 0 88.8, -24.5" style="fill:none;stroke-width:2.0;stroke:black;"/>
        <path d="" style="fill:none;stroke-width:2.0;stroke:black;"/>
        <path d="M 80.2 -30.3 A24.7 24.7 0 0 0 88.8, -24.5" style="fill:none;stroke-width:2.0;stroke:black;"/>
        <path d="M 76.0 -58.6 A24.7 24.7 0 0 0 73.4, -49.0" style="fill:none;stroke-width:2.0;stroke:black;"/>
        <path d="" style="fill:none;stroke-width:2.0;stroke:black;"/>
        <path d="" style="fill:none;stroke-width:2.0;stroke:black;"/>
        <path d="" style="fill:none;stroke-width:2.0;stroke:black;"/>
        <path d="" style="fill:none;stroke-width:2.0;stroke:black;"/>
        <path d="M 90.0 -96.9 L 77.813679 -96.870000" style="fill:none;stroke-width:2.0;stroke:black;"/>
        <path d="" style="fill:none;stroke-width:2.0;stroke:black;"/>
        <path d="" style="fill:none;stroke-width:2.0;stroke:black;"/>
        <path d="M 44.1 -96.9 L 44.130680 -92.782296" style="fill:none;stroke-width:2.0;stroke:black;"/>
        <path d="M 39.5 -108.0 L 90.000000 -107.980000" style="fill:none;stroke-width:2.0;stroke:black;"/>
        <path d="M 39.5 -110.0 L 39.500000 -107.980000" style="fill:none;stroke-width:2.0;stroke:black;"/>
        <path d="M 39.5 -110.0 L 39.500000 -107.980000" style="fill:none;stroke-width:2.0;stroke:black;"/>
        <path d="" style="fill:none;stroke-width:2.0;stroke:black;"/>
        <path d="" style="fill:none;stroke-width:2.0;stroke:black;"/>
        <path d="M 69.8 -108.0 L 69.800000 -96.870000" style="fill:none;stroke-width:2.0;stroke:black;"/>
        <path d="" style="fill:none;stroke-width:2.0;stroke:black;"/>
        <path d="" style="fill:none;stroke-width:2.0;stroke:black;"/>
        <path d="" style="fill:none;stroke-width:2.0;stroke:black;"/>
        <path d="M 69.8 -108.0 L 69.800000 -96.870000" style="fill:none;stroke-width:2.0;stroke:black;"/>
        <path d="M 61.8 -96.9 L 44.130680 -96.870000" style="fill:none;stroke-width:2.0;stroke:black;"/>
        <path d="M 39.5 -108.0 L 90.000000 -107.980000" style="fill:none;stroke-width:2.0;stroke:black;"/>
        <path d="" style="fill:none;stroke-width:2.0;stroke:black;"/>
        <path d="M 44.1 -92.8 L 90.000000 -43.532356" style="fill:none;stroke-width:2.0;stroke:black;"/>
        <path d="M 44.1 -92.8 L 90.000000 -43.532356" style="fill:none;stroke-width:2.0;stroke:black;"/>
        <path d="M 0.0 -148.1 L 0.000000 -148.000000" style="fill:none;stroke-width:2.0;stroke:black;"/>
        <path d="M 1000.0 -148.1 L 1000.000000 -148.000000" style="fill:none;stroke-width:2.0;stroke:black;"/>
        <path d="M 0.0 -148.1 L 1000.000000 -148.100000" style="fill:none;stroke-width:2.0;stroke:black;"/>
        <path d="M 0.0 -148.0 L 1000.000000 -148.000000" style="fill:none;stroke-width:2.0;stroke:black;"/>
        <path d="" style="fill:none;stroke-width:2.0;stroke:black;"/>
        <path d="" style="fill:none;stroke-width:2.0;stroke:black;"/>
        <path d="" style="fill:none;stroke-width:2.0;stroke:black;"/>
        <path d="" style="fill:none;stroke-width:2.0;stroke:black;"/>
        <path d="" style="fill:none;stroke-width:2.0;stroke:black;"/>
        <path d="" style="fill:none;stroke-width:2.0;stroke:black;"/>
        <path d="M 44.1 -92.8 L 63.441258 -72.048506" style="fill:none;stroke-width:2.0;stroke:black;"/>
        <path d="M 71.9 -62.9 L 71.940959 -62.922368" style="fill:none;stroke-width:2.0;stroke:black;"/>
        <path d="M 75.6 -59.0 L 75.989022 -58.575959" style="fill:none;stroke-width:2.0;stroke:black;"/>
        <path d="M 44.1 -92.8 L 63.441258 -72.048506" style="fill:none;stroke-width:2.0;stroke:black;"/>
        <path d="M 71.9 -62.9 L 71.940959 -62.922368" style="fill:none;stroke-width:2.0;stroke:black;"/>
        <path d="M 75.6 -59.0 L 75.989022 -58.575959" style="fill:none;stroke-width:2.0;stroke:black;"/>
        <path d="M 910.5 -94.8 L 910.000000 -94.850000" style="fill:none;stroke-width:2.0;stroke:black;"/>
        <path d="M 910.5 -96.9 L 910.000000 -96.870000" style="fill:none;stroke-width:2.0;stroke:black;"/>
        <path d="M 910.5 -96.9 L 910.493757 -96.671693" style="fill:none;stroke-width:2.0;stroke:black;"/>
        <path d="M 910.5 -96.7 L 910.493757 -94.850000" style="fill:none;stroke-width:2.0;stroke:black;"/>
        <path d="" style="fill:none;stroke-width:2.0;stroke:black;"/>
        <path d="" style="fill:none;stroke-width:2.0;stroke:black;"/>
        <path d="M 910.5 -96.9 L 911.131444 -96.870000" style="fill:none;stroke-width:2.0;stroke:black;"/>
        <path d="M 910.5 -96.9 L 910.000000 -96.870000" style="fill:none;stroke-width:2.0;stroke:black;"/>
        <path d="M 910.5 -96.7 L 912.505285 -89.172744" style="fill:none;stroke-width:2.0;stroke:black;"/>
        <path d="M 918.5 -66.7 L 920.174545 -60.581851" style="fill:none;stroke-width:2.0;stroke:black;"/>
        <path d="M 910.5 -96.7 L 910.493757 -94.850000" style="fill:none;stroke-width:2.0;stroke:black;"/>
        <path d="M 919.3 -110.0 L 919.335897 -107.980000" style="fill:none;stroke-width:2.0;stroke:black;"/>
        <path d="M 910.5 -96.9 L 911.131444 -96.870000" style="fill:none;stroke-width:2.0;stroke:black;"/>
        <path d="M 910.5 -96.7 L 912.505285 -89.172744" style="fill:none;stroke-width:2.0;stroke:black;"/>
        <path d="M 918.5 -66.7 L 920.174545 -60.581851" style="fill:none;stroke-width:2.0;stroke:black;"/>
        <path d="M 911.1 -96.9 L 913.233391 -89.033970" style="fill:none;stroke-width:2.0;stroke:black;"/>
        <path d="M 919.5 -65.7 L 920.978535 -60.160181" style="fill:none;stroke-width:2.0;stroke:black;"/>
        <path d="M 910.9 -51.5 L 910.169432 -51.520087" style="fill:none;stroke-width:2.0;stroke:black;"/>
        <path d="M 910.9 -51.5 L 910.000000 -54.727322" style="fill:none;stroke-width:2.0;stroke:black;"/>
        <path d="M 910.2 -51.5 L 910.000000 -52.151728" style="fill:none;stroke-width:2.0;stroke:black;"/>
        <path d="M 911.1 -96.9 L 913.233391 -89.033970" style="fill:none;stroke-width:2.0;stroke:black;"/>
        <path d="M 919.5 -65.7 L 920.978535 -60.160181" style="fill:none;stroke-width:2.0;stroke:black;"/>
        <path d="" style="fill:none;stroke-width:2.0;stroke:black;"/>
        <path d="M 910.9 -51.5 L 910.169432 -51.520087" style="fill:none;stroke-width:2.0;stroke:black;"/>
        <path d="" style="fill:none;stroke-width:2.0;stroke:black;"/>
        <path d="M 910.0 -108.0 L 919.335897 -107.980000" style="fill:none;stroke-width:2.0;stroke:black;"/>
        <path d="M 910.5 -94.8 L 910.000000 -94.850000" style="fill:none;stroke-width:2.0;stroke:black;"/>
        <path d="M 910.5 -96.9 L 910.493757 -96.671693" style="fill:none;stroke-width:2.0;stroke:black;"/>
        <path d="" style="fill:none;stroke-width:2.0;stroke:black;"/>
        <path d="M 910.0 -108.0 L 919.335897 -107.980000" style="fill:none;stroke-width:2.0;stroke:black;"/>
        <path d="M 919.3 -110.0 L 919.335897 -107.980000" style="fill:none;stroke-width:2.0;stroke:black;"/>
        <path d="M 90.0 -110.0 L 90.000000 -0.000000" style="fill:none;stroke-width:2.0;stroke:black;"/>
        <path d="M 170.0 -110.0 L 170.000000 -0.000000" style="fill:none;stroke-width:2.0;stroke:black;"/>
        <path d="M 170.0 -0.0 L 90.000000 -0.000000" style="fill:none;stroke-width:2.0;stroke:black;"/>
        <path d="M 75.6 -59.0 A25.3 25.3 0 0 0 90.0, -23.4" style="fill:none;stroke-width:2.0;stroke:black;"/>
        <path d="" style="fill:none;stroke-width:2.0;stroke:black;"/>
        <path d="" style="fill:none;stroke-width:2.0;stroke:black;"/>
        <path d="" style="fill:none;stroke-width:2.0;stroke:black;"/>
        <path d="" style="fill:none;stroke-width:2.0;stroke:black;"/>
        <path d="M 71.9 -62.9 A30.3 30.3 0 0 0 90.0, -18.1" style="fill:none;stroke-width:2.0;stroke:black;"/>
        <path d="" style="fill:none;stroke-width:2.0;stroke:black;"/>
        <path d="" style="fill:none;stroke-width:2.0;stroke:black;"/>
        <path d="" style="fill:none;stroke-width:2.0;stroke:black;"/>
        <path d="" style="fill:none;stroke-width:2.0;stroke:black;"/>
        <path d="" style="fill:none;stroke-width:2.0;stroke:black;"/>
        <path d="" style="fill:none;stroke-width:2.0;stroke:black;"/>
    </g>
</svg>
