<?xml version="1.0" encoding="UTF-8"?>
<svg viewBox="0.0 -2200.0  4200.0 2310.0" preserveAspectRatio="xMinYMin meet" xmlns="http://www.w3.org/2000/svg" version="1.1">
    <desc>Powered by Aleker CAD Engine</desc>
    <g id="cad" bboxX="4000" bboxY="2200">
        <path d="M 497.6 -751.8 L 497.625000 -732.787500" style="fill:none;stroke-width:2.0;stroke:black;"/>
        <path d="M 497.6 -751.8 L 19.000000 -751.787500" style="fill:none;stroke-width:2.0;stroke:black;"/>
        <path d="M 497.6 -732.8 L 19.000000 -732.787500" style="fill:none;stroke-width:2.0;stroke:black;"/>
        <path d="M 497.6 -958.7 L 497.625000 -939.675000" style="fill:none;stroke-width:2.0;stroke:black;"/>
        <path d="M 497.6 -958.7 L 19.000000 -958.675000" style="fill:none;stroke-width:2.0;stroke:black;"/>
        <path d="M 497.6 -939.7 L 19.000000 -939.675000" style="fill:none;stroke-width:2.0;stroke:black;"/>
        <path d="M 1492.9 -2181.0 L 1014.250000 -2181.000000" style="fill:none;stroke-width:2.0;stroke:black;"/>
        <path d="M 1492.9 -2200.0 L 1014.250000 -2200.000000" style="fill:none;stroke-width:2.0;stroke:black;"/>
        <path d="M 2009.5 -2200.0 L 1990.500000 -2200.000000" style="fill:none;stroke-width:2.0;stroke:black;"/>
        <path d="M 2009.5 -0.0 L 1990.500000 -0.000000" style="fill:none;stroke-width:2.0;stroke:black;"/>
        <path d="M 2009.5 -0.0 L 2009.500000 -2200.000000" style="fill:none;stroke-width:2.0;stroke:black;"/>
        <path d="M 1990.5 -0.0 L 1990.500000 -2200.000000" style="fill:none;stroke-width:2.0;stroke:black;"/>
        <path d="M 3004.8 -0.0 L 2985.750000 -0.000000" style="fill:none;stroke-width:2.0;stroke:black;"/>
        <path d="M 3004.8 -2200.0 L 2985.750000 -2200.000000" style="fill:none;stroke-width:2.0;stroke:black;"/>
        <path d="M 3004.8 -0.0 L 3004.750000 -2200.000000" style="fill:none;stroke-width:2.0;stroke:black;"/>
        <path d="M 2985.8 -0.0 L 2985.750000 -2200.000000" style="fill:none;stroke-width:2.0;stroke:black;"/>
        <path d="M 19.0 -0.0 L 497.625000 -0.000000" style="fill:none;stroke-width:2.0;stroke:black;"/>
        <path d="M 3483.4 -100.0 L 3483.375000 -119.000000" style="fill:none;stroke-width:2.0;stroke:black;"/>
        <path d="M 3483.4 -100.0 L 3004.750000 -100.000000" style="fill:none;stroke-width:2.0;stroke:black;"/>
        <path d="M 3483.4 -119.0 L 3004.750000 -119.000000" style="fill:none;stroke-width:2.0;stroke:black;"/>
        <path d="M 3483.4 -1963.6 L 3483.375000 -1944.557143" style="fill:none;stroke-width:2.0;stroke:black;"/>
        <path d="M 3483.4 -1963.6 L 3004.750000 -1963.557143" style="fill:none;stroke-width:2.0;stroke:black;"/>
        <path d="M 3483.4 -1944.6 L 3004.750000 -1944.557143" style="fill:none;stroke-width:2.0;stroke:black;"/>
        <path d="M 3004.8 -0.0 L 3483.375000 -0.000000" style="fill:none;stroke-width:2.0;stroke:black;"/>
        <path d="M 2985.8 -1538.0 L 2985.750000 -1518.960000" style="fill:none;stroke-width:2.0;stroke:black;"/>
        <path d="M 2985.8 -1538.0 L 2507.125000 -1537.960000" style="fill:none;stroke-width:2.0;stroke:black;"/>
        <path d="M 2985.8 -1519.0 L 2507.125000 -1518.960000" style="fill:none;stroke-width:2.0;stroke:black;"/>
        <path d="M 1511.9 -2200.0 L 1492.875000 -2200.000000" style="fill:none;stroke-width:2.0;stroke:black;"/>
        <path d="M 1511.9 -0.0 L 1492.875000 -0.000000" style="fill:none;stroke-width:2.0;stroke:black;"/>
        <path d="M 1511.9 -0.0 L 1511.875000 -2200.000000" style="fill:none;stroke-width:2.0;stroke:black;"/>
        <path d="M 1492.9 -0.0 L 1492.875000 -2200.000000" style="fill:none;stroke-width:2.0;stroke:black;"/>
        <path d="M 1990.5 -1727.1 L 1990.500000 -1708.114286" style="fill:none;stroke-width:2.0;stroke:black;"/>
        <path d="M 1990.5 -1727.1 L 1511.875000 -1727.114286" style="fill:none;stroke-width:2.0;stroke:black;"/>
        <path d="M 1990.5 -1708.1 L 1511.875000 -1708.114286" style="fill:none;stroke-width:2.0;stroke:black;"/>
        <path d="M 2488.1 -2181.0 L 2009.500000 -2181.000000" style="fill:none;stroke-width:2.0;stroke:black;"/>
        <path d="M 2488.1 -2200.0 L 2009.500000 -2200.000000" style="fill:none;stroke-width:2.0;stroke:black;"/>
        <path d="M 3981.0 -319.0 L 3981.000000 -338.000000" style="fill:none;stroke-width:2.0;stroke:black;"/>
        <path d="M 3981.0 -319.0 L 3502.375000 -319.000000" style="fill:none;stroke-width:2.0;stroke:black;"/>
        <path d="M 3981.0 -338.0 L 3502.375000 -338.000000" style="fill:none;stroke-width:2.0;stroke:black;"/>
        <path d="M 3483.4 -544.9 L 3483.375000 -525.900000" style="fill:none;stroke-width:2.0;stroke:black;"/>
        <path d="M 3483.4 -544.9 L 3004.750000 -544.900000" style="fill:none;stroke-width:2.0;stroke:black;"/>
        <path d="M 3483.4 -525.9 L 3004.750000 -525.900000" style="fill:none;stroke-width:2.0;stroke:black;"/>
        <path d="M 2985.8 -100.0 L 2985.750000 -119.000000" style="fill:none;stroke-width:2.0;stroke:black;"/>
        <path d="M 2985.8 -100.0 L 2507.125000 -100.000000" style="fill:none;stroke-width:2.0;stroke:black;"/>
        <path d="M 2985.8 -119.0 L 2507.125000 -119.000000" style="fill:none;stroke-width:2.0;stroke:black;"/>
        <path d="M 995.3 -1372.5 L 995.250000 -1353.450000" style="fill:none;stroke-width:2.0;stroke:black;"/>
        <path d="M 995.3 -1372.5 L 516.625000 -1372.450000" style="fill:none;stroke-width:2.0;stroke:black;"/>
        <path d="M 995.3 -1353.5 L 516.625000 -1353.450000" style="fill:none;stroke-width:2.0;stroke:black;"/>
        <path d="M 497.6 -1579.3 L 497.625000 -1560.337500" style="fill:none;stroke-width:2.0;stroke:black;"/>
        <path d="M 497.6 -1579.3 L 19.000000 -1579.337500" style="fill:none;stroke-width:2.0;stroke:black;"/>
        <path d="M 497.6 -1560.3 L 19.000000 -1560.337500" style="fill:none;stroke-width:2.0;stroke:black;"/>
        <path d="M 3981.0 -1963.6 L 3981.000000 -1944.557143" style="fill:none;stroke-width:2.0;stroke:black;"/>
        <path d="M 3981.0 -1963.6 L 3502.375000 -1963.557143" style="fill:none;stroke-width:2.0;stroke:black;"/>
        <path d="M 3981.0 -1944.6 L 3502.375000 -1944.557143" style="fill:none;stroke-width:2.0;stroke:black;"/>
        <path d="M 1990.5 -1963.6 L 1990.500000 -1944.557143" style="fill:none;stroke-width:2.0;stroke:black;"/>
        <path d="M 1990.5 -1963.6 L 1511.875000 -1963.557143" style="fill:none;stroke-width:2.0;stroke:black;"/>
        <path d="M 1990.5 -1944.6 L 1511.875000 -1944.557143" style="fill:none;stroke-width:2.0;stroke:black;"/>
        <path d="M 3981.0 -781.3 L 3981.000000 -762.342857" style="fill:none;stroke-width:2.0;stroke:black;"/>
        <path d="M 3981.0 -781.3 L 3502.375000 -781.342857" style="fill:none;stroke-width:2.0;stroke:black;"/>
        <path d="M 3981.0 -762.3 L 3502.375000 -762.342857" style="fill:none;stroke-width:2.0;stroke:black;"/>
        <path d="M 497.6 -100.0 L 497.625000 -119.000000" style="fill:none;stroke-width:2.0;stroke:black;"/>
        <path d="M 497.6 -100.0 L 19.000000 -100.000000" style="fill:none;stroke-width:2.0;stroke:black;"/>
        <path d="M 497.6 -119.0 L 19.000000 -119.000000" style="fill:none;stroke-width:2.0;stroke:black;"/>
        <path d="M 995.3 -319.0 L 995.250000 -338.000000" style="fill:none;stroke-width:2.0;stroke:black;"/>
        <path d="M 995.3 -319.0 L 516.625000 -319.000000" style="fill:none;stroke-width:2.0;stroke:black;"/>
        <path d="M 995.3 -338.0 L 516.625000 -338.000000" style="fill:none;stroke-width:2.0;stroke:black;"/>
        <path d="M 995.3 -1786.2 L 995.250000 -1767.225000" style="fill:none;stroke-width:2.0;stroke:black;"/>
        <path d="M 995.3 -1786.2 L 516.625000 -1786.225000" style="fill:none;stroke-width:2.0;stroke:black;"/>
        <path d="M 995.3 -1767.2 L 516.625000 -1767.225000" style="fill:none;stroke-width:2.0;stroke:black;"/>
        <path d="M 995.3 -958.7 L 995.250000 -939.675000" style="fill:none;stroke-width:2.0;stroke:black;"/>
        <path d="M 995.3 -958.7 L 516.625000 -958.675000" style="fill:none;stroke-width:2.0;stroke:black;"/>
        <path d="M 995.3 -939.7 L 516.625000 -939.675000" style="fill:none;stroke-width:2.0;stroke:black;"/>
        <path d="M 2488.1 -1372.5 L 2488.125000 -1353.450000" style="fill:none;stroke-width:2.0;stroke:black;"/>
        <path d="M 2488.1 -1372.5 L 2009.500000 -1372.450000" style="fill:none;stroke-width:2.0;stroke:black;"/>
        <path d="M 2488.1 -1353.5 L 2009.500000 -1353.450000" style="fill:none;stroke-width:2.0;stroke:black;"/>
        <path d="M 2985.8 -1869.0 L 2985.750000 -1849.980000" style="fill:none;stroke-width:2.0;stroke:black;"/>
        <path d="M 2985.8 -1869.0 L 2507.125000 -1868.980000" style="fill:none;stroke-width:2.0;stroke:black;"/>
        <path d="M 2985.8 -1850.0 L 2507.125000 -1849.980000" style="fill:none;stroke-width:2.0;stroke:black;"/>
        <path d="M 3483.4 -1490.7 L 3483.375000 -1471.671429" style="fill:none;stroke-width:2.0;stroke:black;"/>
        <path d="M 3483.4 -1490.7 L 3004.750000 -1490.671429" style="fill:none;stroke-width:2.0;stroke:black;"/>
        <path d="M 3483.4 -1471.7 L 3004.750000 -1471.671429" style="fill:none;stroke-width:2.0;stroke:black;"/>
        <path d="M 1492.9 -781.3 L 1492.875000 -762.342857" style="fill:none;stroke-width:2.0;stroke:black;"/>
        <path d="M 1492.9 -781.3 L 1014.250000 -781.342857" style="fill:none;stroke-width:2.0;stroke:black;"/>
        <path d="M 1492.9 -762.3 L 1014.250000 -762.342857" style="fill:none;stroke-width:2.0;stroke:black;"/>
        <path d="M 1990.5 -100.0 L 1990.500000 -119.000000" style="fill:none;stroke-width:2.0;stroke:black;"/>
        <path d="M 1990.5 -100.0 L 1511.875000 -100.000000" style="fill:none;stroke-width:2.0;stroke:black;"/>
        <path d="M 1990.5 -119.0 L 1511.875000 -119.000000" style="fill:none;stroke-width:2.0;stroke:black;"/>
        <path d="M 1990.5 -1490.7 L 1990.500000 -1471.671429" style="fill:none;stroke-width:2.0;stroke:black;"/>
        <path d="M 1990.5 -1490.7 L 1511.875000 -1490.671429" style="fill:none;stroke-width:2.0;stroke:black;"/>
        <path d="M 1990.5 -1471.7 L 1511.875000 -1471.671429" style="fill:none;stroke-width:2.0;stroke:black;"/>
        <path d="M 1990.5 -544.9 L 1990.500000 -525.900000" style="fill:none;stroke-width:2.0;stroke:black;"/>
        <path d="M 1990.5 -544.9 L 1511.875000 -544.900000" style="fill:none;stroke-width:2.0;stroke:black;"/>
        <path d="M 1990.5 -525.9 L 1511.875000 -525.900000" style="fill:none;stroke-width:2.0;stroke:black;"/>
        <path d="M 3483.4 -2181.0 L 3004.750000 -2181.000000" style="fill:none;stroke-width:2.0;stroke:black;"/>
        <path d="M 3483.4 -2200.0 L 3004.750000 -2200.000000" style="fill:none;stroke-width:2.0;stroke:black;"/>
        <path d="M 497.6 -2181.0 L 19.000000 -2181.000000" style="fill:none;stroke-width:2.0;stroke:black;"/>
        <path d="M 497.6 -2200.0 L 19.000000 -2200.000000" style="fill:none;stroke-width:2.0;stroke:black;"/>
        <path d="M 2488.1 -958.7 L 2488.125000 -939.675000" style="fill:none;stroke-width:2.0;stroke:black;"/>
        <path d="M 2488.1 -958.7 L 2009.500000 -958.675000" style="fill:none;stroke-width:2.0;stroke:black;"/>
        <path d="M 2488.1 -939.7 L 2009.500000 -939.675000" style="fill:none;stroke-width:2.0;stroke:black;"/>
        <path d="M 497.6 -1372.5 L 497.625000 -1353.450000" style="fill:none;stroke-width:2.0;stroke:black;"/>
        <path d="M 497.6 -1372.5 L 19.000000 -1372.450000" style="fill:none;stroke-width:2.0;stroke:black;"/>
        <path d="M 497.6 -1353.5 L 19.000000 -1353.450000" style="fill:none;stroke-width:2.0;stroke:black;"/>
        <path d="M 2985.8 -544.9 L 2985.750000 -525.900000" style="fill:none;stroke-width:2.0;stroke:black;"/>
        <path d="M 2985.8 -544.9 L 2507.125000 -544.900000" style="fill:none;stroke-width:2.0;stroke:black;"/>
        <path d="M 2985.8 -525.9 L 2507.125000 -525.900000" style="fill:none;stroke-width:2.0;stroke:black;"/>
        <path d="M 1492.9 -1963.6 L 1492.875000 -1944.557143" style="fill:none;stroke-width:2.0;stroke:black;"/>
        <path d="M 1492.9 -1963.6 L 1014.250000 -1963.557143" style="fill:none;stroke-width:2.0;stroke:black;"/>
        <path d="M 1492.9 -1944.6 L 1014.250000 -1944.557143" style="fill:none;stroke-width:2.0;stroke:black;"/>
        <path d="M 2488.1 -100.0 L 2488.125000 -119.000000" style="fill:none;stroke-width:2.0;stroke:black;"/>
        <path d="M 2488.1 -100.0 L 2009.500000 -100.000000" style="fill:none;stroke-width:2.0;stroke:black;"/>
        <path d="M 2488.1 -119.0 L 2009.500000 -119.000000" style="fill:none;stroke-width:2.0;stroke:black;"/>
        <path d="M 3981.0 -2181.0 L 3502.375000 -2181.000000" style="fill:none;stroke-width:2.0;stroke:black;"/>
        <path d="M 3981.0 -2200.0 L 3502.375000 -2200.000000" style="fill:none;stroke-width:2.0;stroke:black;"/>
        <path d="M 995.3 -1993.1 L 995.250000 -1974.112500" style="fill:none;stroke-width:2.0;stroke:black;"/>
        <path d="M 995.3 -1993.1 L 516.625000 -1993.112500" style="fill:none;stroke-width:2.0;stroke:black;"/>
        <path d="M 995.3 -1974.1 L 516.625000 -1974.112500" style="fill:none;stroke-width:2.0;stroke:black;"/>
        <path d="M 1990.5 -781.3 L 1990.500000 -762.342857" style="fill:none;stroke-width:2.0;stroke:black;"/>
        <path d="M 1990.5 -781.3 L 1511.875000 -781.342857" style="fill:none;stroke-width:2.0;stroke:black;"/>
        <path d="M 1990.5 -762.3 L 1511.875000 -762.342857" style="fill:none;stroke-width:2.0;stroke:black;"/>
        <path d="M 3483.4 -1017.8 L 3483.375000 -998.785714" style="fill:none;stroke-width:2.0;stroke:black;"/>
        <path d="M 3483.4 -1017.8 L 3004.750000 -1017.785714" style="fill:none;stroke-width:2.0;stroke:black;"/>
        <path d="M 3483.4 -998.8 L 3004.750000 -998.785714" style="fill:none;stroke-width:2.0;stroke:black;"/>
        <path d="M 3502.4 -2200.0 L 3483.375000 -2200.000000" style="fill:none;stroke-width:2.0;stroke:black;"/>
        <path d="M 3502.4 -0.0 L 3483.375000 -0.000000" style="fill:none;stroke-width:2.0;stroke:black;"/>
        <path d="M 3502.4 -0.0 L 3502.375000 -2200.000000" style="fill:none;stroke-width:2.0;stroke:black;"/>
        <path d="M 3483.4 -0.0 L 3483.375000 -2200.000000" style="fill:none;stroke-width:2.0;stroke:black;"/>
        <path d="M 1492.9 -1254.2 L 1492.875000 -1235.228571" style="fill:none;stroke-width:2.0;stroke:black;"/>
        <path d="M 1492.9 -1254.2 L 1014.250000 -1254.228571" style="fill:none;stroke-width:2.0;stroke:black;"/>
        <path d="M 1492.9 -1235.2 L 1014.250000 -1235.228571" style="fill:none;stroke-width:2.0;stroke:black;"/>
        <path d="M 1492.9 -100.0 L 1492.875000 -119.000000" style="fill:none;stroke-width:2.0;stroke:black;"/>
        <path d="M 1492.9 -100.0 L 1014.250000 -100.000000" style="fill:none;stroke-width:2.0;stroke:black;"/>
        <path d="M 1492.9 -119.0 L 1014.250000 -119.000000" style="fill:none;stroke-width:2.0;stroke:black;"/>
        <path d="M 2507.1 -2200.0 L 2488.125000 -2200.000000" style="fill:none;stroke-width:2.0;stroke:black;"/>
        <path d="M 2507.1 -0.0 L 2488.125000 -0.000000" style="fill:none;stroke-width:2.0;stroke:black;"/>
        <path d="M 2507.1 -0.0 L 2507.125000 -2200.000000" style="fill:none;stroke-width:2.0;stroke:black;"/>
        <path d="M 2488.1 -0.0 L 2488.125000 -2200.000000" style="fill:none;stroke-width:2.0;stroke:black;"/>
        <path d="M 497.6 -1993.1 L 497.625000 -1974.112500" style="fill:none;stroke-width:2.0;stroke:black;"/>
        <path d="M 497.6 -1993.1 L 19.000000 -1993.112500" style="fill:none;stroke-width:2.0;stroke:black;"/>
        <path d="M 497.6 -1974.1 L 19.000000 -1974.112500" style="fill:none;stroke-width:2.0;stroke:black;"/>
        <path d="M 1990.5 -1254.2 L 1990.500000 -1235.228571" style="fill:none;stroke-width:2.0;stroke:black;"/>
        <path d="M 1990.5 -1254.2 L 1511.875000 -1254.228571" style="fill:none;stroke-width:2.0;stroke:black;"/>
        <path d="M 1990.5 -1235.2 L 1511.875000 -1235.228571" style="fill:none;stroke-width:2.0;stroke:black;"/>
        <path d="M 3483.4 -1254.2 L 3483.375000 -1235.228571" style="fill:none;stroke-width:2.0;stroke:black;"/>
        <path d="M 3483.4 -1254.2 L 3004.750000 -1254.228571" style="fill:none;stroke-width:2.0;stroke:black;"/>
        <path d="M 3483.4 -1235.2 L 3004.750000 -1235.228571" style="fill:none;stroke-width:2.0;stroke:black;"/>
        <path d="M 516.6 -0.0 L 995.250000 -0.000000" style="fill:none;stroke-width:2.0;stroke:black;"/>
        <path d="M 3483.4 -781.3 L 3483.375000 -762.342857" style="fill:none;stroke-width:2.0;stroke:black;"/>
        <path d="M 3483.4 -781.3 L 3004.750000 -781.342857" style="fill:none;stroke-width:2.0;stroke:black;"/>
        <path d="M 3483.4 -762.3 L 3004.750000 -762.342857" style="fill:none;stroke-width:2.0;stroke:black;"/>
        <path d="M 1492.9 -1017.8 L 1492.875000 -998.785714" style="fill:none;stroke-width:2.0;stroke:black;"/>
        <path d="M 1492.9 -1017.8 L 1014.250000 -1017.785714" style="fill:none;stroke-width:2.0;stroke:black;"/>
        <path d="M 1492.9 -998.8 L 1014.250000 -998.785714" style="fill:none;stroke-width:2.0;stroke:black;"/>
        <path d="M 995.3 -2181.0 L 516.625000 -2181.000000" style="fill:none;stroke-width:2.0;stroke:black;"/>
        <path d="M 995.3 -2200.0 L 516.625000 -2200.000000" style="fill:none;stroke-width:2.0;stroke:black;"/>
        <path d="M 3981.0 -544.9 L 3981.000000 -525.900000" style="fill:none;stroke-width:2.0;stroke:black;"/>
        <path d="M 3981.0 -544.9 L 3502.375000 -544.900000" style="fill:none;stroke-width:2.0;stroke:black;"/>
        <path d="M 3981.0 -525.9 L 3502.375000 -525.900000" style="fill:none;stroke-width:2.0;stroke:black;"/>
        <path d="M 1990.5 -2181.0 L 1511.875000 -2181.000000" style="fill:none;stroke-width:2.0;stroke:black;"/>
        <path d="M 1990.5 -2200.0 L 1511.875000 -2200.000000" style="fill:none;stroke-width:2.0;stroke:black;"/>
        <path d="M 1990.5 -319.0 L 1990.500000 -338.000000" style="fill:none;stroke-width:2.0;stroke:black;"/>
        <path d="M 1990.5 -319.0 L 1511.875000 -319.000000" style="fill:none;stroke-width:2.0;stroke:black;"/>
        <path d="M 1990.5 -338.0 L 1511.875000 -338.000000" style="fill:none;stroke-width:2.0;stroke:black;"/>
        <path d="M 1014.3 -2200.0 L 995.250000 -2200.000000" style="fill:none;stroke-width:2.0;stroke:black;"/>
        <path d="M 1014.3 -0.0 L 995.250000 -0.000000" style="fill:none;stroke-width:2.0;stroke:black;"/>
        <path d="M 1014.3 -0.0 L 1014.250000 -2200.000000" style="fill:none;stroke-width:2.0;stroke:black;"/>
        <path d="M 995.3 -0.0 L 995.250000 -2200.000000" style="fill:none;stroke-width:2.0;stroke:black;"/>
        <path d="M 1492.9 -1727.1 L 1492.875000 -1708.114286" style="fill:none;stroke-width:2.0;stroke:black;"/>
        <path d="M 1492.9 -1727.1 L 1014.250000 -1727.114286" style="fill:none;stroke-width:2.0;stroke:black;"/>
        <path d="M 1492.9 -1708.1 L 1014.250000 -1708.114286" style="fill:none;stroke-width:2.0;stroke:black;"/>
        <path d="M 3981.0 -100.0 L 3981.000000 -119.000000" style="fill:none;stroke-width:2.0;stroke:black;"/>
        <path d="M 3981.0 -100.0 L 3502.375000 -100.000000" style="fill:none;stroke-width:2.0;stroke:black;"/>
        <path d="M 3981.0 -119.0 L 3502.375000 -119.000000" style="fill:none;stroke-width:2.0;stroke:black;"/>
        <path d="M 3981.0 -1254.2 L 3981.000000 -1235.228571" style="fill:none;stroke-width:2.0;stroke:black;"/>
        <path d="M 3981.0 -1254.2 L 3502.375000 -1254.228571" style="fill:none;stroke-width:2.0;stroke:black;"/>
        <path d="M 3981.0 -1235.2 L 3502.375000 -1235.228571" style="fill:none;stroke-width:2.0;stroke:black;"/>
        <path d="M 995.3 -1165.6 L 995.250000 -1146.562500" style="fill:none;stroke-width:2.0;stroke:black;"/>
        <path d="M 995.3 -1165.6 L 516.625000 -1165.562500" style="fill:none;stroke-width:2.0;stroke:black;"/>
        <path d="M 995.3 -1146.6 L 516.625000 -1146.562500" style="fill:none;stroke-width:2.0;stroke:black;"/>
        <path d="M 497.6 -319.0 L 497.625000 -338.000000" style="fill:none;stroke-width:2.0;stroke:black;"/>
        <path d="M 497.6 -319.0 L 19.000000 -319.000000" style="fill:none;stroke-width:2.0;stroke:black;"/>
        <path d="M 497.6 -338.0 L 19.000000 -338.000000" style="fill:none;stroke-width:2.0;stroke:black;"/>
        <path d="M 995.3 -751.8 L 995.250000 -732.787500" style="fill:none;stroke-width:2.0;stroke:black;"/>
        <path d="M 995.3 -751.8 L 516.625000 -751.787500" style="fill:none;stroke-width:2.0;stroke:black;"/>
        <path d="M 995.3 -732.8 L 516.625000 -732.787500" style="fill:none;stroke-width:2.0;stroke:black;"/>
        <path d="M 995.3 -1579.3 L 995.250000 -1560.337500" style="fill:none;stroke-width:2.0;stroke:black;"/>
        <path d="M 995.3 -1579.3 L 516.625000 -1579.337500" style="fill:none;stroke-width:2.0;stroke:black;"/>
        <path d="M 995.3 -1560.3 L 516.625000 -1560.337500" style="fill:none;stroke-width:2.0;stroke:black;"/>
        <path d="M 19.0 -2200.0 L 0.000000 -2200.000000" style="fill:none;stroke-width:2.0;stroke:black;"/>
        <path d="M 19.0 -0.0 L 0.000000 -0.000000" style="fill:none;stroke-width:2.0;stroke:black;"/>
        <path d="M 19.0 -2200.0 L 19.000000 -0.000000" style="fill:none;stroke-width:2.0;stroke:black;"/>
        <path d="M 0.0 -2200.0 L 0.000000 -0.000000" style="fill:none;stroke-width:2.0;stroke:black;"/>
        <path d="M 1990.5 -1017.8 L 1990.500000 -998.785714" style="fill:none;stroke-width:2.0;stroke:black;"/>
        <path d="M 1990.5 -1017.8 L 1511.875000 -1017.785714" style="fill:none;stroke-width:2.0;stroke:black;"/>
        <path d="M 1990.5 -998.8 L 1511.875000 -998.785714" style="fill:none;stroke-width:2.0;stroke:black;"/>
        <path d="M 516.6 -2200.0 L 497.625000 -2200.000000" style="fill:none;stroke-width:2.0;stroke:black;"/>
        <path d="M 516.6 -0.0 L 497.625000 -0.000000" style="fill:none;stroke-width:2.0;stroke:black;"/>
        <path d="M 516.6 -0.0 L 516.625000 -2200.000000" style="fill:none;stroke-width:2.0;stroke:black;"/>
        <path d="M 497.6 -0.0 L 497.625000 -2200.000000" style="fill:none;stroke-width:2.0;stroke:black;"/>
        <path d="M 2507.1 -0.0 L 2985.750000 -0.000000" style="fill:none;stroke-width:2.0;stroke:black;"/>
        <path d="M 2985.8 -319.0 L 2985.750000 -338.000000" style="fill:none;stroke-width:2.0;stroke:black;"/>
        <path d="M 2985.8 -319.0 L 2507.125000 -319.000000" style="fill:none;stroke-width:2.0;stroke:black;"/>
        <path d="M 2985.8 -338.0 L 2507.125000 -338.000000" style="fill:none;stroke-width:2.0;stroke:black;"/>
        <path d="M 1014.3 -0.0 L 1492.875000 -0.000000" style="fill:none;stroke-width:2.0;stroke:black;"/>
        <path d="M 2488.1 -319.0 L 2488.125000 -338.000000" style="fill:none;stroke-width:2.0;stroke:black;"/>
        <path d="M 2488.1 -319.0 L 2009.500000 -319.000000" style="fill:none;stroke-width:2.0;stroke:black;"/>
        <path d="M 2488.1 -338.0 L 2009.500000 -338.000000" style="fill:none;stroke-width:2.0;stroke:black;"/>
        <path d="M 497.6 -1165.6 L 497.625000 -1146.562500" style="fill:none;stroke-width:2.0;stroke:black;"/>
        <path d="M 497.6 -1165.6 L 19.000000 -1165.562500" style="fill:none;stroke-width:2.0;stroke:black;"/>
        <path d="M 497.6 -1146.6 L 19.000000 -1146.562500" style="fill:none;stroke-width:2.0;stroke:black;"/>
        <path d="M 995.3 -100.0 L 995.250000 -119.000000" style="fill:none;stroke-width:2.0;stroke:black;"/>
        <path d="M 995.3 -100.0 L 516.625000 -100.000000" style="fill:none;stroke-width:2.0;stroke:black;"/>
        <path d="M 995.3 -119.0 L 516.625000 -119.000000" style="fill:none;stroke-width:2.0;stroke:black;"/>
        <path d="M 1014.3 -2200.0 L 995.250000 -2200.000000" style="fill:none;stroke-width:2.0;stroke:black;"/>
        <path d="M 1014.3 -0.0 L 995.250000 -0.000000" style="fill:none;stroke-width:2.0;stroke:black;"/>
        <path d="M 1014.3 -0.0 L 1014.250000 -2200.000000" style="fill:none;stroke-width:2.0;stroke:black;"/>
        <path d="M 995.3 -0.0 L 995.250000 -2200.000000" style="fill:none;stroke-width:2.0;stroke:black;"/>
        <path d="M 1492.9 -319.0 L 1492.875000 -338.000000" style="fill:none;stroke-width:2.0;stroke:black;"/>
        <path d="M 1492.9 -319.0 L 1014.250000 -319.000000" style="fill:none;stroke-width:2.0;stroke:black;"/>
        <path d="M 1492.9 -338.0 L 1014.250000 -338.000000" style="fill:none;stroke-width:2.0;stroke:black;"/>
        <path d="M 2985.8 -2181.0 L 2507.125000 -2181.000000" style="fill:none;stroke-width:2.0;stroke:black;"/>
        <path d="M 2985.8 -2200.0 L 2507.125000 -2200.000000" style="fill:none;stroke-width:2.0;stroke:black;"/>
        <path d="M 2985.8 -1206.9 L 2985.750000 -1187.940000" style="fill:none;stroke-width:2.0;stroke:black;"/>
        <path d="M 2985.8 -1206.9 L 2507.125000 -1206.940000" style="fill:none;stroke-width:2.0;stroke:black;"/>
        <path d="M 2985.8 -1187.9 L 2507.125000 -1187.940000" style="fill:none;stroke-width:2.0;stroke:black;"/>
        <path d="M 1492.9 -1490.7 L 1492.875000 -1471.671429" style="fill:none;stroke-width:2.0;stroke:black;"/>
        <path d="M 1492.9 -1490.7 L 1014.250000 -1490.671429" style="fill:none;stroke-width:2.0;stroke:black;"/>
        <path d="M 1492.9 -1471.7 L 1014.250000 -1471.671429" style="fill:none;stroke-width:2.0;stroke:black;"/>
        <path d="M 516.6 -2200.0 L 497.625000 -2200.000000" style="fill:none;stroke-width:2.0;stroke:black;"/>
        <path d="M 516.6 -0.0 L 497.625000 -0.000000" style="fill:none;stroke-width:2.0;stroke:black;"/>
        <path d="M 516.6 -0.0 L 516.625000 -2200.000000" style="fill:none;stroke-width:2.0;stroke:black;"/>
        <path d="M 497.6 -0.0 L 497.625000 -2200.000000" style="fill:none;stroke-width:2.0;stroke:black;"/>
        <path d="M 2009.5 -2200.0 L 1990.500000 -2200.000000" style="fill:none;stroke-width:2.0;stroke:black;"/>
        <path d="M 2009.5 -0.0 L 1990.500000 -0.000000" style="fill:none;stroke-width:2.0;stroke:black;"/>
        <path d="M 2009.5 -0.0 L 2009.500000 -2200.000000" style="fill:none;stroke-width:2.0;stroke:black;"/>
        <path d="M 1990.5 -0.0 L 1990.500000 -2200.000000" style="fill:none;stroke-width:2.0;stroke:black;"/>
        <path d="M 3502.4 -0.0 L 3981.000000 -0.000000" style="fill:none;stroke-width:2.0;stroke:black;"/>
        <path d="M 3981.0 -1017.8 L 3981.000000 -998.785714" style="fill:none;stroke-width:2.0;stroke:black;"/>
        <path d="M 3981.0 -1017.8 L 3502.375000 -1017.785714" style="fill:none;stroke-width:2.0;stroke:black;"/>
        <path d="M 3981.0 -998.8 L 3502.375000 -998.785714" style="fill:none;stroke-width:2.0;stroke:black;"/>
        <path d="M 3981.0 -1727.1 L 3981.000000 -1708.114286" style="fill:none;stroke-width:2.0;stroke:black;"/>
        <path d="M 3981.0 -1727.1 L 3502.375000 -1727.114286" style="fill:none;stroke-width:2.0;stroke:black;"/>
        <path d="M 3981.0 -1708.1 L 3502.375000 -1708.114286" style="fill:none;stroke-width:2.0;stroke:black;"/>
        <path d="M 4000.0 -2200.0 L 3981.000000 -2200.000000" style="fill:none;stroke-width:2.0;stroke:black;"/>
        <path d="M 4000.0 -0.0 L 3981.000000 -0.000000" style="fill:none;stroke-width:2.0;stroke:black;"/>
        <path d="M 4000.0 -0.0 L 4000.000000 -2200.000000" style="fill:none;stroke-width:2.0;stroke:black;"/>
        <path d="M 3981.0 -0.0 L 3981.000000 -2200.000000" style="fill:none;stroke-width:2.0;stroke:black;"/>
        <path d="M 1492.9 -544.9 L 1492.875000 -525.900000" style="fill:none;stroke-width:2.0;stroke:black;"/>
        <path d="M 1492.9 -544.9 L 1014.250000 -544.900000" style="fill:none;stroke-width:2.0;stroke:black;"/>
        <path d="M 1492.9 -525.9 L 1014.250000 -525.900000" style="fill:none;stroke-width:2.0;stroke:black;"/>
        <path d="M 2507.1 -2200.0 L 2488.125000 -2200.000000" style="fill:none;stroke-width:2.0;stroke:black;"/>
        <path d="M 2507.1 -0.0 L 2488.125000 -0.000000" style="fill:none;stroke-width:2.0;stroke:black;"/>
        <path d="M 2507.1 -0.0 L 2507.125000 -2200.000000" style="fill:none;stroke-width:2.0;stroke:black;"/>
        <path d="M 2488.1 -0.0 L 2488.125000 -2200.000000" style="fill:none;stroke-width:2.0;stroke:black;"/>
        <path d="M 3981.0 -1490.7 L 3981.000000 -1471.671429" style="fill:none;stroke-width:2.0;stroke:black;"/>
        <path d="M 3981.0 -1490.7 L 3502.375000 -1490.671429" style="fill:none;stroke-width:2.0;stroke:black;"/>
        <path d="M 3981.0 -1471.7 L 3502.375000 -1471.671429" style="fill:none;stroke-width:2.0;stroke:black;"/>
        <path d="M 2985.8 -875.9 L 2985.750000 -856.920000" style="fill:none;stroke-width:2.0;stroke:black;"/>
        <path d="M 2985.8 -875.9 L 2507.125000 -875.920000" style="fill:none;stroke-width:2.0;stroke:black;"/>
        <path d="M 2985.8 -856.9 L 2507.125000 -856.920000" style="fill:none;stroke-width:2.0;stroke:black;"/>
        <path d="M 3483.4 -1727.1 L 3483.375000 -1708.114286" style="fill:none;stroke-width:2.0;stroke:black;"/>
        <path d="M 3483.4 -1727.1 L 3004.750000 -1727.114286" style="fill:none;stroke-width:2.0;stroke:black;"/>
        <path d="M 3483.4 -1708.1 L 3004.750000 -1708.114286" style="fill:none;stroke-width:2.0;stroke:black;"/>
        <path d="M 2488.1 -1786.2 L 2488.125000 -1767.225000" style="fill:none;stroke-width:2.0;stroke:black;"/>
        <path d="M 2488.1 -1786.2 L 2009.500000 -1786.225000" style="fill:none;stroke-width:2.0;stroke:black;"/>
        <path d="M 2488.1 -1767.2 L 2009.500000 -1767.225000" style="fill:none;stroke-width:2.0;stroke:black;"/>
        <path d="M 2488.1 -544.9 L 2488.125000 -525.900000" style="fill:none;stroke-width:2.0;stroke:black;"/>
        <path d="M 2488.1 -544.9 L 2009.500000 -544.900000" style="fill:none;stroke-width:2.0;stroke:black;"/>
        <path d="M 2488.1 -525.9 L 2009.500000 -525.900000" style="fill:none;stroke-width:2.0;stroke:black;"/>
        <path d="M 1511.9 -2200.0 L 1492.875000 -2200.000000" style="fill:none;stroke-width:2.0;stroke:black;"/>
        <path d="M 1511.9 -0.0 L 1492.875000 -0.000000" style="fill:none;stroke-width:2.0;stroke:black;"/>
        <path d="M 1511.9 -0.0 L 1511.875000 -2200.000000" style="fill:none;stroke-width:2.0;stroke:black;"/>
        <path d="M 1492.9 -0.0 L 1492.875000 -2200.000000" style="fill:none;stroke-width:2.0;stroke:black;"/>
        <path d="M 1511.9 -0.0 L 1990.500000 -0.000000" style="fill:none;stroke-width:2.0;stroke:black;"/>
        <path d="M 497.6 -1786.2 L 497.625000 -1767.225000" style="fill:none;stroke-width:2.0;stroke:black;"/>
        <path d="M 497.6 -1786.2 L 19.000000 -1786.225000" style="fill:none;stroke-width:2.0;stroke:black;"/>
        <path d="M 497.6 -1767.2 L 19.000000 -1767.225000" style="fill:none;stroke-width:2.0;stroke:black;"/>
        <path d="M 3483.4 -319.0 L 3483.375000 -338.000000" style="fill:none;stroke-width:2.0;stroke:black;"/>
        <path d="M 3483.4 -319.0 L 3004.750000 -319.000000" style="fill:none;stroke-width:2.0;stroke:black;"/>
        <path d="M 3483.4 -338.0 L 3004.750000 -338.000000" style="fill:none;stroke-width:2.0;stroke:black;"/>
        <path d="M 497.6 -544.9 L 497.625000 -525.900000" style="fill:none;stroke-width:2.0;stroke:black;"/>
        <path d="M 497.6 -544.9 L 19.000000 -544.900000" style="fill:none;stroke-width:2.0;stroke:black;"/>
        <path d="M 497.6 -525.9 L 19.000000 -525.900000" style="fill:none;stroke-width:2.0;stroke:black;"/>
        <path d="M 995.3 -544.9 L 995.250000 -525.900000" style="fill:none;stroke-width:2.0;stroke:black;"/>
        <path d="M 995.3 -544.9 L 516.625000 -544.900000" style="fill:none;stroke-width:2.0;stroke:black;"/>
        <path d="M 995.3 -525.9 L 516.625000 -525.900000" style="fill:none;stroke-width:2.0;stroke:black;"/>
        <path d="M 2009.5 -0.0 L 2488.125000 -0.000000" style="fill:none;stroke-width:2.0;stroke:black;"/>
    </g>
</svg>
