<?xml version="1.0" encoding="UTF-8"?>
<svg viewBox="0.0 -1990.0  2100.0 2089.5" preserveAspectRatio="xMinYMin meet" xmlns="http://www.w3.org/2000/svg" version="1.1">
    <desc>Powered by Aleker CAD Engine</desc>
    <g id="cad" bboxX="2000" bboxY="1990">
        <path d="M 19.0 -379.3 L 19.000000 -360.333333" style="fill:none;stroke-width:2.0;stroke:black;"/>
        <path d="M 660.3 -379.3 L 660.333333 -360.333333" style="fill:none;stroke-width:2.0;stroke:black;"/>
        <path d="M 19.0 -379.3 L 660.333333 -379.333333" style="fill:none;stroke-width:2.0;stroke:black;"/>
        <path d="M 19.0 -360.3 L 660.333333 -360.333333" style="fill:none;stroke-width:2.0;stroke:black;"/>
        <path d="M 679.3 -0.0 L 660.333333 -0.000000" style="fill:none;stroke-width:2.0;stroke:black;"/>
        <path d="M 679.3 -1330.2 L 660.333333 -1330.166667" style="fill:none;stroke-width:2.0;stroke:black;"/>
        <path d="M 679.3 -0.0 L 679.333333 -1330.166667" style="fill:none;stroke-width:2.0;stroke:black;"/>
        <path d="M 660.3 -0.0 L 660.333333 -1330.166667" style="fill:none;stroke-width:2.0;stroke:black;"/>
        <path d="M 1339.7 -100.0 L 1339.666667 -119.000000" style="fill:none;stroke-width:2.0;stroke:black;"/>
        <path d="M 1981.0 -100.0 L 1981.000000 -119.000000" style="fill:none;stroke-width:2.0;stroke:black;"/>
        <path d="M 1339.7 -100.0 L 1981.000000 -100.000000" style="fill:none;stroke-width:2.0;stroke:black;"/>
        <path d="M 1339.7 -119.0 L 1981.000000 -119.000000" style="fill:none;stroke-width:2.0;stroke:black;"/>
        <path d="M 19.0 -100.0 L 19.000000 -119.000000" style="fill:none;stroke-width:2.0;stroke:black;"/>
        <path d="M 660.3 -100.0 L 660.333333 -119.000000" style="fill:none;stroke-width:2.0;stroke:black;"/>
        <path d="M 19.0 -100.0 L 660.333333 -100.000000" style="fill:none;stroke-width:2.0;stroke:black;"/>
        <path d="M 19.0 -119.0 L 660.333333 -119.000000" style="fill:none;stroke-width:2.0;stroke:black;"/>
        <path d="M 19.0 -0.0 L 0.000000 -0.000000" style="fill:none;stroke-width:2.0;stroke:black;"/>
        <path d="M 19.0 -1000.0 L 0.000000 -1000.000000" style="fill:none;stroke-width:2.0;stroke:black;"/>
        <path d="M 19.0 -0.0 L 19.000000 -1000.000000" style="fill:none;stroke-width:2.0;stroke:black;"/>
        <path d="M 0.0 -0.0 L 0.000000 -1000.000000" style="fill:none;stroke-width:2.0;stroke:black;"/>
        <path d="M 1339.7 -0.0 L 1339.666667 -100.000000" style="fill:none;stroke-width:2.0;stroke:black;"/>
        <path d="M 1981.0 -0.0 L 1981.000000 -100.000000" style="fill:none;stroke-width:2.0;stroke:black;"/>
        <path d="M 1339.7 -0.0 L 1981.000000 -0.000000" style="fill:none;stroke-width:2.0;stroke:black;"/>
        <path d="M 1339.7 -100.0 L 1981.000000 -100.000000" style="fill:none;stroke-width:2.0;stroke:black;"/>
        <path d="M 2000.0 -1990.5 L 1981.000000 -1990.500000" style="fill:none;stroke-width:2.0;stroke:black;"/>
        <path d="M 2000.0 -0.0 L 1981.000000 -0.000000" style="fill:none;stroke-width:2.0;stroke:black;"/>
        <path d="M 2000.0 -0.0 L 2000.000000 -1990.500000" style="fill:none;stroke-width:2.0;stroke:black;"/>
        <path d="M 1981.0 -0.0 L 1981.000000 -1990.500000" style="fill:none;stroke-width:2.0;stroke:black;"/>
        <path d="M 679.3 -100.0 L 679.333333 -119.000000" style="fill:none;stroke-width:2.0;stroke:black;"/>
        <path d="M 1320.7 -100.0 L 1320.666667 -119.000000" style="fill:none;stroke-width:2.0;stroke:black;"/>
        <path d="M 679.3 -100.0 L 1320.666667 -100.000000" style="fill:none;stroke-width:2.0;stroke:black;"/>
        <path d="M 679.3 -119.0 L 1320.666667 -119.000000" style="fill:none;stroke-width:2.0;stroke:black;"/>
        <path d="M 1339.7 -1079.9 L 1339.666667 -1060.888889" style="fill:none;stroke-width:2.0;stroke:black;"/>
        <path d="M 1981.0 -1079.9 L 1981.000000 -1060.888889" style="fill:none;stroke-width:2.0;stroke:black;"/>
        <path d="M 1339.7 -1079.9 L 1981.000000 -1079.888889" style="fill:none;stroke-width:2.0;stroke:black;"/>
        <path d="M 1339.7 -1060.9 L 1981.000000 -1060.888889" style="fill:none;stroke-width:2.0;stroke:black;"/>
        <path d="M 19.0 -639.7 L 19.000000 -620.666667" style="fill:none;stroke-width:2.0;stroke:black;"/>
        <path d="M 660.3 -639.7 L 660.333333 -620.666667" style="fill:none;stroke-width:2.0;stroke:black;"/>
        <path d="M 19.0 -639.7 L 660.333333 -639.666667" style="fill:none;stroke-width:2.0;stroke:black;"/>
        <path d="M 19.0 -620.7 L 660.333333 -620.666667" style="fill:none;stroke-width:2.0;stroke:black;"/>
        <path d="M 19.0 -0.0 L 19.000000 -100.000000" style="fill:none;stroke-width:2.0;stroke:black;"/>
        <path d="M 660.3 -0.0 L 660.333333 -100.000000" style="fill:none;stroke-width:2.0;stroke:black;"/>
        <path d="M 19.0 -0.0 L 660.333333 -0.000000" style="fill:none;stroke-width:2.0;stroke:black;"/>
        <path d="M 19.0 -100.0 L 660.333333 -100.000000" style="fill:none;stroke-width:2.0;stroke:black;"/>
        <path d="M 679.3 -489.4 L 679.333333 -470.388889" style="fill:none;stroke-width:2.0;stroke:black;"/>
        <path d="M 1320.7 -489.4 L 1320.666667 -470.388889" style="fill:none;stroke-width:2.0;stroke:black;"/>
        <path d="M 679.3 -489.4 L 1320.666667 -489.388889" style="fill:none;stroke-width:2.0;stroke:black;"/>
        <path d="M 679.3 -470.4 L 1320.666667 -470.388889" style="fill:none;stroke-width:2.0;stroke:black;"/>
        <path d="M 679.3 -859.8 L 679.333333 -840.777778" style="fill:none;stroke-width:2.0;stroke:black;"/>
        <path d="M 1320.7 -859.8 L 1320.666667 -840.777778" style="fill:none;stroke-width:2.0;stroke:black;"/>
        <path d="M 679.3 -859.8 L 1320.666667 -859.777778" style="fill:none;stroke-width:2.0;stroke:black;"/>
        <path d="M 679.3 -840.8 L 1320.666667 -840.777778" style="fill:none;stroke-width:2.0;stroke:black;"/>
        <path d="M 19.0 -900.0 L 19.000000 -881.000000" style="fill:none;stroke-width:2.0;stroke:black;"/>
        <path d="M 660.3 -900.0 L 660.333333 -881.000000" style="fill:none;stroke-width:2.0;stroke:black;"/>
        <path d="M 19.0 -900.0 L 660.333333 -900.000000" style="fill:none;stroke-width:2.0;stroke:black;"/>
        <path d="M 19.0 -881.0 L 660.333333 -881.000000" style="fill:none;stroke-width:2.0;stroke:black;"/>
        <path d="M 1339.7 -599.4 L 1339.666667 -580.444444" style="fill:none;stroke-width:2.0;stroke:black;"/>
        <path d="M 1981.0 -599.4 L 1981.000000 -580.444444" style="fill:none;stroke-width:2.0;stroke:black;"/>
        <path d="M 1339.7 -599.4 L 1981.000000 -599.444444" style="fill:none;stroke-width:2.0;stroke:black;"/>
        <path d="M 1339.7 -580.4 L 1981.000000 -580.444444" style="fill:none;stroke-width:2.0;stroke:black;"/>
        <path d="M 1339.7 -1560.3 L 1339.666667 -1541.333333" style="fill:none;stroke-width:2.0;stroke:black;"/>
        <path d="M 1981.0 -1560.3 L 1981.000000 -1541.333333" style="fill:none;stroke-width:2.0;stroke:black;"/>
        <path d="M 1339.7 -1560.3 L 1981.000000 -1560.333333" style="fill:none;stroke-width:2.0;stroke:black;"/>
        <path d="M 1339.7 -1541.3 L 1981.000000 -1541.333333" style="fill:none;stroke-width:2.0;stroke:black;"/>
        <path d="M 679.3 -0.0 L 679.333333 -100.000000" style="fill:none;stroke-width:2.0;stroke:black;"/>
        <path d="M 1320.7 -0.0 L 1320.666667 -100.000000" style="fill:none;stroke-width:2.0;stroke:black;"/>
        <path d="M 679.3 -0.0 L 1320.666667 -0.000000" style="fill:none;stroke-width:2.0;stroke:black;"/>
        <path d="M 679.3 -100.0 L 1320.666667 -100.000000" style="fill:none;stroke-width:2.0;stroke:black;"/>
        <path d="M 1339.7 -1660.3 L 1320.666667 -1660.333333" style="fill:none;stroke-width:2.0;stroke:black;"/>
        <path d="M 1339.7 -0.0 L 1320.666667 -0.000000" style="fill:none;stroke-width:2.0;stroke:black;"/>
        <path d="M 1339.7 -0.0 L 1339.666667 -1660.333333" style="fill:none;stroke-width:2.0;stroke:black;"/>
        <path d="M 1320.7 -0.0 L 1320.666667 -1660.333333" style="fill:none;stroke-width:2.0;stroke:black;"/>
        <path d="M 679.3 -1230.2 L 679.333333 -1211.166667" style="fill:none;stroke-width:2.0;stroke:black;"/>
        <path d="M 1320.7 -1230.2 L 1320.666667 -1211.166667" style="fill:none;stroke-width:2.0;stroke:black;"/>
        <path d="M 679.3 -1230.2 L 1320.666667 -1230.166667" style="fill:none;stroke-width:2.0;stroke:black;"/>
        <path d="M 679.3 -1211.2 L 1320.666667 -1211.166667" style="fill:none;stroke-width:2.0;stroke:black;"/>
    </g>
</svg>
