<?xml version="1.0" encoding="UTF-8"?>
<svg viewBox="0.0 -2000.0  1260.0 2100.0" preserveAspectRatio="xMinYMin meet" xmlns="http://www.w3.org/2000/svg" version="1.1">
    <desc>Powered by Aleker CAD Engine</desc>
    <g id="cad" bboxX="1200" bboxY="2000">
        <path d="M 1181.0 -100.0 L 1181.000000 -119.000000" style="fill:none;stroke-width:2.0;stroke:black;"/>
        <path d="M 806.3 -100.0 L 1181.000000 -100.000000" style="fill:none;stroke-width:2.0;stroke:black;"/>
        <path d="M 806.3 -119.0 L 1181.000000 -119.000000" style="fill:none;stroke-width:2.0;stroke:black;"/>
        <path d="M 1181.0 -1228.6 L 1181.000000 -1247.600000" style="fill:none;stroke-width:2.0;stroke:black;"/>
        <path d="M 1181.0 -1228.6 L 806.333333 -1228.600000" style="fill:none;stroke-width:2.0;stroke:black;"/>
        <path d="M 1181.0 -1247.6 L 806.333333 -1247.600000" style="fill:none;stroke-width:2.0;stroke:black;"/>
        <path d="M 1181.0 -852.4 L 1181.000000 -871.400000" style="fill:none;stroke-width:2.0;stroke:black;"/>
        <path d="M 1181.0 -852.4 L 806.333333 -852.400000" style="fill:none;stroke-width:2.0;stroke:black;"/>
        <path d="M 1181.0 -871.4 L 806.333333 -871.400000" style="fill:none;stroke-width:2.0;stroke:black;"/>
        <path d="M 787.3 -1228.6 L 787.333333 -1247.600000" style="fill:none;stroke-width:2.0;stroke:black;"/>
        <path d="M 412.7 -1228.6 L 412.666667 -1247.600000" style="fill:none;stroke-width:2.0;stroke:black;"/>
        <path d="M 787.3 -1228.6 L 412.666667 -1228.600000" style="fill:none;stroke-width:2.0;stroke:black;"/>
        <path d="M 787.3 -1247.6 L 412.666667 -1247.600000" style="fill:none;stroke-width:2.0;stroke:black;"/>
        <path d="M 393.7 -476.2 L 393.666667 -495.200000" style="fill:none;stroke-width:2.0;stroke:black;"/>
        <path d="M 19.0 -476.2 L 19.000000 -495.200000" style="fill:none;stroke-width:2.0;stroke:black;"/>
        <path d="M 393.7 -476.2 L 19.000000 -476.200000" style="fill:none;stroke-width:2.0;stroke:black;"/>
        <path d="M 393.7 -495.2 L 19.000000 -495.200000" style="fill:none;stroke-width:2.0;stroke:black;"/>
        <path d="M 19.0 -2000.0 L 393.666667 -2000.000000" style="fill:none;stroke-width:2.0;stroke:black;"/>
        <path d="M 19.0 -1981.0 L 393.666667 -1981.000000" style="fill:none;stroke-width:2.0;stroke:black;"/>
        <path d="M 19.0 -0.0 L 393.666667 -0.000000" style="fill:none;stroke-width:2.0;stroke:black;"/>
        <path d="M 787.3 -476.2 L 787.333333 -495.200000" style="fill:none;stroke-width:2.0;stroke:black;"/>
        <path d="M 412.7 -476.2 L 412.666667 -495.200000" style="fill:none;stroke-width:2.0;stroke:black;"/>
        <path d="M 787.3 -476.2 L 412.666667 -476.200000" style="fill:none;stroke-width:2.0;stroke:black;"/>
        <path d="M 787.3 -495.2 L 412.666667 -495.200000" style="fill:none;stroke-width:2.0;stroke:black;"/>
        <path d="M 412.7 -0.0 L 787.333333 -0.000000" style="fill:none;stroke-width:2.0;stroke:black;"/>
        <path d="M 806.3 -0.0 L 1181.000000 -0.000000" style="fill:none;stroke-width:2.0;stroke:black;"/>
        <path d="M 393.7 -1604.8 L 393.666667 -1623.800000" style="fill:none;stroke-width:2.0;stroke:black;"/>
        <path d="M 19.0 -1604.8 L 19.000000 -1623.800000" style="fill:none;stroke-width:2.0;stroke:black;"/>
        <path d="M 393.7 -1604.8 L 19.000000 -1604.800000" style="fill:none;stroke-width:2.0;stroke:black;"/>
        <path d="M 393.7 -1623.8 L 19.000000 -1623.800000" style="fill:none;stroke-width:2.0;stroke:black;"/>
        <path d="M 1181.0 -2000.0 L 806.333333 -2000.000000" style="fill:none;stroke-width:2.0;stroke:black;"/>
        <path d="M 1181.0 -1981.0 L 806.333333 -1981.000000" style="fill:none;stroke-width:2.0;stroke:black;"/>
        <path d="M 393.7 -852.4 L 393.666667 -871.400000" style="fill:none;stroke-width:2.0;stroke:black;"/>
        <path d="M 19.0 -852.4 L 19.000000 -871.400000" style="fill:none;stroke-width:2.0;stroke:black;"/>
        <path d="M 393.7 -852.4 L 19.000000 -852.400000" style="fill:none;stroke-width:2.0;stroke:black;"/>
        <path d="M 393.7 -871.4 L 19.000000 -871.400000" style="fill:none;stroke-width:2.0;stroke:black;"/>
        <path d="M 1181.0 -476.2 L 1181.000000 -495.200000" style="fill:none;stroke-width:2.0;stroke:black;"/>
        <path d="M 1181.0 -476.2 L 806.333333 -476.200000" style="fill:none;stroke-width:2.0;stroke:black;"/>
        <path d="M 1181.0 -495.2 L 806.333333 -495.200000" style="fill:none;stroke-width:2.0;stroke:black;"/>
        <path d="M 412.7 -2000.0 L 393.666667 -2000.000000" style="fill:none;stroke-width:2.0;stroke:black;"/>
        <path d="M 412.7 -0.0 L 393.666667 -0.000000" style="fill:none;stroke-width:2.0;stroke:black;"/>
        <path d="M 412.7 -0.0 L 412.666667 -2000.000000" style="fill:none;stroke-width:2.0;stroke:black;"/>
        <path d="M 393.7 -0.0 L 393.666667 -2000.000000" style="fill:none;stroke-width:2.0;stroke:black;"/>
        <path d="M 787.3 -2000.0 L 412.666667 -2000.000000" style="fill:none;stroke-width:2.0;stroke:black;"/>
        <path d="M 787.3 -1981.0 L 412.666667 -1981.000000" style="fill:none;stroke-width:2.0;stroke:black;"/>
        <path d="M 393.7 -1228.6 L 393.666667 -1247.600000" style="fill:none;stroke-width:2.0;stroke:black;"/>
        <path d="M 19.0 -1228.6 L 19.000000 -1247.600000" style="fill:none;stroke-width:2.0;stroke:black;"/>
        <path d="M 393.7 -1228.6 L 19.000000 -1228.600000" style="fill:none;stroke-width:2.0;stroke:black;"/>
        <path d="M 393.7 -1247.6 L 19.000000 -1247.600000" style="fill:none;stroke-width:2.0;stroke:black;"/>
        <path d="M 787.3 -1604.8 L 787.333333 -1623.800000" style="fill:none;stroke-width:2.0;stroke:black;"/>
        <path d="M 412.7 -1604.8 L 412.666667 -1623.800000" style="fill:none;stroke-width:2.0;stroke:black;"/>
        <path d="M 787.3 -1604.8 L 412.666667 -1604.800000" style="fill:none;stroke-width:2.0;stroke:black;"/>
        <path d="M 787.3 -1623.8 L 412.666667 -1623.800000" style="fill:none;stroke-width:2.0;stroke:black;"/>
        <path d="M 393.7 -100.0 L 393.666667 -119.000000" style="fill:none;stroke-width:2.0;stroke:black;"/>
        <path d="M 19.0 -100.0 L 393.666667 -100.000000" style="fill:none;stroke-width:2.0;stroke:black;"/>
        <path d="M 19.0 -119.0 L 393.666667 -119.000000" style="fill:none;stroke-width:2.0;stroke:black;"/>
        <path d="M 19.0 -2000.0 L 0.000000 -2000.000000" style="fill:none;stroke-width:2.0;stroke:black;"/>
        <path d="M 19.0 -0.0 L 0.000000 -0.000000" style="fill:none;stroke-width:2.0;stroke:black;"/>
        <path d="M 19.0 -2000.0 L 19.000000 -0.000000" style="fill:none;stroke-width:2.0;stroke:black;"/>
        <path d="M 0.0 -2000.0 L 0.000000 -0.000000" style="fill:none;stroke-width:2.0;stroke:black;"/>
        <path d="M 787.3 -852.4 L 787.333333 -871.400000" style="fill:none;stroke-width:2.0;stroke:black;"/>
        <path d="M 412.7 -852.4 L 412.666667 -871.400000" style="fill:none;stroke-width:2.0;stroke:black;"/>
        <path d="M 787.3 -852.4 L 412.666667 -852.400000" style="fill:none;stroke-width:2.0;stroke:black;"/>
        <path d="M 787.3 -871.4 L 412.666667 -871.400000" style="fill:none;stroke-width:2.0;stroke:black;"/>
        <path d="M 806.3 -0.0 L 787.333333 -0.000000" style="fill:none;stroke-width:2.0;stroke:black;"/>
        <path d="M 806.3 -2000.0 L 787.333333 -2000.000000" style="fill:none;stroke-width:2.0;stroke:black;"/>
        <path d="M 806.3 -0.0 L 806.333333 -2000.000000" style="fill:none;stroke-width:2.0;stroke:black;"/>
        <path d="M 787.3 -0.0 L 787.333333 -2000.000000" style="fill:none;stroke-width:2.0;stroke:black;"/>
        <path d="M 1200.0 -2000.0 L 1181.000000 -2000.000000" style="fill:none;stroke-width:2.0;stroke:black;"/>
        <path d="M 1200.0 -0.0 L 1181.000000 -0.000000" style="fill:none;stroke-width:2.0;stroke:black;"/>
        <path d="M 1200.0 -0.0 L 1200.000000 -2000.000000" style="fill:none;stroke-width:2.0;stroke:black;"/>
        <path d="M 1181.0 -0.0 L 1181.000000 -2000.000000" style="fill:none;stroke-width:2.0;stroke:black;"/>
        <path d="M 1181.0 -1604.8 L 1181.000000 -1623.800000" style="fill:none;stroke-width:2.0;stroke:black;"/>
        <path d="M 1181.0 -1604.8 L 806.333333 -1604.800000" style="fill:none;stroke-width:2.0;stroke:black;"/>
        <path d="M 1181.0 -1623.8 L 806.333333 -1623.800000" style="fill:none;stroke-width:2.0;stroke:black;"/>
        <path d="M 787.3 -100.0 L 787.333333 -119.000000" style="fill:none;stroke-width:2.0;stroke:black;"/>
        <path d="M 412.7 -100.0 L 787.333333 -100.000000" style="fill:none;stroke-width:2.0;stroke:black;"/>
        <path d="M 412.7 -119.0 L 787.333333 -119.000000" style="fill:none;stroke-width:2.0;stroke:black;"/>
    </g>
</svg>
