<?xml version="1.0" encoding="UTF-8"?>
<svg viewBox="0.0 -2000.0  2940.0 2100.0" preserveAspectRatio="xMinYMin meet" xmlns="http://www.w3.org/2000/svg" version="1.1">
    <desc>Powered by Aleker CAD Engine</desc>
    <g id="cad" bboxX="2800" bboxY="2000">
        <path d="M 2781.0 -852.4 L 2781.000000 -871.400000" style="fill:none;stroke-width:2.0;stroke:black;"/>
        <path d="M 2781.0 -852.4 L 2402.714286 -852.400000" style="fill:none;stroke-width:2.0;stroke:black;"/>
        <path d="M 2781.0 -871.4 L 2402.714286 -871.400000" style="fill:none;stroke-width:2.0;stroke:black;"/>
        <path d="M 1589.1 -100.0 L 1589.142857 -119.000000" style="fill:none;stroke-width:2.0;stroke:black;"/>
        <path d="M 1589.1 -100.0 L 1210.857143 -100.000000" style="fill:none;stroke-width:2.0;stroke:black;"/>
        <path d="M 1589.1 -119.0 L 1210.857143 -119.000000" style="fill:none;stroke-width:2.0;stroke:black;"/>
        <path d="M 1210.9 -2000.0 L 1191.857143 -2000.000000" style="fill:none;stroke-width:2.0;stroke:black;"/>
        <path d="M 1210.9 -0.0 L 1191.857143 -0.000000" style="fill:none;stroke-width:2.0;stroke:black;"/>
        <path d="M 1210.9 -0.0 L 1210.857143 -2000.000000" style="fill:none;stroke-width:2.0;stroke:black;"/>
        <path d="M 1191.9 -0.0 L 1191.857143 -2000.000000" style="fill:none;stroke-width:2.0;stroke:black;"/>
        <path d="M 2005.4 -0.0 L 1986.428571 -0.000000" style="fill:none;stroke-width:2.0;stroke:black;"/>
        <path d="M 2005.4 -2000.0 L 1986.428571 -2000.000000" style="fill:none;stroke-width:2.0;stroke:black;"/>
        <path d="M 2005.4 -0.0 L 2005.428571 -2000.000000" style="fill:none;stroke-width:2.0;stroke:black;"/>
        <path d="M 1986.4 -0.0 L 1986.428571 -2000.000000" style="fill:none;stroke-width:2.0;stroke:black;"/>
        <path d="M 2781.0 -1604.8 L 2781.000000 -1623.800000" style="fill:none;stroke-width:2.0;stroke:black;"/>
        <path d="M 2781.0 -1604.8 L 2402.714286 -1604.800000" style="fill:none;stroke-width:2.0;stroke:black;"/>
        <path d="M 2781.0 -1623.8 L 2402.714286 -1623.800000" style="fill:none;stroke-width:2.0;stroke:black;"/>
        <path d="M 1191.9 -476.2 L 1191.857143 -495.200000" style="fill:none;stroke-width:2.0;stroke:black;"/>
        <path d="M 1191.9 -476.2 L 813.571429 -476.200000" style="fill:none;stroke-width:2.0;stroke:black;"/>
        <path d="M 1191.9 -495.2 L 813.571429 -495.200000" style="fill:none;stroke-width:2.0;stroke:black;"/>
        <path d="M 1589.1 -1228.6 L 1589.142857 -1247.600000" style="fill:none;stroke-width:2.0;stroke:black;"/>
        <path d="M 1589.1 -1228.6 L 1210.857143 -1228.600000" style="fill:none;stroke-width:2.0;stroke:black;"/>
        <path d="M 1589.1 -1247.6 L 1210.857143 -1247.600000" style="fill:none;stroke-width:2.0;stroke:black;"/>
        <path d="M 2781.0 -100.0 L 2781.000000 -119.000000" style="fill:none;stroke-width:2.0;stroke:black;"/>
        <path d="M 2781.0 -100.0 L 2402.714286 -100.000000" style="fill:none;stroke-width:2.0;stroke:black;"/>
        <path d="M 2781.0 -119.0 L 2402.714286 -119.000000" style="fill:none;stroke-width:2.0;stroke:black;"/>
        <path d="M 1191.9 -852.4 L 1191.857143 -871.400000" style="fill:none;stroke-width:2.0;stroke:black;"/>
        <path d="M 1191.9 -852.4 L 813.571429 -852.400000" style="fill:none;stroke-width:2.0;stroke:black;"/>
        <path d="M 1191.9 -871.4 L 813.571429 -871.400000" style="fill:none;stroke-width:2.0;stroke:black;"/>
        <path d="M 416.3 -0.0 L 794.571429 -0.000000" style="fill:none;stroke-width:2.0;stroke:black;"/>
        <path d="M 2383.7 -1228.6 L 2383.714286 -1247.600000" style="fill:none;stroke-width:2.0;stroke:black;"/>
        <path d="M 2383.7 -1228.6 L 2005.428571 -1228.600000" style="fill:none;stroke-width:2.0;stroke:black;"/>
        <path d="M 2383.7 -1247.6 L 2005.428571 -1247.600000" style="fill:none;stroke-width:2.0;stroke:black;"/>
        <path d="M 794.6 -1604.8 L 794.571429 -1623.800000" style="fill:none;stroke-width:2.0;stroke:black;"/>
        <path d="M 794.6 -1604.8 L 416.285714 -1604.800000" style="fill:none;stroke-width:2.0;stroke:black;"/>
        <path d="M 794.6 -1623.8 L 416.285714 -1623.800000" style="fill:none;stroke-width:2.0;stroke:black;"/>
        <path d="M 397.3 -1604.8 L 397.285714 -1623.800000" style="fill:none;stroke-width:2.0;stroke:black;"/>
        <path d="M 397.3 -1604.8 L 19.000000 -1604.800000" style="fill:none;stroke-width:2.0;stroke:black;"/>
        <path d="M 397.3 -1623.8 L 19.000000 -1623.800000" style="fill:none;stroke-width:2.0;stroke:black;"/>
        <path d="M 397.3 -1228.6 L 397.285714 -1247.600000" style="fill:none;stroke-width:2.0;stroke:black;"/>
        <path d="M 397.3 -1228.6 L 19.000000 -1228.600000" style="fill:none;stroke-width:2.0;stroke:black;"/>
        <path d="M 397.3 -1247.6 L 19.000000 -1247.600000" style="fill:none;stroke-width:2.0;stroke:black;"/>
        <path d="M 2781.0 -476.2 L 2781.000000 -495.200000" style="fill:none;stroke-width:2.0;stroke:black;"/>
        <path d="M 2781.0 -476.2 L 2402.714286 -476.200000" style="fill:none;stroke-width:2.0;stroke:black;"/>
        <path d="M 2781.0 -495.2 L 2402.714286 -495.200000" style="fill:none;stroke-width:2.0;stroke:black;"/>
        <path d="M 397.3 -476.2 L 397.285714 -495.200000" style="fill:none;stroke-width:2.0;stroke:black;"/>
        <path d="M 397.3 -476.2 L 19.000000 -476.200000" style="fill:none;stroke-width:2.0;stroke:black;"/>
        <path d="M 397.3 -495.2 L 19.000000 -495.200000" style="fill:none;stroke-width:2.0;stroke:black;"/>
        <path d="M 1986.4 -1604.8 L 1986.428571 -1623.800000" style="fill:none;stroke-width:2.0;stroke:black;"/>
        <path d="M 1986.4 -1604.8 L 1608.142857 -1604.800000" style="fill:none;stroke-width:2.0;stroke:black;"/>
        <path d="M 1986.4 -1623.8 L 1608.142857 -1623.800000" style="fill:none;stroke-width:2.0;stroke:black;"/>
        <path d="M 794.6 -476.2 L 794.571429 -495.200000" style="fill:none;stroke-width:2.0;stroke:black;"/>
        <path d="M 794.6 -476.2 L 416.285714 -476.200000" style="fill:none;stroke-width:2.0;stroke:black;"/>
        <path d="M 794.6 -495.2 L 416.285714 -495.200000" style="fill:none;stroke-width:2.0;stroke:black;"/>
        <path d="M 1986.4 -476.2 L 1986.428571 -495.200000" style="fill:none;stroke-width:2.0;stroke:black;"/>
        <path d="M 1986.4 -476.2 L 1608.142857 -476.200000" style="fill:none;stroke-width:2.0;stroke:black;"/>
        <path d="M 1986.4 -495.2 L 1608.142857 -495.200000" style="fill:none;stroke-width:2.0;stroke:black;"/>
        <path d="M 1986.4 -100.0 L 1986.428571 -119.000000" style="fill:none;stroke-width:2.0;stroke:black;"/>
        <path d="M 1986.4 -100.0 L 1608.142857 -100.000000" style="fill:none;stroke-width:2.0;stroke:black;"/>
        <path d="M 1986.4 -119.0 L 1608.142857 -119.000000" style="fill:none;stroke-width:2.0;stroke:black;"/>
        <path d="M 2383.7 -1981.0 L 2005.428571 -1981.000000" style="fill:none;stroke-width:2.0;stroke:black;"/>
        <path d="M 2383.7 -2000.0 L 2005.428571 -2000.000000" style="fill:none;stroke-width:2.0;stroke:black;"/>
        <path d="M 397.3 -1981.0 L 19.000000 -1981.000000" style="fill:none;stroke-width:2.0;stroke:black;"/>
        <path d="M 397.3 -2000.0 L 19.000000 -2000.000000" style="fill:none;stroke-width:2.0;stroke:black;"/>
        <path d="M 1191.9 -1604.8 L 1191.857143 -1623.800000" style="fill:none;stroke-width:2.0;stroke:black;"/>
        <path d="M 1191.9 -1604.8 L 813.571429 -1604.800000" style="fill:none;stroke-width:2.0;stroke:black;"/>
        <path d="M 1191.9 -1623.8 L 813.571429 -1623.800000" style="fill:none;stroke-width:2.0;stroke:black;"/>
        <path d="M 2402.7 -2000.0 L 2383.714286 -2000.000000" style="fill:none;stroke-width:2.0;stroke:black;"/>
        <path d="M 2402.7 -0.0 L 2383.714286 -0.000000" style="fill:none;stroke-width:2.0;stroke:black;"/>
        <path d="M 2402.7 -0.0 L 2402.714286 -2000.000000" style="fill:none;stroke-width:2.0;stroke:black;"/>
        <path d="M 2383.7 -0.0 L 2383.714286 -2000.000000" style="fill:none;stroke-width:2.0;stroke:black;"/>
        <path d="M 1608.1 -2000.0 L 1589.142857 -2000.000000" style="fill:none;stroke-width:2.0;stroke:black;"/>
        <path d="M 1608.1 -0.0 L 1589.142857 -0.000000" style="fill:none;stroke-width:2.0;stroke:black;"/>
        <path d="M 1608.1 -0.0 L 1608.142857 -2000.000000" style="fill:none;stroke-width:2.0;stroke:black;"/>
        <path d="M 1589.1 -0.0 L 1589.142857 -2000.000000" style="fill:none;stroke-width:2.0;stroke:black;"/>
        <path d="M 813.6 -0.0 L 1191.857143 -0.000000" style="fill:none;stroke-width:2.0;stroke:black;"/>
        <path d="M 397.3 -100.0 L 397.285714 -119.000000" style="fill:none;stroke-width:2.0;stroke:black;"/>
        <path d="M 397.3 -100.0 L 19.000000 -100.000000" style="fill:none;stroke-width:2.0;stroke:black;"/>
        <path d="M 397.3 -119.0 L 19.000000 -119.000000" style="fill:none;stroke-width:2.0;stroke:black;"/>
        <path d="M 2383.7 -100.0 L 2383.714286 -119.000000" style="fill:none;stroke-width:2.0;stroke:black;"/>
        <path d="M 2383.7 -100.0 L 2005.428571 -100.000000" style="fill:none;stroke-width:2.0;stroke:black;"/>
        <path d="M 2383.7 -119.0 L 2005.428571 -119.000000" style="fill:none;stroke-width:2.0;stroke:black;"/>
        <path d="M 1210.9 -0.0 L 1589.142857 -0.000000" style="fill:none;stroke-width:2.0;stroke:black;"/>
        <path d="M 2383.7 -852.4 L 2383.714286 -871.400000" style="fill:none;stroke-width:2.0;stroke:black;"/>
        <path d="M 2383.7 -852.4 L 2005.428571 -852.400000" style="fill:none;stroke-width:2.0;stroke:black;"/>
        <path d="M 2383.7 -871.4 L 2005.428571 -871.400000" style="fill:none;stroke-width:2.0;stroke:black;"/>
        <path d="M 416.3 -2000.0 L 397.285714 -2000.000000" style="fill:none;stroke-width:2.0;stroke:black;"/>
        <path d="M 416.3 -0.0 L 397.285714 -0.000000" style="fill:none;stroke-width:2.0;stroke:black;"/>
        <path d="M 416.3 -0.0 L 416.285714 -2000.000000" style="fill:none;stroke-width:2.0;stroke:black;"/>
        <path d="M 397.3 -0.0 L 397.285714 -2000.000000" style="fill:none;stroke-width:2.0;stroke:black;"/>
        <path d="M 813.6 -2000.0 L 794.571429 -2000.000000" style="fill:none;stroke-width:2.0;stroke:black;"/>
        <path d="M 813.6 -0.0 L 794.571429 -0.000000" style="fill:none;stroke-width:2.0;stroke:black;"/>
        <path d="M 813.6 -0.0 L 813.571429 -2000.000000" style="fill:none;stroke-width:2.0;stroke:black;"/>
        <path d="M 794.6 -0.0 L 794.571429 -2000.000000" style="fill:none;stroke-width:2.0;stroke:black;"/>
        <path d="M 794.6 -1228.6 L 794.571429 -1247.600000" style="fill:none;stroke-width:2.0;stroke:black;"/>
        <path d="M 794.6 -1228.6 L 416.285714 -1228.600000" style="fill:none;stroke-width:2.0;stroke:black;"/>
        <path d="M 794.6 -1247.6 L 416.285714 -1247.600000" style="fill:none;stroke-width:2.0;stroke:black;"/>
        <path d="M 397.3 -852.4 L 397.285714 -871.400000" style="fill:none;stroke-width:2.0;stroke:black;"/>
        <path d="M 397.3 -852.4 L 19.000000 -852.400000" style="fill:none;stroke-width:2.0;stroke:black;"/>
        <path d="M 397.3 -871.4 L 19.000000 -871.400000" style="fill:none;stroke-width:2.0;stroke:black;"/>
        <path d="M 19.0 -2000.0 L 0.000000 -2000.000000" style="fill:none;stroke-width:2.0;stroke:black;"/>
        <path d="M 19.0 -0.0 L 0.000000 -0.000000" style="fill:none;stroke-width:2.0;stroke:black;"/>
        <path d="M 19.0 -2000.0 L 19.000000 -0.000000" style="fill:none;stroke-width:2.0;stroke:black;"/>
        <path d="M 0.0 -2000.0 L 0.000000 -0.000000" style="fill:none;stroke-width:2.0;stroke:black;"/>
        <path d="M 2383.7 -1604.8 L 2383.714286 -1623.800000" style="fill:none;stroke-width:2.0;stroke:black;"/>
        <path d="M 2383.7 -1604.8 L 2005.428571 -1604.800000" style="fill:none;stroke-width:2.0;stroke:black;"/>
        <path d="M 2383.7 -1623.8 L 2005.428571 -1623.800000" style="fill:none;stroke-width:2.0;stroke:black;"/>
        <path d="M 1210.9 -2000.0 L 1191.857143 -2000.000000" style="fill:none;stroke-width:2.0;stroke:black;"/>
        <path d="M 1210.9 -0.0 L 1191.857143 -0.000000" style="fill:none;stroke-width:2.0;stroke:black;"/>
        <path d="M 1210.9 -0.0 L 1210.857143 -2000.000000" style="fill:none;stroke-width:2.0;stroke:black;"/>
        <path d="M 1191.9 -0.0 L 1191.857143 -2000.000000" style="fill:none;stroke-width:2.0;stroke:black;"/>
        <path d="M 1608.1 -0.0 L 1986.428571 -0.000000" style="fill:none;stroke-width:2.0;stroke:black;"/>
        <path d="M 1589.1 -1604.8 L 1589.142857 -1623.800000" style="fill:none;stroke-width:2.0;stroke:black;"/>
        <path d="M 1589.1 -1604.8 L 1210.857143 -1604.800000" style="fill:none;stroke-width:2.0;stroke:black;"/>
        <path d="M 1589.1 -1623.8 L 1210.857143 -1623.800000" style="fill:none;stroke-width:2.0;stroke:black;"/>
        <path d="M 794.6 -852.4 L 794.571429 -871.400000" style="fill:none;stroke-width:2.0;stroke:black;"/>
        <path d="M 794.6 -852.4 L 416.285714 -852.400000" style="fill:none;stroke-width:2.0;stroke:black;"/>
        <path d="M 794.6 -871.4 L 416.285714 -871.400000" style="fill:none;stroke-width:2.0;stroke:black;"/>
        <path d="M 2005.4 -0.0 L 2383.714286 -0.000000" style="fill:none;stroke-width:2.0;stroke:black;"/>
        <path d="M 19.0 -0.0 L 397.285714 -0.000000" style="fill:none;stroke-width:2.0;stroke:black;"/>
        <path d="M 1191.9 -1981.0 L 813.571429 -1981.000000" style="fill:none;stroke-width:2.0;stroke:black;"/>
        <path d="M 1191.9 -2000.0 L 813.571429 -2000.000000" style="fill:none;stroke-width:2.0;stroke:black;"/>
        <path d="M 1589.1 -476.2 L 1589.142857 -495.200000" style="fill:none;stroke-width:2.0;stroke:black;"/>
        <path d="M 1589.1 -476.2 L 1210.857143 -476.200000" style="fill:none;stroke-width:2.0;stroke:black;"/>
        <path d="M 1589.1 -495.2 L 1210.857143 -495.200000" style="fill:none;stroke-width:2.0;stroke:black;"/>
        <path d="M 794.6 -1981.0 L 416.285714 -1981.000000" style="fill:none;stroke-width:2.0;stroke:black;"/>
        <path d="M 794.6 -2000.0 L 416.285714 -2000.000000" style="fill:none;stroke-width:2.0;stroke:black;"/>
        <path d="M 813.6 -2000.0 L 794.571429 -2000.000000" style="fill:none;stroke-width:2.0;stroke:black;"/>
        <path d="M 813.6 -0.0 L 794.571429 -0.000000" style="fill:none;stroke-width:2.0;stroke:black;"/>
        <path d="M 813.6 -0.0 L 813.571429 -2000.000000" style="fill:none;stroke-width:2.0;stroke:black;"/>
        <path d="M 794.6 -0.0 L 794.571429 -2000.000000" style="fill:none;stroke-width:2.0;stroke:black;"/>
        <path d="M 416.3 -2000.0 L 397.285714 -2000.000000" style="fill:none;stroke-width:2.0;stroke:black;"/>
        <path d="M 416.3 -0.0 L 397.285714 -0.000000" style="fill:none;stroke-width:2.0;stroke:black;"/>
        <path d="M 416.3 -0.0 L 416.285714 -2000.000000" style="fill:none;stroke-width:2.0;stroke:black;"/>
        <path d="M 397.3 -0.0 L 397.285714 -2000.000000" style="fill:none;stroke-width:2.0;stroke:black;"/>
        <path d="M 1589.1 -852.4 L 1589.142857 -871.400000" style="fill:none;stroke-width:2.0;stroke:black;"/>
        <path d="M 1589.1 -852.4 L 1210.857143 -852.400000" style="fill:none;stroke-width:2.0;stroke:black;"/>
        <path d="M 1589.1 -871.4 L 1210.857143 -871.400000" style="fill:none;stroke-width:2.0;stroke:black;"/>
        <path d="M 2402.7 -0.0 L 2781.000000 -0.000000" style="fill:none;stroke-width:2.0;stroke:black;"/>
        <path d="M 1986.4 -1981.0 L 1608.142857 -1981.000000" style="fill:none;stroke-width:2.0;stroke:black;"/>
        <path d="M 1986.4 -2000.0 L 1608.142857 -2000.000000" style="fill:none;stroke-width:2.0;stroke:black;"/>
        <path d="M 1191.9 -1228.6 L 1191.857143 -1247.600000" style="fill:none;stroke-width:2.0;stroke:black;"/>
        <path d="M 1191.9 -1228.6 L 813.571429 -1228.600000" style="fill:none;stroke-width:2.0;stroke:black;"/>
        <path d="M 1191.9 -1247.6 L 813.571429 -1247.600000" style="fill:none;stroke-width:2.0;stroke:black;"/>
        <path d="M 2800.0 -2000.0 L 2781.000000 -2000.000000" style="fill:none;stroke-width:2.0;stroke:black;"/>
        <path d="M 2800.0 -0.0 L 2781.000000 -0.000000" style="fill:none;stroke-width:2.0;stroke:black;"/>
        <path d="M 2800.0 -0.0 L 2800.000000 -2000.000000" style="fill:none;stroke-width:2.0;stroke:black;"/>
        <path d="M 2781.0 -0.0 L 2781.000000 -2000.000000" style="fill:none;stroke-width:2.0;stroke:black;"/>
        <path d="M 1608.1 -2000.0 L 1589.142857 -2000.000000" style="fill:none;stroke-width:2.0;stroke:black;"/>
        <path d="M 1608.1 -0.0 L 1589.142857 -0.000000" style="fill:none;stroke-width:2.0;stroke:black;"/>
        <path d="M 1608.1 -0.0 L 1608.142857 -2000.000000" style="fill:none;stroke-width:2.0;stroke:black;"/>
        <path d="M 1589.1 -0.0 L 1589.142857 -2000.000000" style="fill:none;stroke-width:2.0;stroke:black;"/>
        <path d="M 1986.4 -1228.6 L 1986.428571 -1247.600000" style="fill:none;stroke-width:2.0;stroke:black;"/>
        <path d="M 1986.4 -1228.6 L 1608.142857 -1228.600000" style="fill:none;stroke-width:2.0;stroke:black;"/>
        <path d="M 1986.4 -1247.6 L 1608.142857 -1247.600000" style="fill:none;stroke-width:2.0;stroke:black;"/>
        <path d="M 2781.0 -1228.6 L 2781.000000 -1247.600000" style="fill:none;stroke-width:2.0;stroke:black;"/>
        <path d="M 2781.0 -1228.6 L 2402.714286 -1228.600000" style="fill:none;stroke-width:2.0;stroke:black;"/>
        <path d="M 2781.0 -1247.6 L 2402.714286 -1247.600000" style="fill:none;stroke-width:2.0;stroke:black;"/>
        <path d="M 1986.4 -852.4 L 1986.428571 -871.400000" style="fill:none;stroke-width:2.0;stroke:black;"/>
        <path d="M 1986.4 -852.4 L 1608.142857 -852.400000" style="fill:none;stroke-width:2.0;stroke:black;"/>
        <path d="M 1986.4 -871.4 L 1608.142857 -871.400000" style="fill:none;stroke-width:2.0;stroke:black;"/>
        <path d="M 794.6 -100.0 L 794.571429 -119.000000" style="fill:none;stroke-width:2.0;stroke:black;"/>
        <path d="M 794.6 -100.0 L 416.285714 -100.000000" style="fill:none;stroke-width:2.0;stroke:black;"/>
        <path d="M 794.6 -119.0 L 416.285714 -119.000000" style="fill:none;stroke-width:2.0;stroke:black;"/>
        <path d="M 1589.1 -1981.0 L 1210.857143 -1981.000000" style="fill:none;stroke-width:2.0;stroke:black;"/>
        <path d="M 1589.1 -2000.0 L 1210.857143 -2000.000000" style="fill:none;stroke-width:2.0;stroke:black;"/>
        <path d="M 1191.9 -100.0 L 1191.857143 -119.000000" style="fill:none;stroke-width:2.0;stroke:black;"/>
        <path d="M 1191.9 -100.0 L 813.571429 -100.000000" style="fill:none;stroke-width:2.0;stroke:black;"/>
        <path d="M 1191.9 -119.0 L 813.571429 -119.000000" style="fill:none;stroke-width:2.0;stroke:black;"/>
        <path d="M 2383.7 -476.2 L 2383.714286 -495.200000" style="fill:none;stroke-width:2.0;stroke:black;"/>
        <path d="M 2383.7 -476.2 L 2005.428571 -476.200000" style="fill:none;stroke-width:2.0;stroke:black;"/>
        <path d="M 2383.7 -495.2 L 2005.428571 -495.200000" style="fill:none;stroke-width:2.0;stroke:black;"/>
        <path d="M 2781.0 -1981.0 L 2402.714286 -1981.000000" style="fill:none;stroke-width:2.0;stroke:black;"/>
        <path d="M 2781.0 -2000.0 L 2402.714286 -2000.000000" style="fill:none;stroke-width:2.0;stroke:black;"/>
    </g>
</svg>
