<?xml version="1.0" encoding="UTF-8"?>
<svg viewBox="0.0 -2000.0  2520.0 2100.0" preserveAspectRatio="xMinYMin meet" xmlns="http://www.w3.org/2000/svg" version="1.1">
    <desc>Powered by Aleker CAD Engine</desc>
    <g id="cad" bboxX="2400" bboxY="2000">
        <path d="M 793.7 -1981.0 L 415.833333 -1981.000000" style="fill:none;stroke-width:2.0;stroke:black;"/>
        <path d="M 793.7 -2000.0 L 415.833333 -2000.000000" style="fill:none;stroke-width:2.0;stroke:black;"/>
        <path d="M 812.7 -2000.0 L 793.666667 -2000.000000" style="fill:none;stroke-width:2.0;stroke:black;"/>
        <path d="M 812.7 -0.0 L 793.666667 -0.000000" style="fill:none;stroke-width:2.0;stroke:black;"/>
        <path d="M 812.7 -0.0 L 812.666667 -2000.000000" style="fill:none;stroke-width:2.0;stroke:black;"/>
        <path d="M 793.7 -0.0 L 793.666667 -2000.000000" style="fill:none;stroke-width:2.0;stroke:black;"/>
        <path d="M 1606.3 -0.0 L 1587.333333 -0.000000" style="fill:none;stroke-width:2.0;stroke:black;"/>
        <path d="M 1606.3 -2000.0 L 1587.333333 -2000.000000" style="fill:none;stroke-width:2.0;stroke:black;"/>
        <path d="M 1606.3 -0.0 L 1606.333333 -2000.000000" style="fill:none;stroke-width:2.0;stroke:black;"/>
        <path d="M 1587.3 -0.0 L 1587.333333 -2000.000000" style="fill:none;stroke-width:2.0;stroke:black;"/>
        <path d="M 2381.0 -476.2 L 2381.000000 -495.200000" style="fill:none;stroke-width:2.0;stroke:black;"/>
        <path d="M 2381.0 -476.2 L 2003.166667 -476.200000" style="fill:none;stroke-width:2.0;stroke:black;"/>
        <path d="M 2381.0 -495.2 L 2003.166667 -495.200000" style="fill:none;stroke-width:2.0;stroke:black;"/>
        <path d="M 793.7 -852.4 L 793.666667 -871.400000" style="fill:none;stroke-width:2.0;stroke:black;"/>
        <path d="M 793.7 -852.4 L 415.833333 -852.400000" style="fill:none;stroke-width:2.0;stroke:black;"/>
        <path d="M 793.7 -871.4 L 415.833333 -871.400000" style="fill:none;stroke-width:2.0;stroke:black;"/>
        <path d="M 396.8 -852.4 L 396.833333 -871.400000" style="fill:none;stroke-width:2.0;stroke:black;"/>
        <path d="M 396.8 -852.4 L 19.000000 -852.400000" style="fill:none;stroke-width:2.0;stroke:black;"/>
        <path d="M 396.8 -871.4 L 19.000000 -871.400000" style="fill:none;stroke-width:2.0;stroke:black;"/>
        <path d="M 793.7 -1228.6 L 793.666667 -1247.600000" style="fill:none;stroke-width:2.0;stroke:black;"/>
        <path d="M 793.7 -1228.6 L 415.833333 -1228.600000" style="fill:none;stroke-width:2.0;stroke:black;"/>
        <path d="M 793.7 -1247.6 L 415.833333 -1247.600000" style="fill:none;stroke-width:2.0;stroke:black;"/>
        <path d="M 1984.2 -852.4 L 1984.166667 -871.400000" style="fill:none;stroke-width:2.0;stroke:black;"/>
        <path d="M 1984.2 -852.4 L 1606.333333 -852.400000" style="fill:none;stroke-width:2.0;stroke:black;"/>
        <path d="M 1984.2 -871.4 L 1606.333333 -871.400000" style="fill:none;stroke-width:2.0;stroke:black;"/>
        <path d="M 1984.2 -1228.6 L 1984.166667 -1247.600000" style="fill:none;stroke-width:2.0;stroke:black;"/>
        <path d="M 1984.2 -1228.6 L 1606.333333 -1228.600000" style="fill:none;stroke-width:2.0;stroke:black;"/>
        <path d="M 1984.2 -1247.6 L 1606.333333 -1247.600000" style="fill:none;stroke-width:2.0;stroke:black;"/>
        <path d="M 1190.5 -1981.0 L 812.666667 -1981.000000" style="fill:none;stroke-width:2.0;stroke:black;"/>
        <path d="M 1190.5 -2000.0 L 812.666667 -2000.000000" style="fill:none;stroke-width:2.0;stroke:black;"/>
        <path d="M 793.7 -1604.8 L 793.666667 -1623.800000" style="fill:none;stroke-width:2.0;stroke:black;"/>
        <path d="M 793.7 -1604.8 L 415.833333 -1604.800000" style="fill:none;stroke-width:2.0;stroke:black;"/>
        <path d="M 793.7 -1623.8 L 415.833333 -1623.800000" style="fill:none;stroke-width:2.0;stroke:black;"/>
        <path d="M 1606.3 -0.0 L 1984.166667 -0.000000" style="fill:none;stroke-width:2.0;stroke:black;"/>
        <path d="M 1587.3 -852.4 L 1587.333333 -871.400000" style="fill:none;stroke-width:2.0;stroke:black;"/>
        <path d="M 1587.3 -852.4 L 1209.500000 -852.400000" style="fill:none;stroke-width:2.0;stroke:black;"/>
        <path d="M 1587.3 -871.4 L 1209.500000 -871.400000" style="fill:none;stroke-width:2.0;stroke:black;"/>
        <path d="M 415.8 -2000.0 L 396.833333 -2000.000000" style="fill:none;stroke-width:2.0;stroke:black;"/>
        <path d="M 415.8 -0.0 L 396.833333 -0.000000" style="fill:none;stroke-width:2.0;stroke:black;"/>
        <path d="M 415.8 -0.0 L 415.833333 -2000.000000" style="fill:none;stroke-width:2.0;stroke:black;"/>
        <path d="M 396.8 -0.0 L 396.833333 -2000.000000" style="fill:none;stroke-width:2.0;stroke:black;"/>
        <path d="M 2381.0 -1228.6 L 2381.000000 -1247.600000" style="fill:none;stroke-width:2.0;stroke:black;"/>
        <path d="M 2381.0 -1228.6 L 2003.166667 -1228.600000" style="fill:none;stroke-width:2.0;stroke:black;"/>
        <path d="M 2381.0 -1247.6 L 2003.166667 -1247.600000" style="fill:none;stroke-width:2.0;stroke:black;"/>
        <path d="M 2003.2 -0.0 L 2381.000000 -0.000000" style="fill:none;stroke-width:2.0;stroke:black;"/>
        <path d="M 415.8 -2000.0 L 396.833333 -2000.000000" style="fill:none;stroke-width:2.0;stroke:black;"/>
        <path d="M 415.8 -0.0 L 396.833333 -0.000000" style="fill:none;stroke-width:2.0;stroke:black;"/>
        <path d="M 415.8 -0.0 L 415.833333 -2000.000000" style="fill:none;stroke-width:2.0;stroke:black;"/>
        <path d="M 396.8 -0.0 L 396.833333 -2000.000000" style="fill:none;stroke-width:2.0;stroke:black;"/>
        <path d="M 2381.0 -100.0 L 2381.000000 -119.000000" style="fill:none;stroke-width:2.0;stroke:black;"/>
        <path d="M 2381.0 -100.0 L 2003.166667 -100.000000" style="fill:none;stroke-width:2.0;stroke:black;"/>
        <path d="M 2381.0 -119.0 L 2003.166667 -119.000000" style="fill:none;stroke-width:2.0;stroke:black;"/>
        <path d="M 1209.5 -0.0 L 1587.333333 -0.000000" style="fill:none;stroke-width:2.0;stroke:black;"/>
        <path d="M 1190.5 -1604.8 L 1190.500000 -1623.800000" style="fill:none;stroke-width:2.0;stroke:black;"/>
        <path d="M 1190.5 -1604.8 L 812.666667 -1604.800000" style="fill:none;stroke-width:2.0;stroke:black;"/>
        <path d="M 1190.5 -1623.8 L 812.666667 -1623.800000" style="fill:none;stroke-width:2.0;stroke:black;"/>
        <path d="M 2381.0 -1981.0 L 2003.166667 -1981.000000" style="fill:none;stroke-width:2.0;stroke:black;"/>
        <path d="M 2381.0 -2000.0 L 2003.166667 -2000.000000" style="fill:none;stroke-width:2.0;stroke:black;"/>
        <path d="M 793.7 -100.0 L 793.666667 -119.000000" style="fill:none;stroke-width:2.0;stroke:black;"/>
        <path d="M 793.7 -100.0 L 415.833333 -100.000000" style="fill:none;stroke-width:2.0;stroke:black;"/>
        <path d="M 793.7 -119.0 L 415.833333 -119.000000" style="fill:none;stroke-width:2.0;stroke:black;"/>
        <path d="M 1587.3 -476.2 L 1587.333333 -495.200000" style="fill:none;stroke-width:2.0;stroke:black;"/>
        <path d="M 1587.3 -476.2 L 1209.500000 -476.200000" style="fill:none;stroke-width:2.0;stroke:black;"/>
        <path d="M 1587.3 -495.2 L 1209.500000 -495.200000" style="fill:none;stroke-width:2.0;stroke:black;"/>
        <path d="M 396.8 -1981.0 L 19.000000 -1981.000000" style="fill:none;stroke-width:2.0;stroke:black;"/>
        <path d="M 396.8 -2000.0 L 19.000000 -2000.000000" style="fill:none;stroke-width:2.0;stroke:black;"/>
        <path d="M 1587.3 -1228.6 L 1587.333333 -1247.600000" style="fill:none;stroke-width:2.0;stroke:black;"/>
        <path d="M 1587.3 -1228.6 L 1209.500000 -1228.600000" style="fill:none;stroke-width:2.0;stroke:black;"/>
        <path d="M 1587.3 -1247.6 L 1209.500000 -1247.600000" style="fill:none;stroke-width:2.0;stroke:black;"/>
        <path d="M 1984.2 -1981.0 L 1606.333333 -1981.000000" style="fill:none;stroke-width:2.0;stroke:black;"/>
        <path d="M 1984.2 -2000.0 L 1606.333333 -2000.000000" style="fill:none;stroke-width:2.0;stroke:black;"/>
        <path d="M 2003.2 -2000.0 L 1984.166667 -2000.000000" style="fill:none;stroke-width:2.0;stroke:black;"/>
        <path d="M 2003.2 -0.0 L 1984.166667 -0.000000" style="fill:none;stroke-width:2.0;stroke:black;"/>
        <path d="M 2003.2 -0.0 L 2003.166667 -2000.000000" style="fill:none;stroke-width:2.0;stroke:black;"/>
        <path d="M 1984.2 -0.0 L 1984.166667 -2000.000000" style="fill:none;stroke-width:2.0;stroke:black;"/>
        <path d="M 1209.5 -2000.0 L 1190.500000 -2000.000000" style="fill:none;stroke-width:2.0;stroke:black;"/>
        <path d="M 1209.5 -0.0 L 1190.500000 -0.000000" style="fill:none;stroke-width:2.0;stroke:black;"/>
        <path d="M 1209.5 -0.0 L 1209.500000 -2000.000000" style="fill:none;stroke-width:2.0;stroke:black;"/>
        <path d="M 1190.5 -0.0 L 1190.500000 -2000.000000" style="fill:none;stroke-width:2.0;stroke:black;"/>
        <path d="M 1190.5 -852.4 L 1190.500000 -871.400000" style="fill:none;stroke-width:2.0;stroke:black;"/>
        <path d="M 1190.5 -852.4 L 812.666667 -852.400000" style="fill:none;stroke-width:2.0;stroke:black;"/>
        <path d="M 1190.5 -871.4 L 812.666667 -871.400000" style="fill:none;stroke-width:2.0;stroke:black;"/>
        <path d="M 812.7 -0.0 L 1190.500000 -0.000000" style="fill:none;stroke-width:2.0;stroke:black;"/>
        <path d="M 396.8 -100.0 L 396.833333 -119.000000" style="fill:none;stroke-width:2.0;stroke:black;"/>
        <path d="M 396.8 -100.0 L 19.000000 -100.000000" style="fill:none;stroke-width:2.0;stroke:black;"/>
        <path d="M 396.8 -119.0 L 19.000000 -119.000000" style="fill:none;stroke-width:2.0;stroke:black;"/>
        <path d="M 19.0 -2000.0 L 0.000000 -2000.000000" style="fill:none;stroke-width:2.0;stroke:black;"/>
        <path d="M 19.0 -0.0 L 0.000000 -0.000000" style="fill:none;stroke-width:2.0;stroke:black;"/>
        <path d="M 19.0 -2000.0 L 19.000000 -0.000000" style="fill:none;stroke-width:2.0;stroke:black;"/>
        <path d="M 0.0 -2000.0 L 0.000000 -0.000000" style="fill:none;stroke-width:2.0;stroke:black;"/>
        <path d="M 2381.0 -852.4 L 2381.000000 -871.400000" style="fill:none;stroke-width:2.0;stroke:black;"/>
        <path d="M 2381.0 -852.4 L 2003.166667 -852.400000" style="fill:none;stroke-width:2.0;stroke:black;"/>
        <path d="M 2381.0 -871.4 L 2003.166667 -871.400000" style="fill:none;stroke-width:2.0;stroke:black;"/>
        <path d="M 793.7 -476.2 L 793.666667 -495.200000" style="fill:none;stroke-width:2.0;stroke:black;"/>
        <path d="M 793.7 -476.2 L 415.833333 -476.200000" style="fill:none;stroke-width:2.0;stroke:black;"/>
        <path d="M 793.7 -495.2 L 415.833333 -495.200000" style="fill:none;stroke-width:2.0;stroke:black;"/>
        <path d="M 1984.2 -100.0 L 1984.166667 -119.000000" style="fill:none;stroke-width:2.0;stroke:black;"/>
        <path d="M 1984.2 -100.0 L 1606.333333 -100.000000" style="fill:none;stroke-width:2.0;stroke:black;"/>
        <path d="M 1984.2 -119.0 L 1606.333333 -119.000000" style="fill:none;stroke-width:2.0;stroke:black;"/>
        <path d="M 1587.3 -1604.8 L 1587.333333 -1623.800000" style="fill:none;stroke-width:2.0;stroke:black;"/>
        <path d="M 1587.3 -1604.8 L 1209.500000 -1604.800000" style="fill:none;stroke-width:2.0;stroke:black;"/>
        <path d="M 1587.3 -1623.8 L 1209.500000 -1623.800000" style="fill:none;stroke-width:2.0;stroke:black;"/>
        <path d="M 396.8 -476.2 L 396.833333 -495.200000" style="fill:none;stroke-width:2.0;stroke:black;"/>
        <path d="M 396.8 -476.2 L 19.000000 -476.200000" style="fill:none;stroke-width:2.0;stroke:black;"/>
        <path d="M 396.8 -495.2 L 19.000000 -495.200000" style="fill:none;stroke-width:2.0;stroke:black;"/>
        <path d="M 1190.5 -476.2 L 1190.500000 -495.200000" style="fill:none;stroke-width:2.0;stroke:black;"/>
        <path d="M 1190.5 -476.2 L 812.666667 -476.200000" style="fill:none;stroke-width:2.0;stroke:black;"/>
        <path d="M 1190.5 -495.2 L 812.666667 -495.200000" style="fill:none;stroke-width:2.0;stroke:black;"/>
        <path d="M 2400.0 -2000.0 L 2381.000000 -2000.000000" style="fill:none;stroke-width:2.0;stroke:black;"/>
        <path d="M 2400.0 -0.0 L 2381.000000 -0.000000" style="fill:none;stroke-width:2.0;stroke:black;"/>
        <path d="M 2400.0 -0.0 L 2400.000000 -2000.000000" style="fill:none;stroke-width:2.0;stroke:black;"/>
        <path d="M 2381.0 -0.0 L 2381.000000 -2000.000000" style="fill:none;stroke-width:2.0;stroke:black;"/>
        <path d="M 1209.5 -2000.0 L 1190.500000 -2000.000000" style="fill:none;stroke-width:2.0;stroke:black;"/>
        <path d="M 1209.5 -0.0 L 1190.500000 -0.000000" style="fill:none;stroke-width:2.0;stroke:black;"/>
        <path d="M 1209.5 -0.0 L 1209.500000 -2000.000000" style="fill:none;stroke-width:2.0;stroke:black;"/>
        <path d="M 1190.5 -0.0 L 1190.500000 -2000.000000" style="fill:none;stroke-width:2.0;stroke:black;"/>
        <path d="M 415.8 -0.0 L 793.666667 -0.000000" style="fill:none;stroke-width:2.0;stroke:black;"/>
        <path d="M 1587.3 -1981.0 L 1209.500000 -1981.000000" style="fill:none;stroke-width:2.0;stroke:black;"/>
        <path d="M 1587.3 -2000.0 L 1209.500000 -2000.000000" style="fill:none;stroke-width:2.0;stroke:black;"/>
        <path d="M 2381.0 -1604.8 L 2381.000000 -1623.800000" style="fill:none;stroke-width:2.0;stroke:black;"/>
        <path d="M 2381.0 -1604.8 L 2003.166667 -1604.800000" style="fill:none;stroke-width:2.0;stroke:black;"/>
        <path d="M 2381.0 -1623.8 L 2003.166667 -1623.800000" style="fill:none;stroke-width:2.0;stroke:black;"/>
        <path d="M 396.8 -1604.8 L 396.833333 -1623.800000" style="fill:none;stroke-width:2.0;stroke:black;"/>
        <path d="M 396.8 -1604.8 L 19.000000 -1604.800000" style="fill:none;stroke-width:2.0;stroke:black;"/>
        <path d="M 396.8 -1623.8 L 19.000000 -1623.800000" style="fill:none;stroke-width:2.0;stroke:black;"/>
        <path d="M 396.8 -1228.6 L 396.833333 -1247.600000" style="fill:none;stroke-width:2.0;stroke:black;"/>
        <path d="M 396.8 -1228.6 L 19.000000 -1228.600000" style="fill:none;stroke-width:2.0;stroke:black;"/>
        <path d="M 396.8 -1247.6 L 19.000000 -1247.600000" style="fill:none;stroke-width:2.0;stroke:black;"/>
        <path d="M 1587.3 -100.0 L 1587.333333 -119.000000" style="fill:none;stroke-width:2.0;stroke:black;"/>
        <path d="M 1587.3 -100.0 L 1209.500000 -100.000000" style="fill:none;stroke-width:2.0;stroke:black;"/>
        <path d="M 1587.3 -119.0 L 1209.500000 -119.000000" style="fill:none;stroke-width:2.0;stroke:black;"/>
        <path d="M 1190.5 -1228.6 L 1190.500000 -1247.600000" style="fill:none;stroke-width:2.0;stroke:black;"/>
        <path d="M 1190.5 -1228.6 L 812.666667 -1228.600000" style="fill:none;stroke-width:2.0;stroke:black;"/>
        <path d="M 1190.5 -1247.6 L 812.666667 -1247.600000" style="fill:none;stroke-width:2.0;stroke:black;"/>
        <path d="M 1984.2 -1604.8 L 1984.166667 -1623.800000" style="fill:none;stroke-width:2.0;stroke:black;"/>
        <path d="M 1984.2 -1604.8 L 1606.333333 -1604.800000" style="fill:none;stroke-width:2.0;stroke:black;"/>
        <path d="M 1984.2 -1623.8 L 1606.333333 -1623.800000" style="fill:none;stroke-width:2.0;stroke:black;"/>
        <path d="M 1984.2 -476.2 L 1984.166667 -495.200000" style="fill:none;stroke-width:2.0;stroke:black;"/>
        <path d="M 1984.2 -476.2 L 1606.333333 -476.200000" style="fill:none;stroke-width:2.0;stroke:black;"/>
        <path d="M 1984.2 -495.2 L 1606.333333 -495.200000" style="fill:none;stroke-width:2.0;stroke:black;"/>
        <path d="M 812.7 -2000.0 L 793.666667 -2000.000000" style="fill:none;stroke-width:2.0;stroke:black;"/>
        <path d="M 812.7 -0.0 L 793.666667 -0.000000" style="fill:none;stroke-width:2.0;stroke:black;"/>
        <path d="M 812.7 -0.0 L 812.666667 -2000.000000" style="fill:none;stroke-width:2.0;stroke:black;"/>
        <path d="M 793.7 -0.0 L 793.666667 -2000.000000" style="fill:none;stroke-width:2.0;stroke:black;"/>
        <path d="M 19.0 -0.0 L 396.833333 -0.000000" style="fill:none;stroke-width:2.0;stroke:black;"/>
        <path d="M 1190.5 -100.0 L 1190.500000 -119.000000" style="fill:none;stroke-width:2.0;stroke:black;"/>
        <path d="M 1190.5 -100.0 L 812.666667 -100.000000" style="fill:none;stroke-width:2.0;stroke:black;"/>
        <path d="M 1190.5 -119.0 L 812.666667 -119.000000" style="fill:none;stroke-width:2.0;stroke:black;"/>
    </g>
</svg>
