<?xml version="1.0" encoding="UTF-8"?>
<svg viewBox="0.0 -2000.0  3360.0 2100.0" preserveAspectRatio="xMinYMin meet" xmlns="http://www.w3.org/2000/svg" version="1.1">
    <desc>Powered by Aleker CAD Engine</desc>
    <g id="cad" bboxX="3200" bboxY="2000">
        <path d="M 2783.4 -1604.8 L 2783.375000 -1623.800000" style="fill:none;stroke-width:2.0;stroke:black;"/>
        <path d="M 2783.4 -1604.8 L 2404.750000 -1604.800000" style="fill:none;stroke-width:2.0;stroke:black;"/>
        <path d="M 2783.4 -1623.8 L 2404.750000 -1623.800000" style="fill:none;stroke-width:2.0;stroke:black;"/>
        <path d="M 1192.9 -1981.0 L 814.250000 -1981.000000" style="fill:none;stroke-width:2.0;stroke:black;"/>
        <path d="M 1192.9 -2000.0 L 814.250000 -2000.000000" style="fill:none;stroke-width:2.0;stroke:black;"/>
        <path d="M 2783.4 -1228.6 L 2783.375000 -1247.600000" style="fill:none;stroke-width:2.0;stroke:black;"/>
        <path d="M 2783.4 -1228.6 L 2404.750000 -1228.600000" style="fill:none;stroke-width:2.0;stroke:black;"/>
        <path d="M 2783.4 -1247.6 L 2404.750000 -1247.600000" style="fill:none;stroke-width:2.0;stroke:black;"/>
        <path d="M 1609.5 -2000.0 L 1590.500000 -2000.000000" style="fill:none;stroke-width:2.0;stroke:black;"/>
        <path d="M 1609.5 -0.0 L 1590.500000 -0.000000" style="fill:none;stroke-width:2.0;stroke:black;"/>
        <path d="M 1609.5 -0.0 L 1609.500000 -2000.000000" style="fill:none;stroke-width:2.0;stroke:black;"/>
        <path d="M 1590.5 -0.0 L 1590.500000 -2000.000000" style="fill:none;stroke-width:2.0;stroke:black;"/>
        <path d="M 2404.8 -0.0 L 2385.750000 -0.000000" style="fill:none;stroke-width:2.0;stroke:black;"/>
        <path d="M 2404.8 -2000.0 L 2385.750000 -2000.000000" style="fill:none;stroke-width:2.0;stroke:black;"/>
        <path d="M 2404.8 -0.0 L 2404.750000 -2000.000000" style="fill:none;stroke-width:2.0;stroke:black;"/>
        <path d="M 2385.8 -0.0 L 2385.750000 -2000.000000" style="fill:none;stroke-width:2.0;stroke:black;"/>
        <path d="M 795.3 -1228.6 L 795.250000 -1247.600000" style="fill:none;stroke-width:2.0;stroke:black;"/>
        <path d="M 795.3 -1228.6 L 416.625000 -1228.600000" style="fill:none;stroke-width:2.0;stroke:black;"/>
        <path d="M 795.3 -1247.6 L 416.625000 -1247.600000" style="fill:none;stroke-width:2.0;stroke:black;"/>
        <path d="M 1192.9 -476.2 L 1192.875000 -495.200000" style="fill:none;stroke-width:2.0;stroke:black;"/>
        <path d="M 1192.9 -476.2 L 814.250000 -476.200000" style="fill:none;stroke-width:2.0;stroke:black;"/>
        <path d="M 1192.9 -495.2 L 814.250000 -495.200000" style="fill:none;stroke-width:2.0;stroke:black;"/>
        <path d="M 19.0 -0.0 L 397.625000 -0.000000" style="fill:none;stroke-width:2.0;stroke:black;"/>
        <path d="M 2783.4 -100.0 L 2783.375000 -119.000000" style="fill:none;stroke-width:2.0;stroke:black;"/>
        <path d="M 2783.4 -100.0 L 2404.750000 -100.000000" style="fill:none;stroke-width:2.0;stroke:black;"/>
        <path d="M 2783.4 -119.0 L 2404.750000 -119.000000" style="fill:none;stroke-width:2.0;stroke:black;"/>
        <path d="M 2385.8 -1604.8 L 2385.750000 -1623.800000" style="fill:none;stroke-width:2.0;stroke:black;"/>
        <path d="M 2385.8 -1604.8 L 2007.125000 -1604.800000" style="fill:none;stroke-width:2.0;stroke:black;"/>
        <path d="M 2385.8 -1623.8 L 2007.125000 -1623.800000" style="fill:none;stroke-width:2.0;stroke:black;"/>
        <path d="M 2404.8 -0.0 L 2783.375000 -0.000000" style="fill:none;stroke-width:2.0;stroke:black;"/>
        <path d="M 1211.9 -2000.0 L 1192.875000 -2000.000000" style="fill:none;stroke-width:2.0;stroke:black;"/>
        <path d="M 1211.9 -0.0 L 1192.875000 -0.000000" style="fill:none;stroke-width:2.0;stroke:black;"/>
        <path d="M 1211.9 -0.0 L 1211.875000 -2000.000000" style="fill:none;stroke-width:2.0;stroke:black;"/>
        <path d="M 1192.9 -0.0 L 1192.875000 -2000.000000" style="fill:none;stroke-width:2.0;stroke:black;"/>
        <path d="M 2385.8 -852.4 L 2385.750000 -871.400000" style="fill:none;stroke-width:2.0;stroke:black;"/>
        <path d="M 2385.8 -852.4 L 2007.125000 -852.400000" style="fill:none;stroke-width:2.0;stroke:black;"/>
        <path d="M 2385.8 -871.4 L 2007.125000 -871.400000" style="fill:none;stroke-width:2.0;stroke:black;"/>
        <path d="M 1988.1 -476.2 L 1988.125000 -495.200000" style="fill:none;stroke-width:2.0;stroke:black;"/>
        <path d="M 1988.1 -476.2 L 1609.500000 -476.200000" style="fill:none;stroke-width:2.0;stroke:black;"/>
        <path d="M 1988.1 -495.2 L 1609.500000 -495.200000" style="fill:none;stroke-width:2.0;stroke:black;"/>
        <path d="M 1988.1 -1981.0 L 1609.500000 -1981.000000" style="fill:none;stroke-width:2.0;stroke:black;"/>
        <path d="M 1988.1 -2000.0 L 1609.500000 -2000.000000" style="fill:none;stroke-width:2.0;stroke:black;"/>
        <path d="M 1988.1 -852.4 L 1988.125000 -871.400000" style="fill:none;stroke-width:2.0;stroke:black;"/>
        <path d="M 1988.1 -852.4 L 1609.500000 -852.400000" style="fill:none;stroke-width:2.0;stroke:black;"/>
        <path d="M 1988.1 -871.4 L 1609.500000 -871.400000" style="fill:none;stroke-width:2.0;stroke:black;"/>
        <path d="M 2385.8 -100.0 L 2385.750000 -119.000000" style="fill:none;stroke-width:2.0;stroke:black;"/>
        <path d="M 2385.8 -100.0 L 2007.125000 -100.000000" style="fill:none;stroke-width:2.0;stroke:black;"/>
        <path d="M 2385.8 -119.0 L 2007.125000 -119.000000" style="fill:none;stroke-width:2.0;stroke:black;"/>
        <path d="M 1192.9 -852.4 L 1192.875000 -871.400000" style="fill:none;stroke-width:2.0;stroke:black;"/>
        <path d="M 1192.9 -852.4 L 814.250000 -852.400000" style="fill:none;stroke-width:2.0;stroke:black;"/>
        <path d="M 1192.9 -871.4 L 814.250000 -871.400000" style="fill:none;stroke-width:2.0;stroke:black;"/>
        <path d="M 397.6 -1604.8 L 397.625000 -1623.800000" style="fill:none;stroke-width:2.0;stroke:black;"/>
        <path d="M 397.6 -1604.8 L 19.000000 -1604.800000" style="fill:none;stroke-width:2.0;stroke:black;"/>
        <path d="M 397.6 -1623.8 L 19.000000 -1623.800000" style="fill:none;stroke-width:2.0;stroke:black;"/>
        <path d="M 397.6 -100.0 L 397.625000 -119.000000" style="fill:none;stroke-width:2.0;stroke:black;"/>
        <path d="M 397.6 -100.0 L 19.000000 -100.000000" style="fill:none;stroke-width:2.0;stroke:black;"/>
        <path d="M 397.6 -119.0 L 19.000000 -119.000000" style="fill:none;stroke-width:2.0;stroke:black;"/>
        <path d="M 1590.5 -1228.6 L 1590.500000 -1247.600000" style="fill:none;stroke-width:2.0;stroke:black;"/>
        <path d="M 1590.5 -1228.6 L 1211.875000 -1228.600000" style="fill:none;stroke-width:2.0;stroke:black;"/>
        <path d="M 1590.5 -1247.6 L 1211.875000 -1247.600000" style="fill:none;stroke-width:2.0;stroke:black;"/>
        <path d="M 3181.0 -852.4 L 3181.000000 -871.400000" style="fill:none;stroke-width:2.0;stroke:black;"/>
        <path d="M 3181.0 -852.4 L 2802.375000 -852.400000" style="fill:none;stroke-width:2.0;stroke:black;"/>
        <path d="M 3181.0 -871.4 L 2802.375000 -871.400000" style="fill:none;stroke-width:2.0;stroke:black;"/>
        <path d="M 3181.0 -1228.6 L 3181.000000 -1247.600000" style="fill:none;stroke-width:2.0;stroke:black;"/>
        <path d="M 3181.0 -1228.6 L 2802.375000 -1228.600000" style="fill:none;stroke-width:2.0;stroke:black;"/>
        <path d="M 3181.0 -1247.6 L 2802.375000 -1247.600000" style="fill:none;stroke-width:2.0;stroke:black;"/>
        <path d="M 1590.5 -852.4 L 1590.500000 -871.400000" style="fill:none;stroke-width:2.0;stroke:black;"/>
        <path d="M 1590.5 -852.4 L 1211.875000 -852.400000" style="fill:none;stroke-width:2.0;stroke:black;"/>
        <path d="M 1590.5 -871.4 L 1211.875000 -871.400000" style="fill:none;stroke-width:2.0;stroke:black;"/>
        <path d="M 1590.5 -100.0 L 1590.500000 -119.000000" style="fill:none;stroke-width:2.0;stroke:black;"/>
        <path d="M 1590.5 -100.0 L 1211.875000 -100.000000" style="fill:none;stroke-width:2.0;stroke:black;"/>
        <path d="M 1590.5 -119.0 L 1211.875000 -119.000000" style="fill:none;stroke-width:2.0;stroke:black;"/>
        <path d="M 2385.8 -476.2 L 2385.750000 -495.200000" style="fill:none;stroke-width:2.0;stroke:black;"/>
        <path d="M 2385.8 -476.2 L 2007.125000 -476.200000" style="fill:none;stroke-width:2.0;stroke:black;"/>
        <path d="M 2385.8 -495.2 L 2007.125000 -495.200000" style="fill:none;stroke-width:2.0;stroke:black;"/>
        <path d="M 1988.1 -1604.8 L 1988.125000 -1623.800000" style="fill:none;stroke-width:2.0;stroke:black;"/>
        <path d="M 1988.1 -1604.8 L 1609.500000 -1604.800000" style="fill:none;stroke-width:2.0;stroke:black;"/>
        <path d="M 1988.1 -1623.8 L 1609.500000 -1623.800000" style="fill:none;stroke-width:2.0;stroke:black;"/>
        <path d="M 3181.0 -476.2 L 3181.000000 -495.200000" style="fill:none;stroke-width:2.0;stroke:black;"/>
        <path d="M 3181.0 -476.2 L 2802.375000 -476.200000" style="fill:none;stroke-width:2.0;stroke:black;"/>
        <path d="M 3181.0 -495.2 L 2802.375000 -495.200000" style="fill:none;stroke-width:2.0;stroke:black;"/>
        <path d="M 1192.9 -1604.8 L 1192.875000 -1623.800000" style="fill:none;stroke-width:2.0;stroke:black;"/>
        <path d="M 1192.9 -1604.8 L 814.250000 -1604.800000" style="fill:none;stroke-width:2.0;stroke:black;"/>
        <path d="M 1192.9 -1623.8 L 814.250000 -1623.800000" style="fill:none;stroke-width:2.0;stroke:black;"/>
        <path d="M 397.6 -476.2 L 397.625000 -495.200000" style="fill:none;stroke-width:2.0;stroke:black;"/>
        <path d="M 397.6 -476.2 L 19.000000 -476.200000" style="fill:none;stroke-width:2.0;stroke:black;"/>
        <path d="M 397.6 -495.2 L 19.000000 -495.200000" style="fill:none;stroke-width:2.0;stroke:black;"/>
        <path d="M 2783.4 -1981.0 L 2404.750000 -1981.000000" style="fill:none;stroke-width:2.0;stroke:black;"/>
        <path d="M 2783.4 -2000.0 L 2404.750000 -2000.000000" style="fill:none;stroke-width:2.0;stroke:black;"/>
        <path d="M 397.6 -1981.0 L 19.000000 -1981.000000" style="fill:none;stroke-width:2.0;stroke:black;"/>
        <path d="M 397.6 -2000.0 L 19.000000 -2000.000000" style="fill:none;stroke-width:2.0;stroke:black;"/>
        <path d="M 2783.4 -476.2 L 2783.375000 -495.200000" style="fill:none;stroke-width:2.0;stroke:black;"/>
        <path d="M 2783.4 -476.2 L 2404.750000 -476.200000" style="fill:none;stroke-width:2.0;stroke:black;"/>
        <path d="M 2783.4 -495.2 L 2404.750000 -495.200000" style="fill:none;stroke-width:2.0;stroke:black;"/>
        <path d="M 1988.1 -100.0 L 1988.125000 -119.000000" style="fill:none;stroke-width:2.0;stroke:black;"/>
        <path d="M 1988.1 -100.0 L 1609.500000 -100.000000" style="fill:none;stroke-width:2.0;stroke:black;"/>
        <path d="M 1988.1 -119.0 L 1609.500000 -119.000000" style="fill:none;stroke-width:2.0;stroke:black;"/>
        <path d="M 3181.0 -1981.0 L 2802.375000 -1981.000000" style="fill:none;stroke-width:2.0;stroke:black;"/>
        <path d="M 3181.0 -2000.0 L 2802.375000 -2000.000000" style="fill:none;stroke-width:2.0;stroke:black;"/>
        <path d="M 2802.4 -2000.0 L 2783.375000 -2000.000000" style="fill:none;stroke-width:2.0;stroke:black;"/>
        <path d="M 2802.4 -0.0 L 2783.375000 -0.000000" style="fill:none;stroke-width:2.0;stroke:black;"/>
        <path d="M 2802.4 -0.0 L 2802.375000 -2000.000000" style="fill:none;stroke-width:2.0;stroke:black;"/>
        <path d="M 2783.4 -0.0 L 2783.375000 -2000.000000" style="fill:none;stroke-width:2.0;stroke:black;"/>
        <path d="M 1192.9 -100.0 L 1192.875000 -119.000000" style="fill:none;stroke-width:2.0;stroke:black;"/>
        <path d="M 1192.9 -100.0 L 814.250000 -100.000000" style="fill:none;stroke-width:2.0;stroke:black;"/>
        <path d="M 1192.9 -119.0 L 814.250000 -119.000000" style="fill:none;stroke-width:2.0;stroke:black;"/>
        <path d="M 2007.1 -2000.0 L 1988.125000 -2000.000000" style="fill:none;stroke-width:2.0;stroke:black;"/>
        <path d="M 2007.1 -0.0 L 1988.125000 -0.000000" style="fill:none;stroke-width:2.0;stroke:black;"/>
        <path d="M 2007.1 -0.0 L 2007.125000 -2000.000000" style="fill:none;stroke-width:2.0;stroke:black;"/>
        <path d="M 1988.1 -0.0 L 1988.125000 -2000.000000" style="fill:none;stroke-width:2.0;stroke:black;"/>
        <path d="M 416.6 -0.0 L 795.250000 -0.000000" style="fill:none;stroke-width:2.0;stroke:black;"/>
        <path d="M 1590.5 -1604.8 L 1590.500000 -1623.800000" style="fill:none;stroke-width:2.0;stroke:black;"/>
        <path d="M 1590.5 -1604.8 L 1211.875000 -1604.800000" style="fill:none;stroke-width:2.0;stroke:black;"/>
        <path d="M 1590.5 -1623.8 L 1211.875000 -1623.800000" style="fill:none;stroke-width:2.0;stroke:black;"/>
        <path d="M 795.3 -1981.0 L 416.625000 -1981.000000" style="fill:none;stroke-width:2.0;stroke:black;"/>
        <path d="M 795.3 -2000.0 L 416.625000 -2000.000000" style="fill:none;stroke-width:2.0;stroke:black;"/>
        <path d="M 1590.5 -476.2 L 1590.500000 -495.200000" style="fill:none;stroke-width:2.0;stroke:black;"/>
        <path d="M 1590.5 -476.2 L 1211.875000 -476.200000" style="fill:none;stroke-width:2.0;stroke:black;"/>
        <path d="M 1590.5 -495.2 L 1211.875000 -495.200000" style="fill:none;stroke-width:2.0;stroke:black;"/>
        <path d="M 1590.5 -1981.0 L 1211.875000 -1981.000000" style="fill:none;stroke-width:2.0;stroke:black;"/>
        <path d="M 1590.5 -2000.0 L 1211.875000 -2000.000000" style="fill:none;stroke-width:2.0;stroke:black;"/>
        <path d="M 795.3 -1604.8 L 795.250000 -1623.800000" style="fill:none;stroke-width:2.0;stroke:black;"/>
        <path d="M 795.3 -1604.8 L 416.625000 -1604.800000" style="fill:none;stroke-width:2.0;stroke:black;"/>
        <path d="M 795.3 -1623.8 L 416.625000 -1623.800000" style="fill:none;stroke-width:2.0;stroke:black;"/>
        <path d="M 814.3 -2000.0 L 795.250000 -2000.000000" style="fill:none;stroke-width:2.0;stroke:black;"/>
        <path d="M 814.3 -0.0 L 795.250000 -0.000000" style="fill:none;stroke-width:2.0;stroke:black;"/>
        <path d="M 814.3 -0.0 L 814.250000 -2000.000000" style="fill:none;stroke-width:2.0;stroke:black;"/>
        <path d="M 795.3 -0.0 L 795.250000 -2000.000000" style="fill:none;stroke-width:2.0;stroke:black;"/>
        <path d="M 3181.0 -100.0 L 3181.000000 -119.000000" style="fill:none;stroke-width:2.0;stroke:black;"/>
        <path d="M 3181.0 -100.0 L 2802.375000 -100.000000" style="fill:none;stroke-width:2.0;stroke:black;"/>
        <path d="M 3181.0 -119.0 L 2802.375000 -119.000000" style="fill:none;stroke-width:2.0;stroke:black;"/>
        <path d="M 19.0 -2000.0 L 0.000000 -2000.000000" style="fill:none;stroke-width:2.0;stroke:black;"/>
        <path d="M 19.0 -0.0 L 0.000000 -0.000000" style="fill:none;stroke-width:2.0;stroke:black;"/>
        <path d="M 19.0 -2000.0 L 19.000000 -0.000000" style="fill:none;stroke-width:2.0;stroke:black;"/>
        <path d="M 0.0 -2000.0 L 0.000000 -0.000000" style="fill:none;stroke-width:2.0;stroke:black;"/>
        <path d="M 416.6 -2000.0 L 397.625000 -2000.000000" style="fill:none;stroke-width:2.0;stroke:black;"/>
        <path d="M 416.6 -0.0 L 397.625000 -0.000000" style="fill:none;stroke-width:2.0;stroke:black;"/>
        <path d="M 416.6 -0.0 L 416.625000 -2000.000000" style="fill:none;stroke-width:2.0;stroke:black;"/>
        <path d="M 397.6 -0.0 L 397.625000 -2000.000000" style="fill:none;stroke-width:2.0;stroke:black;"/>
        <path d="M 2007.1 -0.0 L 2385.750000 -0.000000" style="fill:none;stroke-width:2.0;stroke:black;"/>
        <path d="M 397.6 -1228.6 L 397.625000 -1247.600000" style="fill:none;stroke-width:2.0;stroke:black;"/>
        <path d="M 397.6 -1228.6 L 19.000000 -1228.600000" style="fill:none;stroke-width:2.0;stroke:black;"/>
        <path d="M 397.6 -1247.6 L 19.000000 -1247.600000" style="fill:none;stroke-width:2.0;stroke:black;"/>
        <path d="M 814.3 -0.0 L 1192.875000 -0.000000" style="fill:none;stroke-width:2.0;stroke:black;"/>
        <path d="M 795.3 -100.0 L 795.250000 -119.000000" style="fill:none;stroke-width:2.0;stroke:black;"/>
        <path d="M 795.3 -100.0 L 416.625000 -100.000000" style="fill:none;stroke-width:2.0;stroke:black;"/>
        <path d="M 795.3 -119.0 L 416.625000 -119.000000" style="fill:none;stroke-width:2.0;stroke:black;"/>
        <path d="M 814.3 -2000.0 L 795.250000 -2000.000000" style="fill:none;stroke-width:2.0;stroke:black;"/>
        <path d="M 814.3 -0.0 L 795.250000 -0.000000" style="fill:none;stroke-width:2.0;stroke:black;"/>
        <path d="M 814.3 -0.0 L 814.250000 -2000.000000" style="fill:none;stroke-width:2.0;stroke:black;"/>
        <path d="M 795.3 -0.0 L 795.250000 -2000.000000" style="fill:none;stroke-width:2.0;stroke:black;"/>
        <path d="M 2385.8 -1981.0 L 2007.125000 -1981.000000" style="fill:none;stroke-width:2.0;stroke:black;"/>
        <path d="M 2385.8 -2000.0 L 2007.125000 -2000.000000" style="fill:none;stroke-width:2.0;stroke:black;"/>
        <path d="M 416.6 -2000.0 L 397.625000 -2000.000000" style="fill:none;stroke-width:2.0;stroke:black;"/>
        <path d="M 416.6 -0.0 L 397.625000 -0.000000" style="fill:none;stroke-width:2.0;stroke:black;"/>
        <path d="M 416.6 -0.0 L 416.625000 -2000.000000" style="fill:none;stroke-width:2.0;stroke:black;"/>
        <path d="M 397.6 -0.0 L 397.625000 -2000.000000" style="fill:none;stroke-width:2.0;stroke:black;"/>
        <path d="M 1609.5 -2000.0 L 1590.500000 -2000.000000" style="fill:none;stroke-width:2.0;stroke:black;"/>
        <path d="M 1609.5 -0.0 L 1590.500000 -0.000000" style="fill:none;stroke-width:2.0;stroke:black;"/>
        <path d="M 1609.5 -0.0 L 1609.500000 -2000.000000" style="fill:none;stroke-width:2.0;stroke:black;"/>
        <path d="M 1590.5 -0.0 L 1590.500000 -2000.000000" style="fill:none;stroke-width:2.0;stroke:black;"/>
        <path d="M 2802.4 -0.0 L 3181.000000 -0.000000" style="fill:none;stroke-width:2.0;stroke:black;"/>
        <path d="M 1192.9 -1228.6 L 1192.875000 -1247.600000" style="fill:none;stroke-width:2.0;stroke:black;"/>
        <path d="M 1192.9 -1228.6 L 814.250000 -1228.600000" style="fill:none;stroke-width:2.0;stroke:black;"/>
        <path d="M 1192.9 -1247.6 L 814.250000 -1247.600000" style="fill:none;stroke-width:2.0;stroke:black;"/>
        <path d="M 3200.0 -2000.0 L 3181.000000 -2000.000000" style="fill:none;stroke-width:2.0;stroke:black;"/>
        <path d="M 3200.0 -0.0 L 3181.000000 -0.000000" style="fill:none;stroke-width:2.0;stroke:black;"/>
        <path d="M 3200.0 -0.0 L 3200.000000 -2000.000000" style="fill:none;stroke-width:2.0;stroke:black;"/>
        <path d="M 3181.0 -0.0 L 3181.000000 -2000.000000" style="fill:none;stroke-width:2.0;stroke:black;"/>
        <path d="M 2007.1 -2000.0 L 1988.125000 -2000.000000" style="fill:none;stroke-width:2.0;stroke:black;"/>
        <path d="M 2007.1 -0.0 L 1988.125000 -0.000000" style="fill:none;stroke-width:2.0;stroke:black;"/>
        <path d="M 2007.1 -0.0 L 2007.125000 -2000.000000" style="fill:none;stroke-width:2.0;stroke:black;"/>
        <path d="M 1988.1 -0.0 L 1988.125000 -2000.000000" style="fill:none;stroke-width:2.0;stroke:black;"/>
        <path d="M 3181.0 -1604.8 L 3181.000000 -1623.800000" style="fill:none;stroke-width:2.0;stroke:black;"/>
        <path d="M 3181.0 -1604.8 L 2802.375000 -1604.800000" style="fill:none;stroke-width:2.0;stroke:black;"/>
        <path d="M 3181.0 -1623.8 L 2802.375000 -1623.800000" style="fill:none;stroke-width:2.0;stroke:black;"/>
        <path d="M 1988.1 -1228.6 L 1988.125000 -1247.600000" style="fill:none;stroke-width:2.0;stroke:black;"/>
        <path d="M 1988.1 -1228.6 L 1609.500000 -1228.600000" style="fill:none;stroke-width:2.0;stroke:black;"/>
        <path d="M 1988.1 -1247.6 L 1609.500000 -1247.600000" style="fill:none;stroke-width:2.0;stroke:black;"/>
        <path d="M 1211.9 -2000.0 L 1192.875000 -2000.000000" style="fill:none;stroke-width:2.0;stroke:black;"/>
        <path d="M 1211.9 -0.0 L 1192.875000 -0.000000" style="fill:none;stroke-width:2.0;stroke:black;"/>
        <path d="M 1211.9 -0.0 L 1211.875000 -2000.000000" style="fill:none;stroke-width:2.0;stroke:black;"/>
        <path d="M 1192.9 -0.0 L 1192.875000 -2000.000000" style="fill:none;stroke-width:2.0;stroke:black;"/>
        <path d="M 1211.9 -0.0 L 1590.500000 -0.000000" style="fill:none;stroke-width:2.0;stroke:black;"/>
        <path d="M 795.3 -852.4 L 795.250000 -871.400000" style="fill:none;stroke-width:2.0;stroke:black;"/>
        <path d="M 795.3 -852.4 L 416.625000 -852.400000" style="fill:none;stroke-width:2.0;stroke:black;"/>
        <path d="M 795.3 -871.4 L 416.625000 -871.400000" style="fill:none;stroke-width:2.0;stroke:black;"/>
        <path d="M 795.3 -476.2 L 795.250000 -495.200000" style="fill:none;stroke-width:2.0;stroke:black;"/>
        <path d="M 795.3 -476.2 L 416.625000 -476.200000" style="fill:none;stroke-width:2.0;stroke:black;"/>
        <path d="M 795.3 -495.2 L 416.625000 -495.200000" style="fill:none;stroke-width:2.0;stroke:black;"/>
        <path d="M 2385.8 -1228.6 L 2385.750000 -1247.600000" style="fill:none;stroke-width:2.0;stroke:black;"/>
        <path d="M 2385.8 -1228.6 L 2007.125000 -1228.600000" style="fill:none;stroke-width:2.0;stroke:black;"/>
        <path d="M 2385.8 -1247.6 L 2007.125000 -1247.600000" style="fill:none;stroke-width:2.0;stroke:black;"/>
        <path d="M 397.6 -852.4 L 397.625000 -871.400000" style="fill:none;stroke-width:2.0;stroke:black;"/>
        <path d="M 397.6 -852.4 L 19.000000 -852.400000" style="fill:none;stroke-width:2.0;stroke:black;"/>
        <path d="M 397.6 -871.4 L 19.000000 -871.400000" style="fill:none;stroke-width:2.0;stroke:black;"/>
        <path d="M 1609.5 -0.0 L 1988.125000 -0.000000" style="fill:none;stroke-width:2.0;stroke:black;"/>
        <path d="M 2783.4 -852.4 L 2783.375000 -871.400000" style="fill:none;stroke-width:2.0;stroke:black;"/>
        <path d="M 2783.4 -852.4 L 2404.750000 -852.400000" style="fill:none;stroke-width:2.0;stroke:black;"/>
        <path d="M 2783.4 -871.4 L 2404.750000 -871.400000" style="fill:none;stroke-width:2.0;stroke:black;"/>
    </g>
</svg>
