<?xml version="1.0" encoding="UTF-8"?>
<svg viewBox="0.0 -2000.0  2100.0 2100.0" preserveAspectRatio="xMinYMin meet" xmlns="http://www.w3.org/2000/svg" version="1.1">
    <desc>Powered by Aleker CAD Engine</desc>
    <g id="cad" bboxX="2000" bboxY="2000">
        <path d="M 1584.8 -1604.8 L 1584.800000 -1623.800000" style="fill:none;stroke-width:2.0;stroke:black;"/>
        <path d="M 1584.8 -1604.8 L 1207.600000 -1604.800000" style="fill:none;stroke-width:2.0;stroke:black;"/>
        <path d="M 1584.8 -1623.8 L 1207.600000 -1623.800000" style="fill:none;stroke-width:2.0;stroke:black;"/>
        <path d="M 396.2 -1604.8 L 396.200000 -1623.800000" style="fill:none;stroke-width:2.0;stroke:black;"/>
        <path d="M 19.0 -1604.8 L 19.000000 -1623.800000" style="fill:none;stroke-width:2.0;stroke:black;"/>
        <path d="M 396.2 -1604.8 L 19.000000 -1604.800000" style="fill:none;stroke-width:2.0;stroke:black;"/>
        <path d="M 396.2 -1623.8 L 19.000000 -1623.800000" style="fill:none;stroke-width:2.0;stroke:black;"/>
        <path d="M 1981.0 -100.0 L 1981.000000 -119.000000" style="fill:none;stroke-width:2.0;stroke:black;"/>
        <path d="M 1981.0 -100.0 L 1603.800000 -100.000000" style="fill:none;stroke-width:2.0;stroke:black;"/>
        <path d="M 1981.0 -119.0 L 1603.800000 -119.000000" style="fill:none;stroke-width:2.0;stroke:black;"/>
        <path d="M 1207.6 -0.0 L 1188.600000 -0.000000" style="fill:none;stroke-width:2.0;stroke:black;"/>
        <path d="M 1207.6 -2000.0 L 1188.600000 -2000.000000" style="fill:none;stroke-width:2.0;stroke:black;"/>
        <path d="M 1207.6 -0.0 L 1207.600000 -2000.000000" style="fill:none;stroke-width:2.0;stroke:black;"/>
        <path d="M 1188.6 -0.0 L 1188.600000 -2000.000000" style="fill:none;stroke-width:2.0;stroke:black;"/>
        <path d="M 1981.0 -1604.8 L 1981.000000 -1623.800000" style="fill:none;stroke-width:2.0;stroke:black;"/>
        <path d="M 1981.0 -1604.8 L 1603.800000 -1604.800000" style="fill:none;stroke-width:2.0;stroke:black;"/>
        <path d="M 1981.0 -1623.8 L 1603.800000 -1623.800000" style="fill:none;stroke-width:2.0;stroke:black;"/>
        <path d="M 1584.8 -476.2 L 1584.800000 -495.200000" style="fill:none;stroke-width:2.0;stroke:black;"/>
        <path d="M 1584.8 -476.2 L 1207.600000 -476.200000" style="fill:none;stroke-width:2.0;stroke:black;"/>
        <path d="M 1584.8 -495.2 L 1207.600000 -495.200000" style="fill:none;stroke-width:2.0;stroke:black;"/>
        <path d="M 1188.6 -1228.6 L 811.400000 -1228.600000" style="fill:none;stroke-width:2.0;stroke:black;"/>
        <path d="M 1188.6 -1247.6 L 811.400000 -1247.600000" style="fill:none;stroke-width:2.0;stroke:black;"/>
        <path d="M 19.0 -100.0 L 19.000000 -119.000000" style="fill:none;stroke-width:2.0;stroke:black;"/>
        <path d="M 396.2 -100.0 L 396.200000 -119.000000" style="fill:none;stroke-width:2.0;stroke:black;"/>
        <path d="M 396.2 -100.0 L 19.000000 -100.000000" style="fill:none;stroke-width:2.0;stroke:black;"/>
        <path d="M 396.2 -119.0 L 19.000000 -119.000000" style="fill:none;stroke-width:2.0;stroke:black;"/>
        <path d="M 1188.6 -852.4 L 811.400000 -852.400000" style="fill:none;stroke-width:2.0;stroke:black;"/>
        <path d="M 1188.6 -871.4 L 811.400000 -871.400000" style="fill:none;stroke-width:2.0;stroke:black;"/>
        <path d="M 1207.6 -0.0 L 1584.800000 -0.000000" style="fill:none;stroke-width:2.0;stroke:black;"/>
        <path d="M 1584.8 -852.4 L 1584.800000 -871.400000" style="fill:none;stroke-width:2.0;stroke:black;"/>
        <path d="M 1584.8 -852.4 L 1207.600000 -852.400000" style="fill:none;stroke-width:2.0;stroke:black;"/>
        <path d="M 1584.8 -871.4 L 1207.600000 -871.400000" style="fill:none;stroke-width:2.0;stroke:black;"/>
        <path d="M 1584.8 -100.0 L 1584.800000 -119.000000" style="fill:none;stroke-width:2.0;stroke:black;"/>
        <path d="M 1584.8 -100.0 L 1207.600000 -100.000000" style="fill:none;stroke-width:2.0;stroke:black;"/>
        <path d="M 1584.8 -119.0 L 1207.600000 -119.000000" style="fill:none;stroke-width:2.0;stroke:black;"/>
        <path d="M 1188.6 -100.0 L 811.400000 -100.000000" style="fill:none;stroke-width:2.0;stroke:black;"/>
        <path d="M 1188.6 -119.0 L 811.400000 -119.000000" style="fill:none;stroke-width:2.0;stroke:black;"/>
        <path d="M 396.2 -1981.0 L 19.000000 -1981.000000" style="fill:none;stroke-width:2.0;stroke:black;"/>
        <path d="M 396.2 -2000.0 L 19.000000 -2000.000000" style="fill:none;stroke-width:2.0;stroke:black;"/>
        <path d="M 792.4 -1981.0 L 415.200000 -1981.000000" style="fill:none;stroke-width:2.0;stroke:black;"/>
        <path d="M 792.4 -2000.0 L 415.200000 -2000.000000" style="fill:none;stroke-width:2.0;stroke:black;"/>
        <path d="M 396.2 -1228.6 L 396.200000 -1247.600000" style="fill:none;stroke-width:2.0;stroke:black;"/>
        <path d="M 19.0 -1228.6 L 19.000000 -1247.600000" style="fill:none;stroke-width:2.0;stroke:black;"/>
        <path d="M 396.2 -1228.6 L 19.000000 -1228.600000" style="fill:none;stroke-width:2.0;stroke:black;"/>
        <path d="M 396.2 -1247.6 L 19.000000 -1247.600000" style="fill:none;stroke-width:2.0;stroke:black;"/>
        <path d="M 1188.6 -476.2 L 811.400000 -476.200000" style="fill:none;stroke-width:2.0;stroke:black;"/>
        <path d="M 1188.6 -495.2 L 811.400000 -495.200000" style="fill:none;stroke-width:2.0;stroke:black;"/>
        <path d="M 415.2 -2000.0 L 396.200000 -2000.000000" style="fill:none;stroke-width:2.0;stroke:black;"/>
        <path d="M 415.2 -0.0 L 396.200000 -0.000000" style="fill:none;stroke-width:2.0;stroke:black;"/>
        <path d="M 415.2 -0.0 L 415.200000 -2000.000000" style="fill:none;stroke-width:2.0;stroke:black;"/>
        <path d="M 396.2 -0.0 L 396.200000 -2000.000000" style="fill:none;stroke-width:2.0;stroke:black;"/>
        <path d="M 1603.8 -2000.0 L 1584.800000 -2000.000000" style="fill:none;stroke-width:2.0;stroke:black;"/>
        <path d="M 1603.8 -0.0 L 1584.800000 -0.000000" style="fill:none;stroke-width:2.0;stroke:black;"/>
        <path d="M 1603.8 -0.0 L 1603.800000 -2000.000000" style="fill:none;stroke-width:2.0;stroke:black;"/>
        <path d="M 1584.8 -0.0 L 1584.800000 -2000.000000" style="fill:none;stroke-width:2.0;stroke:black;"/>
        <path d="M 811.4 -2000.0 L 792.400000 -2000.000000" style="fill:none;stroke-width:2.0;stroke:black;"/>
        <path d="M 811.4 -0.0 L 792.400000 -0.000000" style="fill:none;stroke-width:2.0;stroke:black;"/>
        <path d="M 811.4 -0.0 L 811.400000 -2000.000000" style="fill:none;stroke-width:2.0;stroke:black;"/>
        <path d="M 792.4 -0.0 L 792.400000 -2000.000000" style="fill:none;stroke-width:2.0;stroke:black;"/>
        <path d="M 792.4 -852.4 L 792.400000 -871.400000" style="fill:none;stroke-width:2.0;stroke:black;"/>
        <path d="M 415.2 -852.4 L 415.200000 -871.400000" style="fill:none;stroke-width:2.0;stroke:black;"/>
        <path d="M 792.4 -852.4 L 415.200000 -852.400000" style="fill:none;stroke-width:2.0;stroke:black;"/>
        <path d="M 792.4 -871.4 L 415.200000 -871.400000" style="fill:none;stroke-width:2.0;stroke:black;"/>
        <path d="M 396.2 -852.4 L 396.200000 -871.400000" style="fill:none;stroke-width:2.0;stroke:black;"/>
        <path d="M 19.0 -852.4 L 19.000000 -871.400000" style="fill:none;stroke-width:2.0;stroke:black;"/>
        <path d="M 396.2 -852.4 L 19.000000 -852.400000" style="fill:none;stroke-width:2.0;stroke:black;"/>
        <path d="M 396.2 -871.4 L 19.000000 -871.400000" style="fill:none;stroke-width:2.0;stroke:black;"/>
        <path d="M 415.2 -0.0 L 792.400000 -0.000000" style="fill:none;stroke-width:2.0;stroke:black;"/>
        <path d="M 1584.8 -1981.0 L 1207.600000 -1981.000000" style="fill:none;stroke-width:2.0;stroke:black;"/>
        <path d="M 1584.8 -2000.0 L 1207.600000 -2000.000000" style="fill:none;stroke-width:2.0;stroke:black;"/>
        <path d="M 19.0 -0.0 L 396.200000 -0.000000" style="fill:none;stroke-width:2.0;stroke:black;"/>
        <path d="M 1981.0 -476.2 L 1981.000000 -495.200000" style="fill:none;stroke-width:2.0;stroke:black;"/>
        <path d="M 1981.0 -476.2 L 1603.800000 -476.200000" style="fill:none;stroke-width:2.0;stroke:black;"/>
        <path d="M 1981.0 -495.2 L 1603.800000 -495.200000" style="fill:none;stroke-width:2.0;stroke:black;"/>
        <path d="M 1603.8 -0.0 L 1981.000000 -0.000000" style="fill:none;stroke-width:2.0;stroke:black;"/>
        <path d="M 19.0 -2000.0 L 0.000000 -2000.000000" style="fill:none;stroke-width:2.0;stroke:black;"/>
        <path d="M 19.0 -0.0 L 0.000000 -0.000000" style="fill:none;stroke-width:2.0;stroke:black;"/>
        <path d="M 19.0 -2000.0 L 19.000000 -0.000000" style="fill:none;stroke-width:2.0;stroke:black;"/>
        <path d="M 0.0 -2000.0 L 0.000000 -0.000000" style="fill:none;stroke-width:2.0;stroke:black;"/>
        <path d="M 792.4 -1604.8 L 792.400000 -1623.800000" style="fill:none;stroke-width:2.0;stroke:black;"/>
        <path d="M 415.2 -1604.8 L 415.200000 -1623.800000" style="fill:none;stroke-width:2.0;stroke:black;"/>
        <path d="M 792.4 -1604.8 L 415.200000 -1604.800000" style="fill:none;stroke-width:2.0;stroke:black;"/>
        <path d="M 792.4 -1623.8 L 415.200000 -1623.800000" style="fill:none;stroke-width:2.0;stroke:black;"/>
        <path d="M 1981.0 -1228.6 L 1981.000000 -1247.600000" style="fill:none;stroke-width:2.0;stroke:black;"/>
        <path d="M 1981.0 -1228.6 L 1603.800000 -1228.600000" style="fill:none;stroke-width:2.0;stroke:black;"/>
        <path d="M 1981.0 -1247.6 L 1603.800000 -1247.600000" style="fill:none;stroke-width:2.0;stroke:black;"/>
        <path d="M 1981.0 -852.4 L 1981.000000 -871.400000" style="fill:none;stroke-width:2.0;stroke:black;"/>
        <path d="M 1981.0 -852.4 L 1603.800000 -852.400000" style="fill:none;stroke-width:2.0;stroke:black;"/>
        <path d="M 1981.0 -871.4 L 1603.800000 -871.400000" style="fill:none;stroke-width:2.0;stroke:black;"/>
        <path d="M 1584.8 -1228.6 L 1584.800000 -1247.600000" style="fill:none;stroke-width:2.0;stroke:black;"/>
        <path d="M 1584.8 -1228.6 L 1207.600000 -1228.600000" style="fill:none;stroke-width:2.0;stroke:black;"/>
        <path d="M 1584.8 -1247.6 L 1207.600000 -1247.600000" style="fill:none;stroke-width:2.0;stroke:black;"/>
        <path d="M 415.2 -100.0 L 415.200000 -119.000000" style="fill:none;stroke-width:2.0;stroke:black;"/>
        <path d="M 792.4 -100.0 L 792.400000 -119.000000" style="fill:none;stroke-width:2.0;stroke:black;"/>
        <path d="M 792.4 -100.0 L 415.200000 -100.000000" style="fill:none;stroke-width:2.0;stroke:black;"/>
        <path d="M 792.4 -119.0 L 415.200000 -119.000000" style="fill:none;stroke-width:2.0;stroke:black;"/>
        <path d="M 2000.0 -2000.0 L 1981.000000 -2000.000000" style="fill:none;stroke-width:2.0;stroke:black;"/>
        <path d="M 2000.0 -0.0 L 1981.000000 -0.000000" style="fill:none;stroke-width:2.0;stroke:black;"/>
        <path d="M 2000.0 -0.0 L 2000.000000 -2000.000000" style="fill:none;stroke-width:2.0;stroke:black;"/>
        <path d="M 1981.0 -0.0 L 1981.000000 -2000.000000" style="fill:none;stroke-width:2.0;stroke:black;"/>
        <path d="M 1981.0 -1981.0 L 1603.800000 -1981.000000" style="fill:none;stroke-width:2.0;stroke:black;"/>
        <path d="M 1981.0 -2000.0 L 1603.800000 -2000.000000" style="fill:none;stroke-width:2.0;stroke:black;"/>
        <path d="M 792.4 -476.2 L 792.400000 -495.200000" style="fill:none;stroke-width:2.0;stroke:black;"/>
        <path d="M 415.2 -476.2 L 415.200000 -495.200000" style="fill:none;stroke-width:2.0;stroke:black;"/>
        <path d="M 792.4 -476.2 L 415.200000 -476.200000" style="fill:none;stroke-width:2.0;stroke:black;"/>
        <path d="M 792.4 -495.2 L 415.200000 -495.200000" style="fill:none;stroke-width:2.0;stroke:black;"/>
        <path d="M 1188.6 -1981.0 L 811.400000 -1981.000000" style="fill:none;stroke-width:2.0;stroke:black;"/>
        <path d="M 1188.6 -2000.0 L 811.400000 -2000.000000" style="fill:none;stroke-width:2.0;stroke:black;"/>
        <path d="M 792.4 -1228.6 L 792.400000 -1247.600000" style="fill:none;stroke-width:2.0;stroke:black;"/>
        <path d="M 415.2 -1228.6 L 415.200000 -1247.600000" style="fill:none;stroke-width:2.0;stroke:black;"/>
        <path d="M 792.4 -1228.6 L 415.200000 -1228.600000" style="fill:none;stroke-width:2.0;stroke:black;"/>
        <path d="M 792.4 -1247.6 L 415.200000 -1247.600000" style="fill:none;stroke-width:2.0;stroke:black;"/>
        <path d="M 811.4 -0.0 L 1188.600000 -0.000000" style="fill:none;stroke-width:2.0;stroke:black;"/>
        <path d="M 1188.6 -1604.8 L 811.400000 -1604.800000" style="fill:none;stroke-width:2.0;stroke:black;"/>
        <path d="M 1188.6 -1623.8 L 811.400000 -1623.800000" style="fill:none;stroke-width:2.0;stroke:black;"/>
        <path d="M 396.2 -476.2 L 396.200000 -495.200000" style="fill:none;stroke-width:2.0;stroke:black;"/>
        <path d="M 19.0 -476.2 L 19.000000 -495.200000" style="fill:none;stroke-width:2.0;stroke:black;"/>
        <path d="M 396.2 -476.2 L 19.000000 -476.200000" style="fill:none;stroke-width:2.0;stroke:black;"/>
        <path d="M 396.2 -495.2 L 19.000000 -495.200000" style="fill:none;stroke-width:2.0;stroke:black;"/>
    </g>
</svg>
