<?xml version="1.0" encoding="UTF-8"?>
<svg viewBox="0.0 -2000.0  1680.0 2100.0" preserveAspectRatio="xMinYMin meet" xmlns="http://www.w3.org/2000/svg" version="1.1">
    <desc>Powered by Aleker CAD Engine</desc>
    <g id="cad" bboxX="1600" bboxY="2000">
        <path d="M 1185.8 -1604.8 L 1185.750000 -1623.800000" style="fill:none;stroke-width:2.0;stroke:black;"/>
        <path d="M 1185.8 -1604.8 L 809.500000 -1604.800000" style="fill:none;stroke-width:2.0;stroke:black;"/>
        <path d="M 1185.8 -1623.8 L 809.500000 -1623.800000" style="fill:none;stroke-width:2.0;stroke:black;"/>
        <path d="M 1185.8 -2000.0 L 809.500000 -2000.000000" style="fill:none;stroke-width:2.0;stroke:black;"/>
        <path d="M 1185.8 -1981.0 L 809.500000 -1981.000000" style="fill:none;stroke-width:2.0;stroke:black;"/>
        <path d="M 809.5 -0.0 L 790.500000 -0.000000" style="fill:none;stroke-width:2.0;stroke:black;"/>
        <path d="M 809.5 -2000.0 L 790.500000 -2000.000000" style="fill:none;stroke-width:2.0;stroke:black;"/>
        <path d="M 809.5 -0.0 L 809.500000 -2000.000000" style="fill:none;stroke-width:2.0;stroke:black;"/>
        <path d="M 790.5 -0.0 L 790.500000 -2000.000000" style="fill:none;stroke-width:2.0;stroke:black;"/>
        <path d="M 1581.0 -1228.6 L 1581.000000 -1247.600000" style="fill:none;stroke-width:2.0;stroke:black;"/>
        <path d="M 1581.0 -1228.6 L 1204.750000 -1228.600000" style="fill:none;stroke-width:2.0;stroke:black;"/>
        <path d="M 1581.0 -1247.6 L 1204.750000 -1247.600000" style="fill:none;stroke-width:2.0;stroke:black;"/>
        <path d="M 1185.8 -852.4 L 1185.750000 -871.400000" style="fill:none;stroke-width:2.0;stroke:black;"/>
        <path d="M 1185.8 -852.4 L 809.500000 -852.400000" style="fill:none;stroke-width:2.0;stroke:black;"/>
        <path d="M 1185.8 -871.4 L 809.500000 -871.400000" style="fill:none;stroke-width:2.0;stroke:black;"/>
        <path d="M 790.5 -2000.0 L 414.250000 -2000.000000" style="fill:none;stroke-width:2.0;stroke:black;"/>
        <path d="M 790.5 -1981.0 L 414.250000 -1981.000000" style="fill:none;stroke-width:2.0;stroke:black;"/>
        <path d="M 1185.8 -476.2 L 1185.750000 -495.200000" style="fill:none;stroke-width:2.0;stroke:black;"/>
        <path d="M 1185.8 -476.2 L 809.500000 -476.200000" style="fill:none;stroke-width:2.0;stroke:black;"/>
        <path d="M 1185.8 -495.2 L 809.500000 -495.200000" style="fill:none;stroke-width:2.0;stroke:black;"/>
        <path d="M 790.5 -0.0 L 414.250000 -0.000000" style="fill:none;stroke-width:2.0;stroke:black;"/>
        <path d="M 395.3 -0.0 L 19.000000 -0.000000" style="fill:none;stroke-width:2.0;stroke:black;"/>
        <path d="M 1581.0 -852.4 L 1581.000000 -871.400000" style="fill:none;stroke-width:2.0;stroke:black;"/>
        <path d="M 1581.0 -852.4 L 1204.750000 -852.400000" style="fill:none;stroke-width:2.0;stroke:black;"/>
        <path d="M 1581.0 -871.4 L 1204.750000 -871.400000" style="fill:none;stroke-width:2.0;stroke:black;"/>
        <path d="M 395.3 -476.2 L 395.250000 -495.200000" style="fill:none;stroke-width:2.0;stroke:black;"/>
        <path d="M 395.3 -476.2 L 19.000000 -476.200000" style="fill:none;stroke-width:2.0;stroke:black;"/>
        <path d="M 395.3 -495.2 L 19.000000 -495.200000" style="fill:none;stroke-width:2.0;stroke:black;"/>
        <path d="M 1185.8 -1228.6 L 1185.750000 -1247.600000" style="fill:none;stroke-width:2.0;stroke:black;"/>
        <path d="M 1185.8 -1228.6 L 809.500000 -1228.600000" style="fill:none;stroke-width:2.0;stroke:black;"/>
        <path d="M 1185.8 -1247.6 L 809.500000 -1247.600000" style="fill:none;stroke-width:2.0;stroke:black;"/>
        <path d="M 790.5 -476.2 L 790.500000 -495.200000" style="fill:none;stroke-width:2.0;stroke:black;"/>
        <path d="M 790.5 -476.2 L 414.250000 -476.200000" style="fill:none;stroke-width:2.0;stroke:black;"/>
        <path d="M 790.5 -495.2 L 414.250000 -495.200000" style="fill:none;stroke-width:2.0;stroke:black;"/>
        <path d="M 1204.8 -2000.0 L 1185.750000 -2000.000000" style="fill:none;stroke-width:2.0;stroke:black;"/>
        <path d="M 1204.8 -0.0 L 1185.750000 -0.000000" style="fill:none;stroke-width:2.0;stroke:black;"/>
        <path d="M 1204.8 -0.0 L 1204.750000 -2000.000000" style="fill:none;stroke-width:2.0;stroke:black;"/>
        <path d="M 1185.8 -0.0 L 1185.750000 -2000.000000" style="fill:none;stroke-width:2.0;stroke:black;"/>
        <path d="M 414.3 -2000.0 L 395.250000 -2000.000000" style="fill:none;stroke-width:2.0;stroke:black;"/>
        <path d="M 414.3 -0.0 L 395.250000 -0.000000" style="fill:none;stroke-width:2.0;stroke:black;"/>
        <path d="M 414.3 -0.0 L 414.250000 -2000.000000" style="fill:none;stroke-width:2.0;stroke:black;"/>
        <path d="M 395.3 -0.0 L 395.250000 -2000.000000" style="fill:none;stroke-width:2.0;stroke:black;"/>
        <path d="M 1581.0 -1604.8 L 1581.000000 -1623.800000" style="fill:none;stroke-width:2.0;stroke:black;"/>
        <path d="M 1581.0 -1604.8 L 1204.750000 -1604.800000" style="fill:none;stroke-width:2.0;stroke:black;"/>
        <path d="M 1581.0 -1623.8 L 1204.750000 -1623.800000" style="fill:none;stroke-width:2.0;stroke:black;"/>
        <path d="M 1185.8 -100.0 L 1185.750000 -119.000000" style="fill:none;stroke-width:2.0;stroke:black;"/>
        <path d="M 1185.8 -100.0 L 809.500000 -100.000000" style="fill:none;stroke-width:2.0;stroke:black;"/>
        <path d="M 1185.8 -119.0 L 809.500000 -119.000000" style="fill:none;stroke-width:2.0;stroke:black;"/>
        <path d="M 790.5 -100.0 L 790.500000 -119.000000" style="fill:none;stroke-width:2.0;stroke:black;"/>
        <path d="M 790.5 -100.0 L 414.250000 -100.000000" style="fill:none;stroke-width:2.0;stroke:black;"/>
        <path d="M 790.5 -119.0 L 414.250000 -119.000000" style="fill:none;stroke-width:2.0;stroke:black;"/>
        <path d="M 395.3 -852.4 L 395.250000 -871.400000" style="fill:none;stroke-width:2.0;stroke:black;"/>
        <path d="M 395.3 -852.4 L 19.000000 -852.400000" style="fill:none;stroke-width:2.0;stroke:black;"/>
        <path d="M 395.3 -871.4 L 19.000000 -871.400000" style="fill:none;stroke-width:2.0;stroke:black;"/>
        <path d="M 19.0 -2000.0 L 0.000000 -2000.000000" style="fill:none;stroke-width:2.0;stroke:black;"/>
        <path d="M 19.0 -0.0 L 0.000000 -0.000000" style="fill:none;stroke-width:2.0;stroke:black;"/>
        <path d="M 19.0 -2000.0 L 19.000000 -0.000000" style="fill:none;stroke-width:2.0;stroke:black;"/>
        <path d="M 0.0 -2000.0 L 0.000000 -0.000000" style="fill:none;stroke-width:2.0;stroke:black;"/>
        <path d="M 395.3 -2000.0 L 19.000000 -2000.000000" style="fill:none;stroke-width:2.0;stroke:black;"/>
        <path d="M 395.3 -1981.0 L 19.000000 -1981.000000" style="fill:none;stroke-width:2.0;stroke:black;"/>
        <path d="M 395.3 -100.0 L 395.250000 -119.000000" style="fill:none;stroke-width:2.0;stroke:black;"/>
        <path d="M 395.3 -100.0 L 19.000000 -100.000000" style="fill:none;stroke-width:2.0;stroke:black;"/>
        <path d="M 395.3 -119.0 L 19.000000 -119.000000" style="fill:none;stroke-width:2.0;stroke:black;"/>
        <path d="M 1600.0 -2000.0 L 1581.000000 -2000.000000" style="fill:none;stroke-width:2.0;stroke:black;"/>
        <path d="M 1600.0 -0.0 L 1581.000000 -0.000000" style="fill:none;stroke-width:2.0;stroke:black;"/>
        <path d="M 1600.0 -0.0 L 1600.000000 -2000.000000" style="fill:none;stroke-width:2.0;stroke:black;"/>
        <path d="M 1581.0 -0.0 L 1581.000000 -2000.000000" style="fill:none;stroke-width:2.0;stroke:black;"/>
        <path d="M 414.3 -2000.0 L 395.250000 -2000.000000" style="fill:none;stroke-width:2.0;stroke:black;"/>
        <path d="M 414.3 -0.0 L 395.250000 -0.000000" style="fill:none;stroke-width:2.0;stroke:black;"/>
        <path d="M 414.3 -0.0 L 414.250000 -2000.000000" style="fill:none;stroke-width:2.0;stroke:black;"/>
        <path d="M 395.3 -0.0 L 395.250000 -2000.000000" style="fill:none;stroke-width:2.0;stroke:black;"/>
        <path d="M 1581.0 -2000.0 L 1204.750000 -2000.000000" style="fill:none;stroke-width:2.0;stroke:black;"/>
        <path d="M 1581.0 -1981.0 L 1204.750000 -1981.000000" style="fill:none;stroke-width:2.0;stroke:black;"/>
        <path d="M 790.5 -1228.6 L 790.500000 -1247.600000" style="fill:none;stroke-width:2.0;stroke:black;"/>
        <path d="M 790.5 -1228.6 L 414.250000 -1228.600000" style="fill:none;stroke-width:2.0;stroke:black;"/>
        <path d="M 790.5 -1247.6 L 414.250000 -1247.600000" style="fill:none;stroke-width:2.0;stroke:black;"/>
        <path d="M 395.3 -1604.8 L 395.250000 -1623.800000" style="fill:none;stroke-width:2.0;stroke:black;"/>
        <path d="M 395.3 -1604.8 L 19.000000 -1604.800000" style="fill:none;stroke-width:2.0;stroke:black;"/>
        <path d="M 395.3 -1623.8 L 19.000000 -1623.800000" style="fill:none;stroke-width:2.0;stroke:black;"/>
        <path d="M 1185.8 -0.0 L 809.500000 -0.000000" style="fill:none;stroke-width:2.0;stroke:black;"/>
        <path d="M 790.5 -1604.8 L 790.500000 -1623.800000" style="fill:none;stroke-width:2.0;stroke:black;"/>
        <path d="M 790.5 -1604.8 L 414.250000 -1604.800000" style="fill:none;stroke-width:2.0;stroke:black;"/>
        <path d="M 790.5 -1623.8 L 414.250000 -1623.800000" style="fill:none;stroke-width:2.0;stroke:black;"/>
        <path d="M 1581.0 -100.0 L 1581.000000 -119.000000" style="fill:none;stroke-width:2.0;stroke:black;"/>
        <path d="M 1581.0 -100.0 L 1204.750000 -100.000000" style="fill:none;stroke-width:2.0;stroke:black;"/>
        <path d="M 1581.0 -119.0 L 1204.750000 -119.000000" style="fill:none;stroke-width:2.0;stroke:black;"/>
        <path d="M 790.5 -852.4 L 790.500000 -871.400000" style="fill:none;stroke-width:2.0;stroke:black;"/>
        <path d="M 790.5 -852.4 L 414.250000 -852.400000" style="fill:none;stroke-width:2.0;stroke:black;"/>
        <path d="M 790.5 -871.4 L 414.250000 -871.400000" style="fill:none;stroke-width:2.0;stroke:black;"/>
        <path d="M 1581.0 -476.2 L 1581.000000 -495.200000" style="fill:none;stroke-width:2.0;stroke:black;"/>
        <path d="M 1581.0 -476.2 L 1204.750000 -476.200000" style="fill:none;stroke-width:2.0;stroke:black;"/>
        <path d="M 1581.0 -495.2 L 1204.750000 -495.200000" style="fill:none;stroke-width:2.0;stroke:black;"/>
        <path d="M 395.3 -1228.6 L 395.250000 -1247.600000" style="fill:none;stroke-width:2.0;stroke:black;"/>
        <path d="M 395.3 -1228.6 L 19.000000 -1228.600000" style="fill:none;stroke-width:2.0;stroke:black;"/>
        <path d="M 395.3 -1247.6 L 19.000000 -1247.600000" style="fill:none;stroke-width:2.0;stroke:black;"/>
        <path d="M 1581.0 -0.0 L 1204.750000 -0.000000" style="fill:none;stroke-width:2.0;stroke:black;"/>
    </g>
</svg>
