<?xml version="1.0" encoding="UTF-8"?>
<svg viewBox="0.0 -2000.0  840.0 2100.0" preserveAspectRatio="xMinYMin meet" xmlns="http://www.w3.org/2000/svg" version="1.1">
    <desc>Powered by Aleker CAD Engine</desc>
    <g id="cad" bboxX="800" bboxY="2000">
        <path d="M 19.0 -100.0 L 19.000000 -119.000000" style="fill:none;stroke-width:2.0;stroke:black;"/>
        <path d="M 390.5 -100.0 L 390.500000 -119.000000" style="fill:none;stroke-width:2.0;stroke:black;"/>
        <path d="M 19.0 -100.0 L 390.500000 -100.000000" style="fill:none;stroke-width:2.0;stroke:black;"/>
        <path d="M 19.0 -119.0 L 390.500000 -119.000000" style="fill:none;stroke-width:2.0;stroke:black;"/>
        <path d="M 409.5 -2000.0 L 390.500000 -2000.000000" style="fill:none;stroke-width:2.0;stroke:black;"/>
        <path d="M 409.5 -0.0 L 390.500000 -0.000000" style="fill:none;stroke-width:2.0;stroke:black;"/>
        <path d="M 409.5 -2000.0 L 409.500000 -0.000000" style="fill:none;stroke-width:2.0;stroke:black;"/>
        <path d="M 390.5 -2000.0 L 390.500000 -0.000000" style="fill:none;stroke-width:2.0;stroke:black;"/>
        <path d="M 781.0 -852.4 L 781.000000 -871.400000" style="fill:none;stroke-width:2.0;stroke:black;"/>
        <path d="M 781.0 -852.4 L 409.500000 -852.400000" style="fill:none;stroke-width:2.0;stroke:black;"/>
        <path d="M 781.0 -871.4 L 409.500000 -871.400000" style="fill:none;stroke-width:2.0;stroke:black;"/>
        <path d="M 781.0 -2000.0 L 409.500000 -2000.000000" style="fill:none;stroke-width:2.0;stroke:black;"/>
        <path d="M 781.0 -1981.0 L 409.500000 -1981.000000" style="fill:none;stroke-width:2.0;stroke:black;"/>
        <path d="M 800.0 -2000.0 L 781.000000 -2000.000000" style="fill:none;stroke-width:2.0;stroke:black;"/>
        <path d="M 800.0 -0.0 L 781.000000 -0.000000" style="fill:none;stroke-width:2.0;stroke:black;"/>
        <path d="M 800.0 -0.0 L 800.000000 -2000.000000" style="fill:none;stroke-width:2.0;stroke:black;"/>
        <path d="M 781.0 -0.0 L 781.000000 -2000.000000" style="fill:none;stroke-width:2.0;stroke:black;"/>
        <path d="M 390.5 -476.2 L 390.500000 -495.200000" style="fill:none;stroke-width:2.0;stroke:black;"/>
        <path d="M 19.0 -476.2 L 19.000000 -495.200000" style="fill:none;stroke-width:2.0;stroke:black;"/>
        <path d="M 390.5 -476.2 L 19.000000 -476.200000" style="fill:none;stroke-width:2.0;stroke:black;"/>
        <path d="M 390.5 -495.2 L 19.000000 -495.200000" style="fill:none;stroke-width:2.0;stroke:black;"/>
        <path d="M 0.0 -2000.0 L 19.000000 -2000.000000" style="fill:none;stroke-width:2.0;stroke:black;"/>
        <path d="M 0.0 -0.0 L 19.000000 -0.000000" style="fill:none;stroke-width:2.0;stroke:black;"/>
        <path d="M 0.0 -2000.0 L 0.000000 -0.000000" style="fill:none;stroke-width:2.0;stroke:black;"/>
        <path d="M 19.0 -2000.0 L 19.000000 -0.000000" style="fill:none;stroke-width:2.0;stroke:black;"/>
        <path d="M 781.0 -1604.8 L 781.000000 -1623.800000" style="fill:none;stroke-width:2.0;stroke:black;"/>
        <path d="M 781.0 -1604.8 L 409.500000 -1604.800000" style="fill:none;stroke-width:2.0;stroke:black;"/>
        <path d="M 781.0 -1623.8 L 409.500000 -1623.800000" style="fill:none;stroke-width:2.0;stroke:black;"/>
        <path d="M 390.5 -1604.8 L 390.500000 -1623.800000" style="fill:none;stroke-width:2.0;stroke:black;"/>
        <path d="M 19.0 -1604.8 L 19.000000 -1623.800000" style="fill:none;stroke-width:2.0;stroke:black;"/>
        <path d="M 390.5 -1604.8 L 19.000000 -1604.800000" style="fill:none;stroke-width:2.0;stroke:black;"/>
        <path d="M 390.5 -1623.8 L 19.000000 -1623.800000" style="fill:none;stroke-width:2.0;stroke:black;"/>
        <path d="M 390.5 -2000.0 L 19.000000 -2000.000000" style="fill:none;stroke-width:2.0;stroke:black;"/>
        <path d="M 390.5 -1981.0 L 19.000000 -1981.000000" style="fill:none;stroke-width:2.0;stroke:black;"/>
        <path d="M 390.5 -1228.6 L 390.500000 -1247.600000" style="fill:none;stroke-width:2.0;stroke:black;"/>
        <path d="M 19.0 -1228.6 L 19.000000 -1247.600000" style="fill:none;stroke-width:2.0;stroke:black;"/>
        <path d="M 390.5 -1228.6 L 19.000000 -1228.600000" style="fill:none;stroke-width:2.0;stroke:black;"/>
        <path d="M 390.5 -1247.6 L 19.000000 -1247.600000" style="fill:none;stroke-width:2.0;stroke:black;"/>
        <path d="M 781.0 -100.0 L 781.000000 -119.000000" style="fill:none;stroke-width:2.0;stroke:black;"/>
        <path d="M 409.5 -100.0 L 781.000000 -100.000000" style="fill:none;stroke-width:2.0;stroke:black;"/>
        <path d="M 409.5 -119.0 L 781.000000 -119.000000" style="fill:none;stroke-width:2.0;stroke:black;"/>
        <path d="M 409.5 -0.0 L 781.000000 -0.000000" style="fill:none;stroke-width:2.0;stroke:black;"/>
        <path d="M 19.0 -0.0 L 390.500000 -0.000000" style="fill:none;stroke-width:2.0;stroke:black;"/>
        <path d="M 781.0 -1228.6 L 781.000000 -1247.600000" style="fill:none;stroke-width:2.0;stroke:black;"/>
        <path d="M 781.0 -1228.6 L 409.500000 -1228.600000" style="fill:none;stroke-width:2.0;stroke:black;"/>
        <path d="M 781.0 -1247.6 L 409.500000 -1247.600000" style="fill:none;stroke-width:2.0;stroke:black;"/>
        <path d="M 390.5 -852.4 L 390.500000 -871.400000" style="fill:none;stroke-width:2.0;stroke:black;"/>
        <path d="M 19.0 -852.4 L 19.000000 -871.400000" style="fill:none;stroke-width:2.0;stroke:black;"/>
        <path d="M 390.5 -852.4 L 19.000000 -852.400000" style="fill:none;stroke-width:2.0;stroke:black;"/>
        <path d="M 390.5 -871.4 L 19.000000 -871.400000" style="fill:none;stroke-width:2.0;stroke:black;"/>
        <path d="M 781.0 -476.2 L 781.000000 -495.200000" style="fill:none;stroke-width:2.0;stroke:black;"/>
        <path d="M 781.0 -476.2 L 409.500000 -476.200000" style="fill:none;stroke-width:2.0;stroke:black;"/>
        <path d="M 781.0 -495.2 L 409.500000 -495.200000" style="fill:none;stroke-width:2.0;stroke:black;"/>
    </g>
</svg>
