<?xml version="1.0" encoding="UTF-8"?>
<svg viewBox="0.0 -900.0  1680.0 945.0" preserveAspectRatio="xMinYMin meet" xmlns="http://www.w3.org/2000/svg" version="1.1">
    <desc>Powered by Aleker CAD Engine</desc>
    <g id="cad" bboxX="1600" bboxY="900">
        <path d="M 1072.7 -881.0 L 1053.666667 -881.000000" style="fill:none;stroke-width:2.0;stroke:black;"/>
        <path d="M 1072.7 -219.0 L 1053.666667 -219.000000" style="fill:none;stroke-width:2.0;stroke:black;"/>
        <path d="M 1072.7 -881.0 L 1072.666667 -878.000000" style="fill:none;stroke-width:2.0;stroke:black;"/>
        <path d="M 1072.7 -222.0 L 1072.666667 -219.000000" style="fill:none;stroke-width:2.0;stroke:black;"/>
        <path d="M 1053.7 -881.0 L 1053.666667 -878.000000" style="fill:none;stroke-width:2.0;stroke:black;"/>
        <path d="M 1053.7 -222.0 L 1053.666667 -219.000000" style="fill:none;stroke-width:2.0;stroke:black;"/>
        <path d="M 20.0 -881.0 L 527.333333 -881.000000" style="fill:none;stroke-width:2.0;stroke:black;"/>
        <path d="M 527.3 -881.0 L 527.333333 -878.000000" style="fill:none;stroke-width:2.0;stroke:black;"/>
        <path d="M 527.3 -222.0 L 527.333333 -219.000000" style="fill:none;stroke-width:2.0;stroke:black;"/>
        <path d="M 527.3 -219.0 L 20.000000 -219.000000" style="fill:none;stroke-width:2.0;stroke:black;"/>
        <path d="M 20.0 -219.0 L 20.000000 -222.000000" style="fill:none;stroke-width:2.0;stroke:black;"/>
        <path d="M 20.0 -878.0 L 20.000000 -881.000000" style="fill:none;stroke-width:2.0;stroke:black;"/>
        <path d="M 1.0 -881.0 L 20.000000 -881.000000" style="fill:none;stroke-width:2.0;stroke:black;"/>
        <path d="M 1.0 -219.0 L 20.000000 -219.000000" style="fill:none;stroke-width:2.0;stroke:black;"/>
        <path d="M 1.0 -219.0 L 1.000000 -881.000000" style="fill:none;stroke-width:2.0;stroke:black;"/>
        <path d="M 20.0 -219.0 L 20.000000 -222.000000" style="fill:none;stroke-width:2.0;stroke:black;"/>
        <path d="M 20.0 -878.0 L 20.000000 -881.000000" style="fill:none;stroke-width:2.0;stroke:black;"/>
        <path d="M 1064.3 -878.0 L 535.666667 -878.000000" style="fill:none;stroke-width:2.0;stroke:black;"/>
        <path d="M 535.7 -878.0 L 535.666667 -222.000000" style="fill:none;stroke-width:2.0;stroke:black;"/>
        <path d="M 1064.3 -222.0 L 535.666667 -222.000000" style="fill:none;stroke-width:2.0;stroke:black;"/>
        <path d="M 1064.3 -878.0 L 1064.333333 -222.000000" style="fill:none;stroke-width:2.0;stroke:black;"/>
        <path d="M 1300.0 -200.0 L 1300.000000 -0.000000" style="fill:none;stroke-width:2.0;stroke:black;"/>
        <path d="M 1350.0 -200.0 L 1350.000000 -0.000000" style="fill:none;stroke-width:2.0;stroke:black;"/>
        <path d="M 1350.0 -0.0 L 1300.000000 -0.000000" style="fill:none;stroke-width:2.0;stroke:black;"/>
        <path d="M 546.3 -881.0 L 1053.666667 -881.000000" style="fill:none;stroke-width:2.0;stroke:black;"/>
        <path d="M 1053.7 -881.0 L 1053.666667 -878.000000" style="fill:none;stroke-width:2.0;stroke:black;"/>
        <path d="M 1053.7 -222.0 L 1053.666667 -219.000000" style="fill:none;stroke-width:2.0;stroke:black;"/>
        <path d="M 1053.7 -219.0 L 546.333333 -219.000000" style="fill:none;stroke-width:2.0;stroke:black;"/>
        <path d="M 546.3 -881.0 L 546.333333 -878.000000" style="fill:none;stroke-width:2.0;stroke:black;"/>
        <path d="M 546.3 -222.0 L 546.333333 -219.000000" style="fill:none;stroke-width:2.0;stroke:black;"/>
        <path d="M 462.7 -818.0 A10.0 10.0 0 0 0 442.7, -818.0" style="fill:none;stroke-width:2.0;stroke:black;"/>
        <path d="M 442.7 -818.0 A10.0 10.0 0 0 0 462.7, -818.0" style="fill:none;stroke-width:2.0;stroke:black;"/>
        <path d="M 605.7 -818.0 A10.0 10.0 0 0 1 625.7, -818.0" style="fill:none;stroke-width:2.0;stroke:black;"/>
        <path d="M 625.7 -818.0 A10.0 10.0 0 0 1 605.7, -818.0" style="fill:none;stroke-width:2.0;stroke:black;"/>
        <path d="M 250.0 -200.0 L 250.000000 -0.000000" style="fill:none;stroke-width:2.0;stroke:black;"/>
        <path d="M 300.0 -200.0 L 300.000000 -0.000000" style="fill:none;stroke-width:2.0;stroke:black;"/>
        <path d="M 300.0 -0.0 L 250.000000 -0.000000" style="fill:none;stroke-width:2.0;stroke:black;"/>
        <path d="M 1072.7 -881.0 L 1580.000000 -881.000000" style="fill:none;stroke-width:2.0;stroke:black;"/>
        <path d="M 1580.0 -881.0 L 1580.000000 -878.000000" style="fill:none;stroke-width:2.0;stroke:black;"/>
        <path d="M 1580.0 -222.0 L 1580.000000 -219.000000" style="fill:none;stroke-width:2.0;stroke:black;"/>
        <path d="M 1580.0 -219.0 L 1072.666667 -219.000000" style="fill:none;stroke-width:2.0;stroke:black;"/>
        <path d="M 1072.7 -881.0 L 1072.666667 -878.000000" style="fill:none;stroke-width:2.0;stroke:black;"/>
        <path d="M 1072.7 -222.0 L 1072.666667 -219.000000" style="fill:none;stroke-width:2.0;stroke:black;"/>
        <path d="M 1600.0 -200.0 L 1600.000000 -219.000000" style="fill:none;stroke-width:2.0;stroke:black;"/>
        <path d="M 0.0 -200.0 L 0.000000 -219.000000" style="fill:none;stroke-width:2.0;stroke:black;"/>
        <path d="M 0.0 -200.0 L 1600.000000 -200.000000" style="fill:none;stroke-width:2.0;stroke:black;"/>
        <path d="M 0.0 -219.0 L 1600.000000 -219.000000" style="fill:none;stroke-width:2.0;stroke:black;"/>
        <path d="M 4.0 -878.0 L 532.666667 -878.000000" style="fill:none;stroke-width:2.0;stroke:black;"/>
        <path d="M 4.0 -878.0 L 4.000000 -222.000000" style="fill:none;stroke-width:2.0;stroke:black;"/>
        <path d="M 4.0 -222.0 L 532.666667 -222.000000" style="fill:none;stroke-width:2.0;stroke:black;"/>
        <path d="M 532.7 -878.0 L 532.666667 -222.000000" style="fill:none;stroke-width:2.0;stroke:black;"/>
        <path d="M 1600.0 -900.0 L 1600.000000 -881.000000" style="fill:none;stroke-width:2.0;stroke:black;"/>
        <path d="M 0.0 -900.0 L 0.000000 -881.000000" style="fill:none;stroke-width:2.0;stroke:black;"/>
        <path d="M 1600.0 -900.0 L 0.000000 -900.000000" style="fill:none;stroke-width:2.0;stroke:black;"/>
        <path d="M 1600.0 -881.0 L 0.000000 -881.000000" style="fill:none;stroke-width:2.0;stroke:black;"/>
        <path d="M 1596.0 -878.0 L 1067.333333 -878.000000" style="fill:none;stroke-width:2.0;stroke:black;"/>
        <path d="M 1067.3 -878.0 L 1067.333333 -222.000000" style="fill:none;stroke-width:2.0;stroke:black;"/>
        <path d="M 1067.3 -222.0 L 1596.000000 -222.000000" style="fill:none;stroke-width:2.0;stroke:black;"/>
        <path d="M 1596.0 -878.0 L 1596.000000 -222.000000" style="fill:none;stroke-width:2.0;stroke:black;"/>
        <path d="M 546.3 -881.0 L 527.333333 -881.000000" style="fill:none;stroke-width:2.0;stroke:black;"/>
        <path d="M 546.3 -219.0 L 527.333333 -219.000000" style="fill:none;stroke-width:2.0;stroke:black;"/>
        <path d="M 546.3 -881.0 L 546.333333 -878.000000" style="fill:none;stroke-width:2.0;stroke:black;"/>
        <path d="M 546.3 -222.0 L 546.333333 -219.000000" style="fill:none;stroke-width:2.0;stroke:black;"/>
        <path d="M 527.3 -881.0 L 527.333333 -878.000000" style="fill:none;stroke-width:2.0;stroke:black;"/>
        <path d="M 527.3 -222.0 L 527.333333 -219.000000" style="fill:none;stroke-width:2.0;stroke:black;"/>
        <path d="M 1599.0 -881.0 L 1580.000000 -881.000000" style="fill:none;stroke-width:2.0;stroke:black;"/>
        <path d="M 1599.0 -219.0 L 1580.000000 -219.000000" style="fill:none;stroke-width:2.0;stroke:black;"/>
        <path d="M 1599.0 -881.0 L 1599.000000 -219.000000" style="fill:none;stroke-width:2.0;stroke:black;"/>
        <path d="M 1580.0 -881.0 L 1580.000000 -878.000000" style="fill:none;stroke-width:2.0;stroke:black;"/>
        <path d="M 1580.0 -222.0 L 1580.000000 -219.000000" style="fill:none;stroke-width:2.0;stroke:black;"/>
        <path d="M 1157.3 -818.0 A10.0 10.0 0 0 1 1177.3, -818.0" style="fill:none;stroke-width:2.0;stroke:black;"/>
        <path d="M 1177.3 -818.0 A10.0 10.0 0 0 1 1157.3, -818.0" style="fill:none;stroke-width:2.0;stroke:black;"/>
    </g>
</svg>
