<?xml version="1.0" encoding="UTF-8"?>
<svg viewBox="0.0 -900.0  630.0 945.0" preserveAspectRatio="xMinYMin meet" xmlns="http://www.w3.org/2000/svg" version="1.1">
    <desc>Powered by Aleker CAD Engine</desc>
    <g id="cad" bboxX="600" bboxY="900">
        <path d="M 1.0 -881.0 L 20.000000 -881.000000" style="fill:none;stroke-width:2.0;stroke:black;"/>
        <path d="M 1.0 -219.0 L 20.000000 -219.000000" style="fill:none;stroke-width:2.0;stroke:black;"/>
        <path d="M 1.0 -219.0 L 1.000000 -881.000000" style="fill:none;stroke-width:2.0;stroke:black;"/>
        <path d="M 20.0 -219.0 L 20.000000 -222.000000" style="fill:none;stroke-width:2.0;stroke:black;"/>
        <path d="M 20.0 -878.0 L 20.000000 -881.000000" style="fill:none;stroke-width:2.0;stroke:black;"/>
        <path d="M 500.0 -200.0 L 500.000000 -0.000000" style="fill:none;stroke-width:2.0;stroke:black;"/>
        <path d="M 550.0 -200.0 L 550.000000 -0.000000" style="fill:none;stroke-width:2.0;stroke:black;"/>
        <path d="M 550.0 -0.0 L 500.000000 -0.000000" style="fill:none;stroke-width:2.0;stroke:black;"/>
        <path d="M 580.0 -881.0 L 20.000000 -881.000000" style="fill:none;stroke-width:2.0;stroke:black;"/>
        <path d="M 20.0 -219.0 L 580.000000 -219.000000" style="fill:none;stroke-width:2.0;stroke:black;"/>
        <path d="M 50.0 -200.0 L 50.000000 -0.000000" style="fill:none;stroke-width:2.0;stroke:black;"/>
        <path d="M 100.0 -200.0 L 100.000000 -0.000000" style="fill:none;stroke-width:2.0;stroke:black;"/>
        <path d="M 100.0 -0.0 L 50.000000 -0.000000" style="fill:none;stroke-width:2.0;stroke:black;"/>
        <path d="M 94.0 -818.0 A10.0 10.0 0 0 1 114.0, -818.0" style="fill:none;stroke-width:2.0;stroke:black;"/>
        <path d="M 114.0 -818.0 A10.0 10.0 0 0 1 94.0, -818.0" style="fill:none;stroke-width:2.0;stroke:black;"/>
        <path d="M 600.0 -200.0 L 600.000000 -219.000000" style="fill:none;stroke-width:2.0;stroke:black;"/>
        <path d="M 0.0 -200.0 L 0.000000 -219.000000" style="fill:none;stroke-width:2.0;stroke:black;"/>
        <path d="M 0.0 -200.0 L 600.000000 -200.000000" style="fill:none;stroke-width:2.0;stroke:black;"/>
        <path d="M 0.0 -219.0 L 600.000000 -219.000000" style="fill:none;stroke-width:2.0;stroke:black;"/>
        <path d="M 600.0 -900.0 L 600.000000 -881.000000" style="fill:none;stroke-width:2.0;stroke:black;"/>
        <path d="M 0.0 -900.0 L 0.000000 -881.000000" style="fill:none;stroke-width:2.0;stroke:black;"/>
        <path d="M 600.0 -900.0 L 0.000000 -900.000000" style="fill:none;stroke-width:2.0;stroke:black;"/>
        <path d="M 600.0 -881.0 L 0.000000 -881.000000" style="fill:none;stroke-width:2.0;stroke:black;"/>
        <path d="M 596.0 -878.0 L 4.000000 -878.000000" style="fill:none;stroke-width:2.0;stroke:black;"/>
        <path d="M 4.0 -878.0 L 4.000000 -222.000000" style="fill:none;stroke-width:2.0;stroke:black;"/>
        <path d="M 4.0 -222.0 L 596.000000 -222.000000" style="fill:none;stroke-width:2.0;stroke:black;"/>
        <path d="M 596.0 -878.0 L 596.000000 -222.000000" style="fill:none;stroke-width:2.0;stroke:black;"/>
        <path d="M 599.0 -881.0 L 580.000000 -881.000000" style="fill:none;stroke-width:2.0;stroke:black;"/>
        <path d="M 599.0 -219.0 L 580.000000 -219.000000" style="fill:none;stroke-width:2.0;stroke:black;"/>
        <path d="M 599.0 -881.0 L 599.000000 -219.000000" style="fill:none;stroke-width:2.0;stroke:black;"/>
        <path d="M 580.0 -881.0 L 580.000000 -878.000000" style="fill:none;stroke-width:2.0;stroke:black;"/>
        <path d="M 580.0 -222.0 L 580.000000 -219.000000" style="fill:none;stroke-width:2.0;stroke:black;"/>
    </g>
</svg>
