<?xml version="1.0" encoding="UTF-8"?>
<svg viewBox="0.0 -950.0  1680.0 997.5" preserveAspectRatio="xMinYMin meet" xmlns="http://www.w3.org/2000/svg" version="1.1">
    <desc>Powered by Aleker CAD Engine</desc>
    <g id="cad" bboxX="1600" bboxY="950">
        <path d="M 798.5 -691.7 L 1.000000 -691.666667" style="fill:none;stroke-width:2.0;stroke:black;"/>
        <path d="M 1.0 -458.3 L 1.000000 -691.666667" style="fill:none;stroke-width:2.0;stroke:black;"/>
        <path d="M 798.5 -458.3 L 1.000000 -458.333333" style="fill:none;stroke-width:2.0;stroke:black;"/>
        <path d="M 798.5 -691.7 L 798.500000 -458.333333" style="fill:none;stroke-width:2.0;stroke:black;"/>
        <path d="M 1.0 -931.0 L 20.000000 -931.000000" style="fill:none;stroke-width:2.0;stroke:black;"/>
        <path d="M 1.0 -219.0 L 20.000000 -219.000000" style="fill:none;stroke-width:2.0;stroke:black;"/>
        <path d="M 1.0 -219.0 L 1.000000 -222.000000" style="fill:none;stroke-width:2.0;stroke:black;"/>
        <path d="M 1.0 -455.3 L 1.000000 -458.333333" style="fill:none;stroke-width:2.0;stroke:black;"/>
        <path d="M 1.0 -691.7 L 1.000000 -694.666667" style="fill:none;stroke-width:2.0;stroke:black;"/>
        <path d="M 1.0 -928.0 L 1.000000 -931.000000" style="fill:none;stroke-width:2.0;stroke:black;"/>
        <path d="M 20.0 -219.0 L 20.000000 -222.000000" style="fill:none;stroke-width:2.0;stroke:black;"/>
        <path d="M 20.0 -455.3 L 20.000000 -458.333333" style="fill:none;stroke-width:2.0;stroke:black;"/>
        <path d="M 20.0 -691.7 L 20.000000 -694.666667" style="fill:none;stroke-width:2.0;stroke:black;"/>
        <path d="M 20.0 -928.0 L 20.000000 -931.000000" style="fill:none;stroke-width:2.0;stroke:black;"/>
        <path d="M 1599.0 -928.0 L 801.500000 -928.000000" style="fill:none;stroke-width:2.0;stroke:black;"/>
        <path d="M 801.5 -928.0 L 801.500000 -694.666667" style="fill:none;stroke-width:2.0;stroke:black;"/>
        <path d="M 1599.0 -694.7 L 801.500000 -694.666667" style="fill:none;stroke-width:2.0;stroke:black;"/>
        <path d="M 1599.0 -928.0 L 1599.000000 -694.666667" style="fill:none;stroke-width:2.0;stroke:black;"/>
        <path d="M 1400.0 -200.0 L 1400.000000 -0.000000" style="fill:none;stroke-width:2.0;stroke:black;"/>
        <path d="M 1450.0 -200.0 L 1450.000000 -0.000000" style="fill:none;stroke-width:2.0;stroke:black;"/>
        <path d="M 1450.0 -0.0 L 1400.000000 -0.000000" style="fill:none;stroke-width:2.0;stroke:black;"/>
        <path d="M 798.5 -455.3 L 1.000000 -455.333333" style="fill:none;stroke-width:2.0;stroke:black;"/>
        <path d="M 1.0 -222.0 L 1.000000 -455.333333" style="fill:none;stroke-width:2.0;stroke:black;"/>
        <path d="M 1.0 -222.0 L 798.500000 -222.000000" style="fill:none;stroke-width:2.0;stroke:black;"/>
        <path d="M 798.5 -455.3 L 798.500000 -222.000000" style="fill:none;stroke-width:2.0;stroke:black;"/>
        <path d="M 1580.0 -931.0 L 809.500000 -931.000000" style="fill:none;stroke-width:2.0;stroke:black;"/>
        <path d="M 790.5 -931.0 L 20.000000 -931.000000" style="fill:none;stroke-width:2.0;stroke:black;"/>
        <path d="M 20.0 -219.0 L 790.500000 -219.000000" style="fill:none;stroke-width:2.0;stroke:black;"/>
        <path d="M 809.5 -219.0 L 1580.000000 -219.000000" style="fill:none;stroke-width:2.0;stroke:black;"/>
        <path d="M 150.0 -200.0 L 150.000000 -0.000000" style="fill:none;stroke-width:2.0;stroke:black;"/>
        <path d="M 200.0 -200.0 L 200.000000 -0.000000" style="fill:none;stroke-width:2.0;stroke:black;"/>
        <path d="M 200.0 -0.0 L 150.000000 -0.000000" style="fill:none;stroke-width:2.0;stroke:black;"/>
        <path d="M 1600.0 -200.0 L 1600.000000 -219.000000" style="fill:none;stroke-width:2.0;stroke:black;"/>
        <path d="M 0.0 -200.0 L 0.000000 -219.000000" style="fill:none;stroke-width:2.0;stroke:black;"/>
        <path d="M 0.0 -200.0 L 1600.000000 -200.000000" style="fill:none;stroke-width:2.0;stroke:black;"/>
        <path d="M 0.0 -219.0 L 1600.000000 -219.000000" style="fill:none;stroke-width:2.0;stroke:black;"/>
        <path d="M 809.5 -931.0 L 790.500000 -931.000000" style="fill:none;stroke-width:2.0;stroke:black;"/>
        <path d="M 809.5 -219.0 L 790.500000 -219.000000" style="fill:none;stroke-width:2.0;stroke:black;"/>
        <path d="M 809.5 -931.0 L 809.500000 -928.000000" style="fill:none;stroke-width:2.0;stroke:black;"/>
        <path d="M 809.5 -694.7 L 809.500000 -691.666667" style="fill:none;stroke-width:2.0;stroke:black;"/>
        <path d="M 809.5 -458.3 L 809.500000 -455.333333" style="fill:none;stroke-width:2.0;stroke:black;"/>
        <path d="M 809.5 -222.0 L 809.500000 -219.000000" style="fill:none;stroke-width:2.0;stroke:black;"/>
        <path d="M 790.5 -931.0 L 790.500000 -928.000000" style="fill:none;stroke-width:2.0;stroke:black;"/>
        <path d="M 790.5 -694.7 L 790.500000 -691.666667" style="fill:none;stroke-width:2.0;stroke:black;"/>
        <path d="M 790.5 -458.3 L 790.500000 -455.333333" style="fill:none;stroke-width:2.0;stroke:black;"/>
        <path d="M 790.5 -222.0 L 790.500000 -219.000000" style="fill:none;stroke-width:2.0;stroke:black;"/>
        <path d="M 1600.0 -950.0 L 1600.000000 -931.000000" style="fill:none;stroke-width:2.0;stroke:black;"/>
        <path d="M 0.0 -950.0 L 0.000000 -931.000000" style="fill:none;stroke-width:2.0;stroke:black;"/>
        <path d="M 1600.0 -950.0 L 0.000000 -950.000000" style="fill:none;stroke-width:2.0;stroke:black;"/>
        <path d="M 1600.0 -931.0 L 0.000000 -931.000000" style="fill:none;stroke-width:2.0;stroke:black;"/>
        <path d="M 798.5 -928.0 L 1.000000 -928.000000" style="fill:none;stroke-width:2.0;stroke:black;"/>
        <path d="M 1.0 -694.7 L 1.000000 -928.000000" style="fill:none;stroke-width:2.0;stroke:black;"/>
        <path d="M 798.5 -694.7 L 1.000000 -694.666667" style="fill:none;stroke-width:2.0;stroke:black;"/>
        <path d="M 798.5 -928.0 L 798.500000 -694.666667" style="fill:none;stroke-width:2.0;stroke:black;"/>
        <path d="M 1599.0 -455.3 L 801.500000 -455.333333" style="fill:none;stroke-width:2.0;stroke:black;"/>
        <path d="M 801.5 -455.3 L 801.500000 -222.000000" style="fill:none;stroke-width:2.0;stroke:black;"/>
        <path d="M 801.5 -222.0 L 1599.000000 -222.000000" style="fill:none;stroke-width:2.0;stroke:black;"/>
        <path d="M 1599.0 -455.3 L 1599.000000 -222.000000" style="fill:none;stroke-width:2.0;stroke:black;"/>
        <path d="M 1599.0 -691.7 L 801.500000 -691.666667" style="fill:none;stroke-width:2.0;stroke:black;"/>
        <path d="M 801.5 -691.7 L 801.500000 -458.333333" style="fill:none;stroke-width:2.0;stroke:black;"/>
        <path d="M 1599.0 -458.3 L 801.500000 -458.333333" style="fill:none;stroke-width:2.0;stroke:black;"/>
        <path d="M 1599.0 -691.7 L 1599.000000 -458.333333" style="fill:none;stroke-width:2.0;stroke:black;"/>
        <path d="M 1599.0 -931.0 L 1580.000000 -931.000000" style="fill:none;stroke-width:2.0;stroke:black;"/>
        <path d="M 1599.0 -219.0 L 1580.000000 -219.000000" style="fill:none;stroke-width:2.0;stroke:black;"/>
        <path d="M 1599.0 -931.0 L 1599.000000 -928.000000" style="fill:none;stroke-width:2.0;stroke:black;"/>
        <path d="M 1599.0 -694.7 L 1599.000000 -691.666667" style="fill:none;stroke-width:2.0;stroke:black;"/>
        <path d="M 1599.0 -458.3 L 1599.000000 -455.333333" style="fill:none;stroke-width:2.0;stroke:black;"/>
        <path d="M 1599.0 -222.0 L 1599.000000 -219.000000" style="fill:none;stroke-width:2.0;stroke:black;"/>
        <path d="M 1580.0 -931.0 L 1580.000000 -928.000000" style="fill:none;stroke-width:2.0;stroke:black;"/>
        <path d="M 1580.0 -694.7 L 1580.000000 -691.666667" style="fill:none;stroke-width:2.0;stroke:black;"/>
        <path d="M 1580.0 -458.3 L 1580.000000 -455.333333" style="fill:none;stroke-width:2.0;stroke:black;"/>
        <path d="M 1580.0 -222.0 L 1580.000000 -219.000000" style="fill:none;stroke-width:2.0;stroke:black;"/>
    </g>
</svg>
