<?xml version="1.0" encoding="UTF-8"?>
<svg viewBox="0.0 -950.0  1680.0 997.5" preserveAspectRatio="xMinYMin meet" xmlns="http://www.w3.org/2000/svg" version="1.1">
    <desc>Powered by Aleker CAD Engine</desc>
    <g id="cad" bboxX="1600" bboxY="950">
        <path d="M 1065.3 -455.3 L 534.666667 -455.333333" style="fill:none;stroke-width:2.0;stroke:black;"/>
        <path d="M 534.7 -455.3 L 534.666667 -222.000000" style="fill:none;stroke-width:2.0;stroke:black;"/>
        <path d="M 534.7 -222.0 L 1065.333333 -222.000000" style="fill:none;stroke-width:2.0;stroke:black;"/>
        <path d="M 1065.3 -455.3 L 1065.333333 -222.000000" style="fill:none;stroke-width:2.0;stroke:black;"/>
        <path d="M 1.0 -931.0 L 20.000000 -931.000000" style="fill:none;stroke-width:2.0;stroke:black;"/>
        <path d="M 1.0 -219.0 L 20.000000 -219.000000" style="fill:none;stroke-width:2.0;stroke:black;"/>
        <path d="M 1.0 -219.0 L 1.000000 -222.000000" style="fill:none;stroke-width:2.0;stroke:black;"/>
        <path d="M 1.0 -455.3 L 1.000000 -458.333333" style="fill:none;stroke-width:2.0;stroke:black;"/>
        <path d="M 1.0 -691.7 L 1.000000 -694.666667" style="fill:none;stroke-width:2.0;stroke:black;"/>
        <path d="M 1.0 -928.0 L 1.000000 -931.000000" style="fill:none;stroke-width:2.0;stroke:black;"/>
        <path d="M 20.0 -219.0 L 20.000000 -222.000000" style="fill:none;stroke-width:2.0;stroke:black;"/>
        <path d="M 20.0 -455.3 L 20.000000 -458.333333" style="fill:none;stroke-width:2.0;stroke:black;"/>
        <path d="M 20.0 -691.7 L 20.000000 -694.666667" style="fill:none;stroke-width:2.0;stroke:black;"/>
        <path d="M 20.0 -928.0 L 20.000000 -931.000000" style="fill:none;stroke-width:2.0;stroke:black;"/>
        <path d="M 531.7 -928.0 L 531.666667 -694.666667" style="fill:none;stroke-width:2.0;stroke:black;"/>
        <path d="M 531.7 -928.0 L 1.000000 -928.000000" style="fill:none;stroke-width:2.0;stroke:black;"/>
        <path d="M 1.0 -694.7 L 1.000000 -928.000000" style="fill:none;stroke-width:2.0;stroke:black;"/>
        <path d="M 531.7 -694.7 L 1.000000 -694.666667" style="fill:none;stroke-width:2.0;stroke:black;"/>
        <path d="M 531.7 -455.3 L 1.000000 -455.333333" style="fill:none;stroke-width:2.0;stroke:black;"/>
        <path d="M 1.0 -222.0 L 1.000000 -455.333333" style="fill:none;stroke-width:2.0;stroke:black;"/>
        <path d="M 1.0 -222.0 L 531.666667 -222.000000" style="fill:none;stroke-width:2.0;stroke:black;"/>
        <path d="M 531.7 -455.3 L 531.666667 -222.000000" style="fill:none;stroke-width:2.0;stroke:black;"/>
        <path d="M 1599.0 -928.0 L 1068.333333 -928.000000" style="fill:none;stroke-width:2.0;stroke:black;"/>
        <path d="M 1068.3 -928.0 L 1068.333333 -694.666667" style="fill:none;stroke-width:2.0;stroke:black;"/>
        <path d="M 1599.0 -694.7 L 1068.333333 -694.666667" style="fill:none;stroke-width:2.0;stroke:black;"/>
        <path d="M 1599.0 -928.0 L 1599.000000 -694.666667" style="fill:none;stroke-width:2.0;stroke:black;"/>
        <path d="M 1300.0 -200.0 L 1300.000000 -0.000000" style="fill:none;stroke-width:2.0;stroke:black;"/>
        <path d="M 1350.0 -200.0 L 1350.000000 -0.000000" style="fill:none;stroke-width:2.0;stroke:black;"/>
        <path d="M 1350.0 -0.0 L 1300.000000 -0.000000" style="fill:none;stroke-width:2.0;stroke:black;"/>
        <path d="M 1065.3 -691.7 L 534.666667 -691.666667" style="fill:none;stroke-width:2.0;stroke:black;"/>
        <path d="M 534.7 -691.7 L 534.666667 -458.333333" style="fill:none;stroke-width:2.0;stroke:black;"/>
        <path d="M 1065.3 -458.3 L 534.666667 -458.333333" style="fill:none;stroke-width:2.0;stroke:black;"/>
        <path d="M 1065.3 -691.7 L 1065.333333 -458.333333" style="fill:none;stroke-width:2.0;stroke:black;"/>
        <path d="M 1580.0 -931.0 L 1072.666667 -931.000000" style="fill:none;stroke-width:2.0;stroke:black;"/>
        <path d="M 1053.7 -931.0 L 546.333333 -931.000000" style="fill:none;stroke-width:2.0;stroke:black;"/>
        <path d="M 527.3 -931.0 L 20.000000 -931.000000" style="fill:none;stroke-width:2.0;stroke:black;"/>
        <path d="M 20.0 -219.0 L 527.333333 -219.000000" style="fill:none;stroke-width:2.0;stroke:black;"/>
        <path d="M 546.3 -219.0 L 1053.666667 -219.000000" style="fill:none;stroke-width:2.0;stroke:black;"/>
        <path d="M 1072.7 -219.0 L 1580.000000 -219.000000" style="fill:none;stroke-width:2.0;stroke:black;"/>
        <path d="M 250.0 -200.0 L 250.000000 -0.000000" style="fill:none;stroke-width:2.0;stroke:black;"/>
        <path d="M 300.0 -200.0 L 300.000000 -0.000000" style="fill:none;stroke-width:2.0;stroke:black;"/>
        <path d="M 300.0 -0.0 L 250.000000 -0.000000" style="fill:none;stroke-width:2.0;stroke:black;"/>
        <path d="M 1072.7 -931.0 L 1053.666667 -931.000000" style="fill:none;stroke-width:2.0;stroke:black;"/>
        <path d="M 1072.7 -219.0 L 1053.666667 -219.000000" style="fill:none;stroke-width:2.0;stroke:black;"/>
        <path d="M 1072.7 -931.0 L 1072.666667 -928.000000" style="fill:none;stroke-width:2.0;stroke:black;"/>
        <path d="M 1072.7 -694.7 L 1072.666667 -691.666667" style="fill:none;stroke-width:2.0;stroke:black;"/>
        <path d="M 1072.7 -458.3 L 1072.666667 -455.333333" style="fill:none;stroke-width:2.0;stroke:black;"/>
        <path d="M 1072.7 -222.0 L 1072.666667 -219.000000" style="fill:none;stroke-width:2.0;stroke:black;"/>
        <path d="M 1053.7 -931.0 L 1053.666667 -928.000000" style="fill:none;stroke-width:2.0;stroke:black;"/>
        <path d="M 1053.7 -694.7 L 1053.666667 -691.666667" style="fill:none;stroke-width:2.0;stroke:black;"/>
        <path d="M 1053.7 -458.3 L 1053.666667 -455.333333" style="fill:none;stroke-width:2.0;stroke:black;"/>
        <path d="M 1053.7 -222.0 L 1053.666667 -219.000000" style="fill:none;stroke-width:2.0;stroke:black;"/>
        <path d="M 1600.0 -200.0 L 1600.000000 -219.000000" style="fill:none;stroke-width:2.0;stroke:black;"/>
        <path d="M 0.0 -200.0 L 0.000000 -219.000000" style="fill:none;stroke-width:2.0;stroke:black;"/>
        <path d="M 0.0 -200.0 L 1600.000000 -200.000000" style="fill:none;stroke-width:2.0;stroke:black;"/>
        <path d="M 0.0 -219.0 L 1600.000000 -219.000000" style="fill:none;stroke-width:2.0;stroke:black;"/>
        <path d="M 1599.0 -455.3 L 1068.333333 -455.333333" style="fill:none;stroke-width:2.0;stroke:black;"/>
        <path d="M 1068.3 -455.3 L 1068.333333 -222.000000" style="fill:none;stroke-width:2.0;stroke:black;"/>
        <path d="M 1068.3 -222.0 L 1599.000000 -222.000000" style="fill:none;stroke-width:2.0;stroke:black;"/>
        <path d="M 1599.0 -455.3 L 1599.000000 -222.000000" style="fill:none;stroke-width:2.0;stroke:black;"/>
        <path d="M 1599.0 -691.7 L 1068.333333 -691.666667" style="fill:none;stroke-width:2.0;stroke:black;"/>
        <path d="M 1068.3 -691.7 L 1068.333333 -458.333333" style="fill:none;stroke-width:2.0;stroke:black;"/>
        <path d="M 1599.0 -458.3 L 1068.333333 -458.333333" style="fill:none;stroke-width:2.0;stroke:black;"/>
        <path d="M 1599.0 -691.7 L 1599.000000 -458.333333" style="fill:none;stroke-width:2.0;stroke:black;"/>
        <path d="M 1600.0 -950.0 L 1600.000000 -931.000000" style="fill:none;stroke-width:2.0;stroke:black;"/>
        <path d="M 0.0 -950.0 L 0.000000 -931.000000" style="fill:none;stroke-width:2.0;stroke:black;"/>
        <path d="M 1600.0 -950.0 L 0.000000 -950.000000" style="fill:none;stroke-width:2.0;stroke:black;"/>
        <path d="M 1600.0 -931.0 L 0.000000 -931.000000" style="fill:none;stroke-width:2.0;stroke:black;"/>
        <path d="M 531.7 -691.7 L 1.000000 -691.666667" style="fill:none;stroke-width:2.0;stroke:black;"/>
        <path d="M 1.0 -458.3 L 1.000000 -691.666667" style="fill:none;stroke-width:2.0;stroke:black;"/>
        <path d="M 531.7 -458.3 L 1.000000 -458.333333" style="fill:none;stroke-width:2.0;stroke:black;"/>
        <path d="M 531.7 -691.7 L 531.666667 -458.333333" style="fill:none;stroke-width:2.0;stroke:black;"/>
        <path d="M 546.3 -931.0 L 527.333333 -931.000000" style="fill:none;stroke-width:2.0;stroke:black;"/>
        <path d="M 546.3 -219.0 L 527.333333 -219.000000" style="fill:none;stroke-width:2.0;stroke:black;"/>
        <path d="M 546.3 -931.0 L 546.333333 -928.000000" style="fill:none;stroke-width:2.0;stroke:black;"/>
        <path d="M 546.3 -694.7 L 546.333333 -691.666667" style="fill:none;stroke-width:2.0;stroke:black;"/>
        <path d="M 546.3 -458.3 L 546.333333 -455.333333" style="fill:none;stroke-width:2.0;stroke:black;"/>
        <path d="M 546.3 -222.0 L 546.333333 -219.000000" style="fill:none;stroke-width:2.0;stroke:black;"/>
        <path d="M 527.3 -931.0 L 527.333333 -928.000000" style="fill:none;stroke-width:2.0;stroke:black;"/>
        <path d="M 527.3 -694.7 L 527.333333 -691.666667" style="fill:none;stroke-width:2.0;stroke:black;"/>
        <path d="M 527.3 -458.3 L 527.333333 -455.333333" style="fill:none;stroke-width:2.0;stroke:black;"/>
        <path d="M 527.3 -222.0 L 527.333333 -219.000000" style="fill:none;stroke-width:2.0;stroke:black;"/>
        <path d="M 1599.0 -931.0 L 1580.000000 -931.000000" style="fill:none;stroke-width:2.0;stroke:black;"/>
        <path d="M 1599.0 -219.0 L 1580.000000 -219.000000" style="fill:none;stroke-width:2.0;stroke:black;"/>
        <path d="M 1599.0 -931.0 L 1599.000000 -928.000000" style="fill:none;stroke-width:2.0;stroke:black;"/>
        <path d="M 1599.0 -694.7 L 1599.000000 -691.666667" style="fill:none;stroke-width:2.0;stroke:black;"/>
        <path d="M 1599.0 -458.3 L 1599.000000 -455.333333" style="fill:none;stroke-width:2.0;stroke:black;"/>
        <path d="M 1599.0 -222.0 L 1599.000000 -219.000000" style="fill:none;stroke-width:2.0;stroke:black;"/>
        <path d="M 1580.0 -931.0 L 1580.000000 -928.000000" style="fill:none;stroke-width:2.0;stroke:black;"/>
        <path d="M 1580.0 -694.7 L 1580.000000 -691.666667" style="fill:none;stroke-width:2.0;stroke:black;"/>
        <path d="M 1580.0 -458.3 L 1580.000000 -455.333333" style="fill:none;stroke-width:2.0;stroke:black;"/>
        <path d="M 1580.0 -222.0 L 1580.000000 -219.000000" style="fill:none;stroke-width:2.0;stroke:black;"/>
        <path d="M 1065.3 -928.0 L 534.666667 -928.000000" style="fill:none;stroke-width:2.0;stroke:black;"/>
        <path d="M 534.7 -928.0 L 534.666667 -694.666667" style="fill:none;stroke-width:2.0;stroke:black;"/>
        <path d="M 1065.3 -694.7 L 534.666667 -694.666667" style="fill:none;stroke-width:2.0;stroke:black;"/>
        <path d="M 1065.3 -928.0 L 1065.333333 -694.666667" style="fill:none;stroke-width:2.0;stroke:black;"/>
    </g>
</svg>
