<?xml version="1.0" encoding="UTF-8"?>
<svg viewBox="0.0 -900.0  945.0 945.0" preserveAspectRatio="xMinYMin meet" xmlns="http://www.w3.org/2000/svg" version="1.1">
    <desc>Powered by Aleker CAD Engine</desc>
    <g id="cad" bboxX="900" bboxY="900">
        <path d="M 1.0 -881.0 L 20.000000 -881.000000" style="fill:none;stroke-width:2.0;stroke:black;"/>
        <path d="M 1.0 -219.0 L 20.000000 -219.000000" style="fill:none;stroke-width:2.0;stroke:black;"/>
        <path d="M 1.0 -219.0 L 1.000000 -881.000000" style="fill:none;stroke-width:2.0;stroke:black;"/>
        <path d="M 20.0 -219.0 L 20.000000 -881.000000" style="fill:none;stroke-width:2.0;stroke:black;"/>
        <path d="M 800.0 -200.0 L 800.000000 -0.000000" style="fill:none;stroke-width:2.0;stroke:black;"/>
        <path d="M 850.0 -200.0 L 850.000000 -0.000000" style="fill:none;stroke-width:2.0;stroke:black;"/>
        <path d="M 850.0 -0.0 L 800.000000 -0.000000" style="fill:none;stroke-width:2.0;stroke:black;"/>
        <path d="M 880.0 -881.0 L 879.500000 -881.000000" style="fill:none;stroke-width:2.0;stroke:black;"/>
        <path d="M 20.5 -881.0 L 20.000000 -881.000000" style="fill:none;stroke-width:2.0;stroke:black;"/>
        <path d="M 20.0 -219.0 L 20.500000 -219.000000" style="fill:none;stroke-width:2.0;stroke:black;"/>
        <path d="M 879.5 -219.0 L 880.000000 -219.000000" style="fill:none;stroke-width:2.0;stroke:black;"/>
        <path d="M 50.0 -200.0 L 50.000000 -0.000000" style="fill:none;stroke-width:2.0;stroke:black;"/>
        <path d="M 100.0 -200.0 L 100.000000 -0.000000" style="fill:none;stroke-width:2.0;stroke:black;"/>
        <path d="M 100.0 -0.0 L 50.000000 -0.000000" style="fill:none;stroke-width:2.0;stroke:black;"/>
        <path d="M 900.0 -200.0 L 900.000000 -219.000000" style="fill:none;stroke-width:2.0;stroke:black;"/>
        <path d="M 0.0 -200.0 L 0.000000 -219.000000" style="fill:none;stroke-width:2.0;stroke:black;"/>
        <path d="M 0.0 -200.0 L 900.000000 -200.000000" style="fill:none;stroke-width:2.0;stroke:black;"/>
        <path d="M 0.0 -219.0 L 900.000000 -219.000000" style="fill:none;stroke-width:2.0;stroke:black;"/>
        <path d="M 879.0 -654.0 L 879.000000 -673.000000" style="fill:none;stroke-width:2.0;stroke:black;"/>
        <path d="M 21.0 -654.0 L 21.000000 -673.000000" style="fill:none;stroke-width:2.0;stroke:black;"/>
        <path d="M 879.0 -654.0 L 21.000000 -654.000000" style="fill:none;stroke-width:2.0;stroke:black;"/>
        <path d="M 879.0 -673.0 L 21.000000 -673.000000" style="fill:none;stroke-width:2.0;stroke:black;"/>
        <path d="M 900.0 -900.0 L 900.000000 -881.000000" style="fill:none;stroke-width:2.0;stroke:black;"/>
        <path d="M 0.0 -900.0 L 0.000000 -881.000000" style="fill:none;stroke-width:2.0;stroke:black;"/>
        <path d="M 900.0 -900.0 L 0.000000 -900.000000" style="fill:none;stroke-width:2.0;stroke:black;"/>
        <path d="M 900.0 -881.0 L 0.000000 -881.000000" style="fill:none;stroke-width:2.0;stroke:black;"/>
        <path d="M 899.0 -881.0 L 880.000000 -881.000000" style="fill:none;stroke-width:2.0;stroke:black;"/>
        <path d="M 899.0 -219.0 L 880.000000 -219.000000" style="fill:none;stroke-width:2.0;stroke:black;"/>
        <path d="M 899.0 -881.0 L 899.000000 -219.000000" style="fill:none;stroke-width:2.0;stroke:black;"/>
        <path d="M 880.0 -881.0 L 880.000000 -219.000000" style="fill:none;stroke-width:2.0;stroke:black;"/>
        <path d="M 20.5 -219.0 L 20.500000 -881.000000" style="fill:none;stroke-width:2.0;stroke:black;"/>
        <path d="M 20.5 -881.0 L 879.500000 -881.000000" style="fill:none;stroke-width:2.0;stroke:black;"/>
        <path d="M 879.5 -881.0 L 879.500000 -219.000000" style="fill:none;stroke-width:2.0;stroke:black;"/>
        <path d="M 879.5 -219.0 L 20.500000 -219.000000" style="fill:none;stroke-width:2.0;stroke:black;"/>
        <path d="M 879.0 -427.0 L 879.000000 -446.000000" style="fill:none;stroke-width:2.0;stroke:black;"/>
        <path d="M 21.0 -427.0 L 21.000000 -446.000000" style="fill:none;stroke-width:2.0;stroke:black;"/>
        <path d="M 879.0 -427.0 L 21.000000 -427.000000" style="fill:none;stroke-width:2.0;stroke:black;"/>
        <path d="M 879.0 -446.0 L 21.000000 -446.000000" style="fill:none;stroke-width:2.0;stroke:black;"/>
    </g>
</svg>
