<?xml version="1.0" encoding="UTF-8"?>
<svg viewBox="0.0 -900.0  1260.0 945.0" preserveAspectRatio="xMinYMin meet" xmlns="http://www.w3.org/2000/svg" version="1.1">
    <desc>Powered by Aleker CAD Engine</desc>
    <g id="cad" bboxX="1200" bboxY="900">
        <path d="M 1.0 -881.0 L 20.000000 -881.000000" style="fill:none;stroke-width:2.0;stroke:black;"/>
        <path d="M 1.0 -219.0 L 20.000000 -219.000000" style="fill:none;stroke-width:2.0;stroke:black;"/>
        <path d="M 1.0 -219.0 L 1.000000 -881.000000" style="fill:none;stroke-width:2.0;stroke:black;"/>
        <path d="M 20.0 -219.0 L 20.000000 -881.000000" style="fill:none;stroke-width:2.0;stroke:black;"/>
        <path d="M 1000.0 -200.0 L 1000.000000 -0.000000" style="fill:none;stroke-width:2.0;stroke:black;"/>
        <path d="M 1050.0 -200.0 L 1050.000000 -0.000000" style="fill:none;stroke-width:2.0;stroke:black;"/>
        <path d="M 1050.0 -0.0 L 1000.000000 -0.000000" style="fill:none;stroke-width:2.0;stroke:black;"/>
        <path d="M 1179.0 -654.0 L 1179.000000 -673.000000" style="fill:none;stroke-width:2.0;stroke:black;"/>
        <path d="M 610.5 -654.0 L 610.500000 -673.000000" style="fill:none;stroke-width:2.0;stroke:black;"/>
        <path d="M 1179.0 -654.0 L 610.500000 -654.000000" style="fill:none;stroke-width:2.0;stroke:black;"/>
        <path d="M 1179.0 -673.0 L 610.500000 -673.000000" style="fill:none;stroke-width:2.0;stroke:black;"/>
        <path d="M 1180.0 -881.0 L 609.500000 -881.000000" style="fill:none;stroke-width:2.0;stroke:black;"/>
        <path d="M 590.5 -881.0 L 20.000000 -881.000000" style="fill:none;stroke-width:2.0;stroke:black;"/>
        <path d="M 20.0 -219.0 L 590.500000 -219.000000" style="fill:none;stroke-width:2.0;stroke:black;"/>
        <path d="M 609.5 -219.0 L 1180.000000 -219.000000" style="fill:none;stroke-width:2.0;stroke:black;"/>
        <path d="M 589.5 -654.0 L 589.500000 -673.000000" style="fill:none;stroke-width:2.0;stroke:black;"/>
        <path d="M 21.0 -654.0 L 21.000000 -673.000000" style="fill:none;stroke-width:2.0;stroke:black;"/>
        <path d="M 589.5 -654.0 L 21.000000 -654.000000" style="fill:none;stroke-width:2.0;stroke:black;"/>
        <path d="M 589.5 -673.0 L 21.000000 -673.000000" style="fill:none;stroke-width:2.0;stroke:black;"/>
        <path d="M 150.0 -200.0 L 150.000000 -0.000000" style="fill:none;stroke-width:2.0;stroke:black;"/>
        <path d="M 200.0 -200.0 L 200.000000 -0.000000" style="fill:none;stroke-width:2.0;stroke:black;"/>
        <path d="M 200.0 -0.0 L 150.000000 -0.000000" style="fill:none;stroke-width:2.0;stroke:black;"/>
        <path d="M 1200.0 -200.0 L 1200.000000 -219.000000" style="fill:none;stroke-width:2.0;stroke:black;"/>
        <path d="M 0.0 -200.0 L 0.000000 -219.000000" style="fill:none;stroke-width:2.0;stroke:black;"/>
        <path d="M 0.0 -200.0 L 1200.000000 -200.000000" style="fill:none;stroke-width:2.0;stroke:black;"/>
        <path d="M 0.0 -219.0 L 1200.000000 -219.000000" style="fill:none;stroke-width:2.0;stroke:black;"/>
        <path d="M 1200.0 -900.0 L 1200.000000 -881.000000" style="fill:none;stroke-width:2.0;stroke:black;"/>
        <path d="M 0.0 -900.0 L 0.000000 -881.000000" style="fill:none;stroke-width:2.0;stroke:black;"/>
        <path d="M 1200.0 -900.0 L 0.000000 -900.000000" style="fill:none;stroke-width:2.0;stroke:black;"/>
        <path d="M 1200.0 -881.0 L 0.000000 -881.000000" style="fill:none;stroke-width:2.0;stroke:black;"/>
        <path d="M 1179.0 -427.0 L 1179.000000 -446.000000" style="fill:none;stroke-width:2.0;stroke:black;"/>
        <path d="M 610.5 -427.0 L 610.500000 -446.000000" style="fill:none;stroke-width:2.0;stroke:black;"/>
        <path d="M 1179.0 -427.0 L 610.500000 -427.000000" style="fill:none;stroke-width:2.0;stroke:black;"/>
        <path d="M 1179.0 -446.0 L 610.500000 -446.000000" style="fill:none;stroke-width:2.0;stroke:black;"/>
        <path d="M 589.5 -427.0 L 589.500000 -446.000000" style="fill:none;stroke-width:2.0;stroke:black;"/>
        <path d="M 21.0 -427.0 L 21.000000 -446.000000" style="fill:none;stroke-width:2.0;stroke:black;"/>
        <path d="M 589.5 -427.0 L 21.000000 -427.000000" style="fill:none;stroke-width:2.0;stroke:black;"/>
        <path d="M 589.5 -446.0 L 21.000000 -446.000000" style="fill:none;stroke-width:2.0;stroke:black;"/>
        <path d="M 1199.0 -881.0 L 1180.000000 -881.000000" style="fill:none;stroke-width:2.0;stroke:black;"/>
        <path d="M 1199.0 -219.0 L 1180.000000 -219.000000" style="fill:none;stroke-width:2.0;stroke:black;"/>
        <path d="M 1199.0 -881.0 L 1199.000000 -219.000000" style="fill:none;stroke-width:2.0;stroke:black;"/>
        <path d="M 1180.0 -881.0 L 1180.000000 -219.000000" style="fill:none;stroke-width:2.0;stroke:black;"/>
        <path d="M 609.5 -881.0 L 590.500000 -881.000000" style="fill:none;stroke-width:2.0;stroke:black;"/>
        <path d="M 609.5 -219.0 L 590.500000 -219.000000" style="fill:none;stroke-width:2.0;stroke:black;"/>
        <path d="M 609.5 -219.0 L 609.500000 -881.000000" style="fill:none;stroke-width:2.0;stroke:black;"/>
        <path d="M 590.5 -219.0 L 590.500000 -881.000000" style="fill:none;stroke-width:2.0;stroke:black;"/>
    </g>
</svg>
