<?xml version="1.0" encoding="UTF-8"?>
<svg viewBox="0.0 -900.0  1680.0 945.0" preserveAspectRatio="xMinYMin meet" xmlns="http://www.w3.org/2000/svg" version="1.1">
    <desc>Powered by Aleker CAD Engine</desc>
    <g id="cad" bboxX="1600" bboxY="900">
        <path d="M 526.3 -427.0 L 526.333333 -446.000000" style="fill:none;stroke-width:2.0;stroke:black;"/>
        <path d="M 21.0 -427.0 L 21.000000 -446.000000" style="fill:none;stroke-width:2.0;stroke:black;"/>
        <path d="M 526.3 -427.0 L 21.000000 -427.000000" style="fill:none;stroke-width:2.0;stroke:black;"/>
        <path d="M 526.3 -446.0 L 21.000000 -446.000000" style="fill:none;stroke-width:2.0;stroke:black;"/>
        <path d="M 1072.5 -881.0 L 1053.500000 -881.000000" style="fill:none;stroke-width:2.0;stroke:black;"/>
        <path d="M 1072.5 -219.0 L 1053.500000 -219.000000" style="fill:none;stroke-width:2.0;stroke:black;"/>
        <path d="M 1072.5 -219.0 L 1072.500000 -881.000000" style="fill:none;stroke-width:2.0;stroke:black;"/>
        <path d="M 1053.5 -219.0 L 1053.500000 -881.000000" style="fill:none;stroke-width:2.0;stroke:black;"/>
        <path d="M 1.0 -881.0 L 20.000000 -881.000000" style="fill:none;stroke-width:2.0;stroke:black;"/>
        <path d="M 1.0 -219.0 L 20.000000 -219.000000" style="fill:none;stroke-width:2.0;stroke:black;"/>
        <path d="M 1.0 -219.0 L 1.000000 -881.000000" style="fill:none;stroke-width:2.0;stroke:black;"/>
        <path d="M 20.0 -219.0 L 20.000000 -881.000000" style="fill:none;stroke-width:2.0;stroke:black;"/>
        <path d="M 1300.0 -200.0 L 1300.000000 -0.000000" style="fill:none;stroke-width:2.0;stroke:black;"/>
        <path d="M 1350.0 -200.0 L 1350.000000 -0.000000" style="fill:none;stroke-width:2.0;stroke:black;"/>
        <path d="M 1350.0 -0.0 L 1300.000000 -0.000000" style="fill:none;stroke-width:2.0;stroke:black;"/>
        <path d="M 1579.0 -427.0 L 1579.000000 -446.000000" style="fill:none;stroke-width:2.0;stroke:black;"/>
        <path d="M 1073.7 -427.0 L 1073.666667 -446.000000" style="fill:none;stroke-width:2.0;stroke:black;"/>
        <path d="M 1579.0 -427.0 L 1073.666667 -427.000000" style="fill:none;stroke-width:2.0;stroke:black;"/>
        <path d="M 1579.0 -446.0 L 1073.666667 -446.000000" style="fill:none;stroke-width:2.0;stroke:black;"/>
        <path d="M 1580.0 -881.0 L 1072.500000 -881.000000" style="fill:none;stroke-width:2.0;stroke:black;"/>
        <path d="M 1053.5 -881.0 L 546.500000 -881.000000" style="fill:none;stroke-width:2.0;stroke:black;"/>
        <path d="M 527.5 -881.0 L 20.000000 -881.000000" style="fill:none;stroke-width:2.0;stroke:black;"/>
        <path d="M 20.0 -219.0 L 527.500000 -219.000000" style="fill:none;stroke-width:2.0;stroke:black;"/>
        <path d="M 546.5 -219.0 L 1053.500000 -219.000000" style="fill:none;stroke-width:2.0;stroke:black;"/>
        <path d="M 1072.5 -219.0 L 1580.000000 -219.000000" style="fill:none;stroke-width:2.0;stroke:black;"/>
        <path d="M 250.0 -200.0 L 250.000000 -0.000000" style="fill:none;stroke-width:2.0;stroke:black;"/>
        <path d="M 300.0 -200.0 L 300.000000 -0.000000" style="fill:none;stroke-width:2.0;stroke:black;"/>
        <path d="M 300.0 -0.0 L 250.000000 -0.000000" style="fill:none;stroke-width:2.0;stroke:black;"/>
        <path d="M 526.3 -654.0 L 526.333333 -673.000000" style="fill:none;stroke-width:2.0;stroke:black;"/>
        <path d="M 21.0 -654.0 L 21.000000 -673.000000" style="fill:none;stroke-width:2.0;stroke:black;"/>
        <path d="M 526.3 -654.0 L 21.000000 -654.000000" style="fill:none;stroke-width:2.0;stroke:black;"/>
        <path d="M 526.3 -673.0 L 21.000000 -673.000000" style="fill:none;stroke-width:2.0;stroke:black;"/>
        <path d="M 1600.0 -200.0 L 1600.000000 -219.000000" style="fill:none;stroke-width:2.0;stroke:black;"/>
        <path d="M 0.0 -200.0 L 0.000000 -219.000000" style="fill:none;stroke-width:2.0;stroke:black;"/>
        <path d="M 0.0 -200.0 L 1600.000000 -200.000000" style="fill:none;stroke-width:2.0;stroke:black;"/>
        <path d="M 0.0 -219.0 L 1600.000000 -219.000000" style="fill:none;stroke-width:2.0;stroke:black;"/>
        <path d="M 1600.0 -900.0 L 1600.000000 -881.000000" style="fill:none;stroke-width:2.0;stroke:black;"/>
        <path d="M 0.0 -900.0 L 0.000000 -881.000000" style="fill:none;stroke-width:2.0;stroke:black;"/>
        <path d="M 1600.0 -900.0 L 0.000000 -900.000000" style="fill:none;stroke-width:2.0;stroke:black;"/>
        <path d="M 1600.0 -881.0 L 0.000000 -881.000000" style="fill:none;stroke-width:2.0;stroke:black;"/>
        <path d="M 1599.0 -881.0 L 1580.000000 -881.000000" style="fill:none;stroke-width:2.0;stroke:black;"/>
        <path d="M 1599.0 -219.0 L 1580.000000 -219.000000" style="fill:none;stroke-width:2.0;stroke:black;"/>
        <path d="M 1599.0 -881.0 L 1599.000000 -219.000000" style="fill:none;stroke-width:2.0;stroke:black;"/>
        <path d="M 1580.0 -881.0 L 1580.000000 -219.000000" style="fill:none;stroke-width:2.0;stroke:black;"/>
        <path d="M 1052.7 -427.0 L 1052.666667 -446.000000" style="fill:none;stroke-width:2.0;stroke:black;"/>
        <path d="M 547.3 -427.0 L 547.333333 -446.000000" style="fill:none;stroke-width:2.0;stroke:black;"/>
        <path d="M 1052.7 -427.0 L 547.333333 -427.000000" style="fill:none;stroke-width:2.0;stroke:black;"/>
        <path d="M 1052.7 -446.0 L 547.333333 -446.000000" style="fill:none;stroke-width:2.0;stroke:black;"/>
        <path d="M 1579.0 -654.0 L 1579.000000 -673.000000" style="fill:none;stroke-width:2.0;stroke:black;"/>
        <path d="M 1073.7 -654.0 L 1073.666667 -673.000000" style="fill:none;stroke-width:2.0;stroke:black;"/>
        <path d="M 1579.0 -654.0 L 1073.666667 -654.000000" style="fill:none;stroke-width:2.0;stroke:black;"/>
        <path d="M 1579.0 -673.0 L 1073.666667 -673.000000" style="fill:none;stroke-width:2.0;stroke:black;"/>
        <path d="M 1052.7 -654.0 L 1052.666667 -673.000000" style="fill:none;stroke-width:2.0;stroke:black;"/>
        <path d="M 547.3 -654.0 L 547.333333 -673.000000" style="fill:none;stroke-width:2.0;stroke:black;"/>
        <path d="M 1052.7 -654.0 L 547.333333 -654.000000" style="fill:none;stroke-width:2.0;stroke:black;"/>
        <path d="M 1052.7 -673.0 L 547.333333 -673.000000" style="fill:none;stroke-width:2.0;stroke:black;"/>
        <path d="M 546.5 -881.0 L 527.500000 -881.000000" style="fill:none;stroke-width:2.0;stroke:black;"/>
        <path d="M 546.5 -219.0 L 527.500000 -219.000000" style="fill:none;stroke-width:2.0;stroke:black;"/>
        <path d="M 546.5 -219.0 L 546.500000 -881.000000" style="fill:none;stroke-width:2.0;stroke:black;"/>
        <path d="M 527.5 -219.0 L 527.500000 -881.000000" style="fill:none;stroke-width:2.0;stroke:black;"/>
    </g>
</svg>
