<?xml version="1.0" encoding="UTF-8"?>
<svg viewBox="0.0 -1051.0  2100.0 1103.6" preserveAspectRatio="xMinYMin meet" xmlns="http://www.w3.org/2000/svg" version="1.1">
    <desc>Powered by Aleker CAD Engine</desc>
    <g id="cad" bboxX="2000" bboxY="1051" description_fra="Meuble TV deux portes et étagères">
        <path d="M 334.5 -217.7 L 337.500000 -217.666667" style="fill:none;stroke-width:2.0;stroke:black;"/>
        <path d="M 334.5 -198.7 L 337.500000 -198.666667" style="fill:none;stroke-width:2.0;stroke:black;"/>
        <path d="M 2.0 -512.0 L 334.500000 -512.000000" style="fill:none;stroke-width:2.0;stroke:black;"/>
        <path d="M 2.0 -512.0 L 2.000000 -61.000000" style="fill:none;stroke-width:2.0;stroke:black;"/>
        <path d="M 2.0 -61.0 L 334.500000 -61.000000" style="fill:none;stroke-width:2.0;stroke:black;"/>
        <path d="M 334.5 -512.0 L 334.500000 -61.000000" style="fill:none;stroke-width:2.0;stroke:black;"/>
        <path d="M 1330.0 -1050.0 L 670.000000 -1050.000000" style="fill:none;stroke-width:2.0;stroke:black;"/>
        <path d="M 650.0 -1030.0 L 650.000000 -610.000000" style="fill:none;stroke-width:2.0;stroke:black;"/>
        <path d="M 670.0 -590.0 L 1330.000000 -590.000000" style="fill:none;stroke-width:2.0;stroke:black;"/>
        <path d="M 1350.0 -610.0 L 1350.000000 -978.500000" style="fill:none;stroke-width:2.0;stroke:black;"/>
        <path d="M 1350.0 -987.5 L 1350.000000 -994.500000" style="fill:none;stroke-width:2.0;stroke:black;"/>
        <path d="M 1350.0 -999.5 L 1350.000000 -1030.000000" style="fill:none;stroke-width:2.0;stroke:black;"/>
        <path d="" style="fill:none;stroke-width:2.0;stroke:black;"/>
        <path d="" style="fill:none;stroke-width:2.0;stroke:black;"/>
        <path d="M 1330.0 -1035.0 L 670.000000 -1035.000000" style="fill:none;stroke-width:2.0;stroke:black;"/>
        <path d="M 670.0 -1035.0 A5.0 5.0 0 0 0 665.0, -1030.0" style="fill:none;stroke-width:2.0;stroke:black;"/>
        <path d="M 665.0 -1030.0 L 665.000000 -610.000000" style="fill:none;stroke-width:2.0;stroke:black;"/>
        <path d="M 665.0 -610.0 A5.0 5.0 0 0 0 670.0, -605.0" style="fill:none;stroke-width:2.0;stroke:black;"/>
        <path d="M 670.0 -605.0 L 1330.000000 -605.000000" style="fill:none;stroke-width:2.0;stroke:black;"/>
        <path d="M 1330.0 -605.0 A5.0 5.0 0 0 0 1335.0, -610.0" style="fill:none;stroke-width:2.0;stroke:black;"/>
        <path d="M 1335.0 -610.0 L 1335.000000 -1030.000000" style="fill:none;stroke-width:2.0;stroke:black;"/>
        <path d="M 1330.0 -1035.0 A5.0 5.0 0 0 1 1335.0, -1030.0" style="fill:none;stroke-width:2.0;stroke:black;"/>
        <path d="M 1662.5 -374.3 L 1665.500000 -374.333333" style="fill:none;stroke-width:2.0;stroke:black;"/>
        <path d="M 1662.5 -355.3 L 1665.500000 -355.333333" style="fill:none;stroke-width:2.0;stroke:black;"/>
        <path d="M 1735.5 -452.0 A10.0 10.0 0 0 1 1755.5, -452.0" style="fill:none;stroke-width:2.0;stroke:black;"/>
        <path d="M 1755.5 -452.0 A10.0 10.0 0 0 1 1735.5, -452.0" style="fill:none;stroke-width:2.0;stroke:black;"/>
        <path d="M 1662.5 -217.7 L 1665.500000 -217.666667" style="fill:none;stroke-width:2.0;stroke:black;"/>
        <path d="M 1662.5 -198.7 L 1665.500000 -198.666667" style="fill:none;stroke-width:2.0;stroke:black;"/>
        <circle cx="796.70000000000005" cy="-111" r="30" d="M 796.7 -141.0" style="fill:none;stroke-width:2.0;stroke:black;"/>
        <circle cx="796.70000000000005" cy="-111" r="25" d="M 796.7 -136.0" style="fill:none;stroke-width:2.0;stroke:black;"/>
        <path d="M 1665.5 -512.0 L 1662.500000 -512.000000" style="fill:none;stroke-width:2.0;stroke:black;"/>
        <path d="M 1330.0 -512.0 L 670.000000 -512.000000" style="fill:none;stroke-width:2.0;stroke:black;"/>
        <path d="M 337.5 -512.0 L 334.500000 -512.000000" style="fill:none;stroke-width:2.0;stroke:black;"/>
        <path d="M 334.5 -61.0 L 337.500000 -61.000000" style="fill:none;stroke-width:2.0;stroke:black;"/>
        <path d="M 670.0 -61.0 L 999.993830 -61.000000" style="fill:none;stroke-width:2.0;stroke:black;"/>
        <path d="M 1000.0 -61.0 L 1330.000000 -61.000000" style="fill:none;stroke-width:2.0;stroke:black;"/>
        <path d="M 1662.5 -61.0 L 1665.500000 -61.000000" style="fill:none;stroke-width:2.0;stroke:black;"/>
        <path d="M 816.2 -132.5 A31.5 31.5 0 0 0 816.2, -89.5" style="fill:none;stroke-width:2.0;stroke:black;"/>
        <path d="M 816.2 -132.5 A53.3 53.3 0 0 1 816.2, -89.5" style="fill:none;stroke-width:2.0;stroke:black;"/>
        <path d="M 1998.0 -512.0 L 1665.500000 -512.000000" style="fill:none;stroke-width:2.0;stroke:black;"/>
        <path d="M 1665.5 -512.0 L 1665.500000 -61.000000" style="fill:none;stroke-width:2.0;stroke:black;"/>
        <path d="M 1998.0 -61.0 L 1665.500000 -61.000000" style="fill:none;stroke-width:2.0;stroke:black;"/>
        <path d="M 1998.0 -512.0 L 1998.000000 -61.000000" style="fill:none;stroke-width:2.0;stroke:black;"/>
        <path d="M 670.0 -1050.0 A20.0 20.0 0 0 0 650.0, -1030.0" style="fill:none;stroke-width:2.0;stroke:black;"/>
        <path d="M 1330.0 -1050.0 L 670.000000 -1050.000000" style="fill:none;stroke-width:2.0;stroke:black;"/>
        <path d="M 1330.0 -1050.0 A20.0 20.0 0 0 1 1350.0, -1030.0" style="fill:none;stroke-width:2.0;stroke:black;"/>
        <path d="M 1350.0 -610.0 L 1350.000000 -1030.000000" style="fill:none;stroke-width:2.0;stroke:black;"/>
        <path d="M 1330.0 -590.0 A20.0 20.0 0 0 0 1350.0, -610.0" style="fill:none;stroke-width:2.0;stroke:black;"/>
        <path d="M 670.0 -590.0 L 1330.000000 -590.000000" style="fill:none;stroke-width:2.0;stroke:black;"/>
        <path d="M 650.0 -610.0 A20.0 20.0 0 0 0 670.0, -590.0" style="fill:none;stroke-width:2.0;stroke:black;"/>
        <path d="M 650.0 -1030.0 L 650.000000 -610.000000" style="fill:none;stroke-width:2.0;stroke:black;"/>
        <path d="M 1222.8 -132.5 A31.5 31.5 0 0 0 1222.8, -89.5" style="fill:none;stroke-width:2.0;stroke:black;"/>
        <path d="M 1222.8 -132.5 A53.3 53.3 0 0 1 1222.8, -89.5" style="fill:none;stroke-width:2.0;stroke:black;"/>
        <path d="M 407.5 -452.0 A10.0 10.0 0 0 1 427.5, -452.0" style="fill:none;stroke-width:2.0;stroke:black;"/>
        <path d="M 427.5 -452.0 A10.0 10.0 0 0 1 407.5, -452.0" style="fill:none;stroke-width:2.0;stroke:black;"/>
        <path d="M 264.5 -452.0 A10.0 10.0 0 0 0 244.5, -452.0" style="fill:none;stroke-width:2.0;stroke:black;"/>
        <path d="M 244.5 -452.0 A10.0 10.0 0 0 0 264.5, -452.0" style="fill:none;stroke-width:2.0;stroke:black;"/>
        <path d="M 1222.0 -88.8 A29.0 29.0 0 1 1 1222.0, -133.2" style="fill:none;stroke-width:2.0;stroke:black;"/>
        <path d="M 1222.0 -133.2 A32.5 32.5 0 0 0 1222.0, -88.8" style="fill:none;stroke-width:2.0;stroke:black;"/>
        <path d="M 334.5 -374.3 L 337.500000 -374.333333" style="fill:none;stroke-width:2.0;stroke:black;"/>
        <path d="M 334.5 -355.3 L 337.500000 -355.333333" style="fill:none;stroke-width:2.0;stroke:black;"/>
        <path d="M 997.0 -597.5 A3.0 3.0 0 0 1 1003.0, -597.5" style="fill:none;stroke-width:2.0;stroke:black;"/>
        <path d="M 1003.0 -597.5 A3.0 3.0 0 0 1 997.0, -597.5" style="fill:none;stroke-width:2.0;stroke:black;"/>
        <path d="M 670.0 -512.0 L 337.500000 -512.000000" style="fill:none;stroke-width:2.0;stroke:black;"/>
        <path d="M 337.5 -512.0 L 337.500000 -61.000000" style="fill:none;stroke-width:2.0;stroke:black;"/>
        <path d="M 670.0 -61.0 L 337.500000 -61.000000" style="fill:none;stroke-width:2.0;stroke:black;"/>
        <path d="M 670.0 -512.0 L 670.000000 -61.000000" style="fill:none;stroke-width:2.0;stroke:black;"/>
        <path d="M 2000.0 -23.0 L 2000.000000 -61.000000" style="fill:none;stroke-width:2.0;stroke:black;"/>
        <path d="M 0.0 -23.0 L 0.000000 -61.000000" style="fill:none;stroke-width:2.0;stroke:black;"/>
        <path d="M 0.0 -23.0 L 2000.000000 -23.000000" style="fill:none;stroke-width:2.0;stroke:black;"/>
        <path d="M 0.0 -61.0 L 2000.000000 -61.000000" style="fill:none;stroke-width:2.0;stroke:black;"/>
        <path d="M 3.0 -23.0 L 3.000000 -0.000000" style="fill:none;stroke-width:2.0;stroke:black;"/>
        <path d="M 92.0 -23.0 L 92.000000 -0.000000" style="fill:none;stroke-width:2.0;stroke:black;"/>
        <path d="M 92.0 -0.0 L 3.000000 -0.000000" style="fill:none;stroke-width:2.0;stroke:black;"/>
        <path d="M 1000.0 -291.0 L 999.993830 -291.000000" style="fill:none;stroke-width:2.0;stroke:black;"/>
        <path d="M 1000.0 -61.0 L 999.993830 -61.000000" style="fill:none;stroke-width:2.0;stroke:black;"/>
        <path d="M 1000.0 -61.0 L 1000.006170 -291.000000" style="fill:none;stroke-width:2.0;stroke:black;"/>
        <path d="M 1000.0 -61.0 L 999.993830 -291.000000" style="fill:none;stroke-width:2.0;stroke:black;"/>
        <path d="M 2000.0 -550.0 L 2000.000000 -512.000000" style="fill:none;stroke-width:2.0;stroke:black;"/>
        <path d="M 0.0 -550.0 L 0.000000 -512.000000" style="fill:none;stroke-width:2.0;stroke:black;"/>
        <path d="M 2000.0 -550.0 L 0.000000 -550.000000" style="fill:none;stroke-width:2.0;stroke:black;"/>
        <path d="M 2000.0 -512.0 L 0.000000 -512.000000" style="fill:none;stroke-width:2.0;stroke:black;"/>
        <path d="M 334.5 -61.0 L 337.500000 -61.000000" style="fill:none;stroke-width:2.0;stroke:black;"/>
        <path d="M 670.0 -61.0 L 999.993830 -61.000000" style="fill:none;stroke-width:2.0;stroke:black;"/>
        <path d="M 1000.0 -61.0 L 1330.000000 -61.000000" style="fill:none;stroke-width:2.0;stroke:black;"/>
        <path d="M 1662.5 -61.0 L 1665.500000 -61.000000" style="fill:none;stroke-width:2.0;stroke:black;"/>
        <path d="M 815.4 -88.8 A29.0 29.0 0 1 1 815.4, -133.2" style="fill:none;stroke-width:2.0;stroke:black;"/>
        <path d="M 815.4 -133.2 A32.5 32.5 0 0 0 815.4, -88.8" style="fill:none;stroke-width:2.0;stroke:black;"/>
        <path d="M 1044.5 -23.0 L 1044.500000 -0.000000" style="fill:none;stroke-width:2.0;stroke:black;"/>
        <path d="M 955.5 -23.0 L 955.500000 -0.000000" style="fill:none;stroke-width:2.0;stroke:black;"/>
        <path d="M 955.5 -0.0 L 1044.500000 -0.000000" style="fill:none;stroke-width:2.0;stroke:black;"/>
        <path d="M 1330.0 -512.0 L 1662.500000 -512.000000" style="fill:none;stroke-width:2.0;stroke:black;"/>
        <path d="M 1330.0 -512.0 L 1330.000000 -61.000000" style="fill:none;stroke-width:2.0;stroke:black;"/>
        <path d="M 1330.0 -61.0 L 1662.500000 -61.000000" style="fill:none;stroke-width:2.0;stroke:black;"/>
        <path d="M 1662.5 -512.0 L 1662.500000 -61.000000" style="fill:none;stroke-width:2.0;stroke:black;"/>
        <path d="M 1997.0 -23.0 L 1997.000000 -0.000000" style="fill:none;stroke-width:2.0;stroke:black;"/>
        <path d="M 1908.0 -23.0 L 1908.000000 -0.000000" style="fill:none;stroke-width:2.0;stroke:black;"/>
        <path d="M 1997.0 -0.0 L 1908.000000 -0.000000" style="fill:none;stroke-width:2.0;stroke:black;"/>
        <path d="" style="fill:none;stroke-width:2.0;stroke:black;"/>
        <path d="M 1330.0 -1050.0 L 670.000000 -1050.000000" style="fill:none;stroke-width:2.0;stroke:black;"/>
        <path d="M 1350.0 -610.0 L 1350.000000 -1030.000000" style="fill:none;stroke-width:2.0;stroke:black;"/>
        <path d="M 670.0 -590.0 L 1330.000000 -590.000000" style="fill:none;stroke-width:2.0;stroke:black;"/>
        <path d="M 650.0 -1030.0 L 650.000000 -610.000000" style="fill:none;stroke-width:2.0;stroke:black;"/>
        <path d="M 995.0 -597.5 A5.0 5.0 0 0 1 1005.0, -597.5" style="fill:none;stroke-width:2.0;stroke:black;"/>
        <path d="M 1005.0 -597.5 A5.0 5.0 0 0 1 995.0, -597.5" style="fill:none;stroke-width:2.0;stroke:black;"/>
        <path d="M 1592.5 -452.0 A10.0 10.0 0 0 0 1572.5, -452.0" style="fill:none;stroke-width:2.0;stroke:black;"/>
        <path d="M 1572.5 -452.0 A10.0 10.0 0 0 0 1592.5, -452.0" style="fill:none;stroke-width:2.0;stroke:black;"/>
        <path d="M 1330.0 -291.0 L 670.000000 -291.000000" style="fill:none;stroke-width:2.0;stroke:black;"/>
        <path d="M 1330.0 -310.0 L 670.000000 -310.000000" style="fill:none;stroke-width:2.0;stroke:black;"/>
        <path d="M 1350.0 -999.5 L 1350.300000 -999.500000" style="fill:none;stroke-width:2.0;stroke:black;"/>
        <path d="M 1350.0 -994.5 L 1350.300000 -994.500000" style="fill:none;stroke-width:2.0;stroke:black;"/>
        <path d="M 1350.3 -994.5 L 1350.300000 -999.500000" style="fill:none;stroke-width:2.0;stroke:black;"/>
        <path d="M 1350.0 -987.5 L 1350.300000 -987.500000" style="fill:none;stroke-width:2.0;stroke:black;"/>
        <path d="M 1350.0 -978.5 L 1350.300000 -978.500000" style="fill:none;stroke-width:2.0;stroke:black;"/>
        <path d="M 1350.3 -978.5 L 1350.300000 -987.500000" style="fill:none;stroke-width:2.0;stroke:black;"/>
        <circle cx="1203.3000000000002" cy="-111" r="30" d="M 1203.3 -141.0" style="fill:none;stroke-width:2.0;stroke:black;"/>
        <circle cx="1203.3000000000002" cy="-111" r="25" d="M 1203.3 -136.0" style="fill:none;stroke-width:2.0;stroke:black;"/>
        <path d="M 1000.0 -590.0 L 1000.000000 -569.000000" style="fill:none;stroke-width:2.0;stroke:black;"/>
        <path d="M 1010.0 -569.0 L 1010.000000 -590.000000" style="fill:none;stroke-width:2.0;stroke:black;"/>
        <path d="M 990.0 -569.0 L 990.000000 -590.000000" style="fill:none;stroke-width:2.0;stroke:black;"/>
    </g>
</svg>
