<?xml version="1.0" encoding="UTF-8"?>
<svg viewBox="0.0 -901.0  1260.0 946.1" preserveAspectRatio="xMinYMin meet" xmlns="http://www.w3.org/2000/svg" version="1.1">
    <desc>Powered by Aleker CAD Engine</desc>
    <g id="cad" bboxX="1200" bboxY="901">
        <path d="M 930.0 -900.0 L 270.000000 -900.000000" style="fill:none;stroke-width:2.0;stroke:black;"/>
        <path d="M 250.0 -880.0 L 250.000000 -460.000000" style="fill:none;stroke-width:2.0;stroke:black;"/>
        <path d="M 270.0 -440.0 L 930.000000 -440.000000" style="fill:none;stroke-width:2.0;stroke:black;"/>
        <path d="M 950.0 -460.0 L 950.000000 -828.500000" style="fill:none;stroke-width:2.0;stroke:black;"/>
        <path d="M 950.0 -837.5 L 950.000000 -844.500000" style="fill:none;stroke-width:2.0;stroke:black;"/>
        <path d="M 950.0 -849.5 L 950.000000 -880.000000" style="fill:none;stroke-width:2.0;stroke:black;"/>
        <path d="" style="fill:none;stroke-width:2.0;stroke:black;"/>
        <path d="" style="fill:none;stroke-width:2.0;stroke:black;"/>
        <path d="M 930.0 -885.0 L 270.000000 -885.000000" style="fill:none;stroke-width:2.0;stroke:black;"/>
        <path d="M 270.0 -885.0 A5.0 5.0 0 0 0 265.0, -880.0" style="fill:none;stroke-width:2.0;stroke:black;"/>
        <path d="M 265.0 -880.0 L 265.000000 -460.000000" style="fill:none;stroke-width:2.0;stroke:black;"/>
        <path d="M 265.0 -460.0 A5.0 5.0 0 0 0 270.0, -455.0" style="fill:none;stroke-width:2.0;stroke:black;"/>
        <path d="M 270.0 -455.0 L 930.000000 -455.000000" style="fill:none;stroke-width:2.0;stroke:black;"/>
        <path d="M 930.0 -455.0 A5.0 5.0 0 0 0 935.0, -460.0" style="fill:none;stroke-width:2.0;stroke:black;"/>
        <path d="M 935.0 -460.0 L 935.000000 -880.000000" style="fill:none;stroke-width:2.0;stroke:black;"/>
        <path d="M 930.0 -885.0 A5.0 5.0 0 0 1 935.0, -880.0" style="fill:none;stroke-width:2.0;stroke:black;"/>
        <path d="M 1.0 -381.0 L 20.000000 -381.000000" style="fill:none;stroke-width:2.0;stroke:black;"/>
        <path d="M 1.0 -42.0 L 20.000000 -42.000000" style="fill:none;stroke-width:2.0;stroke:black;"/>
        <path d="M 1.0 -42.0 L 1.000000 -381.000000" style="fill:none;stroke-width:2.0;stroke:black;"/>
        <path d="M 20.0 -42.0 L 20.000000 -381.000000" style="fill:none;stroke-width:2.0;stroke:black;"/>
        <path d="M 806.0 -381.0 L 787.000000 -381.000000" style="fill:none;stroke-width:2.0;stroke:black;"/>
        <path d="M 806.0 -42.0 L 787.000000 -42.000000" style="fill:none;stroke-width:2.0;stroke:black;"/>
        <path d="M 806.0 -381.0 L 806.000000 -42.000000" style="fill:none;stroke-width:2.0;stroke:black;"/>
        <path d="M 787.0 -381.0 L 787.000000 -42.000000" style="fill:none;stroke-width:2.0;stroke:black;"/>
        <path d="M 393.5 -261.7 L 393.500000 -280.666667" style="fill:none;stroke-width:2.0;stroke:black;"/>
        <path d="M 20.5 -261.7 L 20.500000 -280.666667" style="fill:none;stroke-width:2.0;stroke:black;"/>
        <path d="M 393.5 -261.7 L 20.500000 -261.666667" style="fill:none;stroke-width:2.0;stroke:black;"/>
        <path d="M 393.5 -280.7 L 20.500000 -280.666667" style="fill:none;stroke-width:2.0;stroke:black;"/>
        <path d="M 1179.5 -261.7 L 1179.500000 -280.666667" style="fill:none;stroke-width:2.0;stroke:black;"/>
        <path d="M 806.5 -261.7 L 806.500000 -280.666667" style="fill:none;stroke-width:2.0;stroke:black;"/>
        <path d="M 1179.5 -261.7 L 806.500000 -261.666667" style="fill:none;stroke-width:2.0;stroke:black;"/>
        <path d="M 1179.5 -280.7 L 806.500000 -280.666667" style="fill:none;stroke-width:2.0;stroke:black;"/>
        <circle cx="291.25" cy="-92" r="30" d="M 291.3 -122.0" style="fill:none;stroke-width:2.0;stroke:black;"/>
        <circle cx="291.25" cy="-92" r="25" d="M 291.3 -117.0" style="fill:none;stroke-width:2.0;stroke:black;"/>
        <path d="M 1179.5 -142.3 L 1179.500000 -161.333333" style="fill:none;stroke-width:2.0;stroke:black;"/>
        <path d="M 806.5 -142.3 L 806.500000 -161.333333" style="fill:none;stroke-width:2.0;stroke:black;"/>
        <path d="M 1179.5 -142.3 L 806.500000 -142.333333" style="fill:none;stroke-width:2.0;stroke:black;"/>
        <path d="M 1179.5 -161.3 L 806.500000 -161.333333" style="fill:none;stroke-width:2.0;stroke:black;"/>
        <path d="M 787.0 -142.3 L 787.000000 -161.333333" style="fill:none;stroke-width:2.0;stroke:black;"/>
        <path d="M 413.0 -142.3 L 413.000000 -161.333333" style="fill:none;stroke-width:2.0;stroke:black;"/>
        <path d="M 787.0 -142.3 L 413.000000 -142.333333" style="fill:none;stroke-width:2.0;stroke:black;"/>
        <path d="M 787.0 -161.3 L 413.000000 -161.333333" style="fill:none;stroke-width:2.0;stroke:black;"/>
        <circle cx="600" cy="-92" r="30" d="M 600.0 -122.0" style="fill:none;stroke-width:2.0;stroke:black;"/>
        <circle cx="600" cy="-92" r="25" d="M 600.0 -117.0" style="fill:none;stroke-width:2.0;stroke:black;"/>
        <path d="M 1180.0 -381.0 L 806.000000 -381.000000" style="fill:none;stroke-width:2.0;stroke:black;"/>
        <path d="M 787.0 -381.0 L 413.000000 -381.000000" style="fill:none;stroke-width:2.0;stroke:black;"/>
        <path d="M 394.0 -381.0 L 20.000000 -381.000000" style="fill:none;stroke-width:2.0;stroke:black;"/>
        <path d="M 20.0 -42.0 L 394.000000 -42.000000" style="fill:none;stroke-width:2.0;stroke:black;"/>
        <path d="M 413.0 -42.0 L 787.000000 -42.000000" style="fill:none;stroke-width:2.0;stroke:black;"/>
        <path d="M 806.0 -42.0 L 1180.000000 -42.000000" style="fill:none;stroke-width:2.0;stroke:black;"/>
        <path d="M 619.5 -113.5 A31.5 31.5 0 0 0 619.5, -70.5" style="fill:none;stroke-width:2.0;stroke:black;"/>
        <path d="M 619.5 -113.5 A53.3 53.3 0 0 1 619.5, -70.5" style="fill:none;stroke-width:2.0;stroke:black;"/>
        <path d="M 270.0 -900.0 A20.0 20.0 0 0 0 250.0, -880.0" style="fill:none;stroke-width:2.0;stroke:black;"/>
        <path d="M 930.0 -900.0 L 270.000000 -900.000000" style="fill:none;stroke-width:2.0;stroke:black;"/>
        <path d="M 930.0 -900.0 A20.0 20.0 0 0 1 950.0, -880.0" style="fill:none;stroke-width:2.0;stroke:black;"/>
        <path d="M 950.0 -460.0 L 950.000000 -880.000000" style="fill:none;stroke-width:2.0;stroke:black;"/>
        <path d="M 930.0 -440.0 A20.0 20.0 0 0 0 950.0, -460.0" style="fill:none;stroke-width:2.0;stroke:black;"/>
        <path d="M 270.0 -440.0 L 930.000000 -440.000000" style="fill:none;stroke-width:2.0;stroke:black;"/>
        <path d="M 250.0 -460.0 A20.0 20.0 0 0 0 270.0, -440.0" style="fill:none;stroke-width:2.0;stroke:black;"/>
        <path d="M 250.0 -880.0 L 250.000000 -460.000000" style="fill:none;stroke-width:2.0;stroke:black;"/>
        <path d="M 310.0 -69.8 A29.0 29.0 0 1 1 310.0, -114.2" style="fill:none;stroke-width:2.0;stroke:black;"/>
        <path d="M 310.0 -114.2 A32.5 32.5 0 0 0 310.0, -69.8" style="fill:none;stroke-width:2.0;stroke:black;"/>
        <path d="M 928.2 -113.5 A31.5 31.5 0 0 0 928.2, -70.5" style="fill:none;stroke-width:2.0;stroke:black;"/>
        <path d="M 928.2 -113.5 A53.3 53.3 0 0 1 928.2, -70.5" style="fill:none;stroke-width:2.0;stroke:black;"/>
        <path d="M 927.5 -69.8 A29.0 29.0 0 1 1 927.5, -114.2" style="fill:none;stroke-width:2.0;stroke:black;"/>
        <path d="M 927.5 -114.2 A32.5 32.5 0 0 0 927.5, -69.8" style="fill:none;stroke-width:2.0;stroke:black;"/>
        <path d="M 310.7 -113.5 A31.5 31.5 0 0 0 310.7, -70.5" style="fill:none;stroke-width:2.0;stroke:black;"/>
        <path d="M 310.7 -113.5 A53.3 53.3 0 0 1 310.7, -70.5" style="fill:none;stroke-width:2.0;stroke:black;"/>
        <path d="M 597.0 -447.5 A3.0 3.0 0 0 1 603.0, -447.5" style="fill:none;stroke-width:2.0;stroke:black;"/>
        <path d="M 603.0 -447.5 A3.0 3.0 0 0 1 597.0, -447.5" style="fill:none;stroke-width:2.0;stroke:black;"/>
        <path d="M 1200.0 -23.0 L 1200.000000 -42.000000" style="fill:none;stroke-width:2.0;stroke:black;"/>
        <path d="M 0.0 -23.0 L 0.000000 -42.000000" style="fill:none;stroke-width:2.0;stroke:black;"/>
        <path d="M 0.0 -23.0 L 1200.000000 -23.000000" style="fill:none;stroke-width:2.0;stroke:black;"/>
        <path d="M 0.0 -42.0 L 1200.000000 -42.000000" style="fill:none;stroke-width:2.0;stroke:black;"/>
        <path d="M 393.5 -142.3 L 393.500000 -161.333333" style="fill:none;stroke-width:2.0;stroke:black;"/>
        <path d="M 20.5 -142.3 L 20.500000 -161.333333" style="fill:none;stroke-width:2.0;stroke:black;"/>
        <path d="M 393.5 -142.3 L 20.500000 -142.333333" style="fill:none;stroke-width:2.0;stroke:black;"/>
        <path d="M 393.5 -161.3 L 20.500000 -161.333333" style="fill:none;stroke-width:2.0;stroke:black;"/>
        <path d="M 3.0 -23.0 L 3.000000 -0.000000" style="fill:none;stroke-width:2.0;stroke:black;"/>
        <path d="M 92.0 -23.0 L 92.000000 -0.000000" style="fill:none;stroke-width:2.0;stroke:black;"/>
        <path d="M 92.0 -0.0 L 3.000000 -0.000000" style="fill:none;stroke-width:2.0;stroke:black;"/>
        <path d="M 1200.0 -400.0 L 1200.000000 -381.000000" style="fill:none;stroke-width:2.0;stroke:black;"/>
        <path d="M 0.0 -400.0 L 0.000000 -381.000000" style="fill:none;stroke-width:2.0;stroke:black;"/>
        <path d="M 1200.0 -400.0 L 0.000000 -400.000000" style="fill:none;stroke-width:2.0;stroke:black;"/>
        <path d="M 1200.0 -381.0 L 0.000000 -381.000000" style="fill:none;stroke-width:2.0;stroke:black;"/>
        <path d="M 20.0 -42.0 L 394.000000 -42.000000" style="fill:none;stroke-width:2.0;stroke:black;"/>
        <path d="M 413.0 -42.0 L 787.000000 -42.000000" style="fill:none;stroke-width:2.0;stroke:black;"/>
        <path d="M 806.0 -42.0 L 1180.000000 -42.000000" style="fill:none;stroke-width:2.0;stroke:black;"/>
        <path d="M 618.7 -69.8 A29.0 29.0 0 1 1 618.7, -114.2" style="fill:none;stroke-width:2.0;stroke:black;"/>
        <path d="M 618.7 -114.2 A32.5 32.5 0 0 0 618.7, -69.8" style="fill:none;stroke-width:2.0;stroke:black;"/>
        <path d="M 1197.0 -23.0 L 1197.000000 -0.000000" style="fill:none;stroke-width:2.0;stroke:black;"/>
        <path d="M 1108.0 -23.0 L 1108.000000 -0.000000" style="fill:none;stroke-width:2.0;stroke:black;"/>
        <path d="M 1197.0 -0.0 L 1108.000000 -0.000000" style="fill:none;stroke-width:2.0;stroke:black;"/>
        <path d="" style="fill:none;stroke-width:2.0;stroke:black;"/>
        <path d="M 413.0 -381.0 L 394.000000 -381.000000" style="fill:none;stroke-width:2.0;stroke:black;"/>
        <path d="M 413.0 -42.0 L 394.000000 -42.000000" style="fill:none;stroke-width:2.0;stroke:black;"/>
        <path d="M 413.0 -381.0 L 413.000000 -42.000000" style="fill:none;stroke-width:2.0;stroke:black;"/>
        <path d="M 394.0 -381.0 L 394.000000 -42.000000" style="fill:none;stroke-width:2.0;stroke:black;"/>
        <path d="M 930.0 -900.0 L 270.000000 -900.000000" style="fill:none;stroke-width:2.0;stroke:black;"/>
        <path d="M 950.0 -460.0 L 950.000000 -880.000000" style="fill:none;stroke-width:2.0;stroke:black;"/>
        <path d="M 270.0 -440.0 L 930.000000 -440.000000" style="fill:none;stroke-width:2.0;stroke:black;"/>
        <path d="M 250.0 -880.0 L 250.000000 -460.000000" style="fill:none;stroke-width:2.0;stroke:black;"/>
        <path d="M 1199.0 -381.0 L 1180.000000 -381.000000" style="fill:none;stroke-width:2.0;stroke:black;"/>
        <path d="M 1199.0 -42.0 L 1180.000000 -42.000000" style="fill:none;stroke-width:2.0;stroke:black;"/>
        <path d="M 1199.0 -381.0 L 1199.000000 -42.000000" style="fill:none;stroke-width:2.0;stroke:black;"/>
        <path d="M 1180.0 -381.0 L 1180.000000 -42.000000" style="fill:none;stroke-width:2.0;stroke:black;"/>
        <path d="M 595.0 -447.5 A5.0 5.0 0 0 1 605.0, -447.5" style="fill:none;stroke-width:2.0;stroke:black;"/>
        <path d="M 605.0 -447.5 A5.0 5.0 0 0 1 595.0, -447.5" style="fill:none;stroke-width:2.0;stroke:black;"/>
        <path d="M 950.0 -849.5 L 950.300000 -849.500000" style="fill:none;stroke-width:2.0;stroke:black;"/>
        <path d="M 950.0 -844.5 L 950.300000 -844.500000" style="fill:none;stroke-width:2.0;stroke:black;"/>
        <path d="M 950.3 -844.5 L 950.300000 -849.500000" style="fill:none;stroke-width:2.0;stroke:black;"/>
        <path d="M 787.0 -261.7 L 787.000000 -280.666667" style="fill:none;stroke-width:2.0;stroke:black;"/>
        <path d="M 413.0 -261.7 L 413.000000 -280.666667" style="fill:none;stroke-width:2.0;stroke:black;"/>
        <path d="M 787.0 -261.7 L 413.000000 -261.666667" style="fill:none;stroke-width:2.0;stroke:black;"/>
        <path d="M 787.0 -280.7 L 413.000000 -280.666667" style="fill:none;stroke-width:2.0;stroke:black;"/>
        <path d="M 950.0 -837.5 L 950.300000 -837.500000" style="fill:none;stroke-width:2.0;stroke:black;"/>
        <path d="M 950.0 -828.5 L 950.300000 -828.500000" style="fill:none;stroke-width:2.0;stroke:black;"/>
        <path d="M 950.3 -828.5 L 950.300000 -837.500000" style="fill:none;stroke-width:2.0;stroke:black;"/>
        <circle cx="908.75" cy="-92" r="30" d="M 908.8 -122.0" style="fill:none;stroke-width:2.0;stroke:black;"/>
        <circle cx="908.75" cy="-92" r="25" d="M 908.8 -117.0" style="fill:none;stroke-width:2.0;stroke:black;"/>
        <path d="M 600.0 -440.0 L 600.000000 -419.000000" style="fill:none;stroke-width:2.0;stroke:black;"/>
        <path d="M 610.0 -419.0 L 610.000000 -440.000000" style="fill:none;stroke-width:2.0;stroke:black;"/>
        <path d="M 590.0 -419.0 L 590.000000 -440.000000" style="fill:none;stroke-width:2.0;stroke:black;"/>
    </g>
</svg>
