<?xml version="1.0" encoding="UTF-8"?>
<svg viewBox="0.0 -901.0  1050.0 946.1" preserveAspectRatio="xMinYMin meet" xmlns="http://www.w3.org/2000/svg" version="1.1">
    <desc>Powered by Aleker CAD Engine</desc>
    <g id="cad" bboxX="1000" bboxY="901">
        <path d="M 38.1 -362.0 L 38.000000 -362.000000" style="fill:none;stroke-width:2.0;stroke:black;"/>
        <path d="M 38.1 -61.0 L 38.000000 -61.000000" style="fill:none;stroke-width:2.0;stroke:black;"/>
        <path d="M 38.1 -362.0 L 38.100000 -61.000000" style="fill:none;stroke-width:2.0;stroke:black;"/>
        <path d="M 38.0 -362.0 L 38.000000 -61.000000" style="fill:none;stroke-width:2.0;stroke:black;"/>
        <path d="M 497.0 -447.5 A3.0 3.0 0 0 1 503.0, -447.5" style="fill:none;stroke-width:2.0;stroke:black;"/>
        <path d="M 503.0 -447.5 A3.0 3.0 0 0 1 497.0, -447.5" style="fill:none;stroke-width:2.0;stroke:black;"/>
        <path d="M 170.0 -900.0 A20.0 20.0 0 0 0 150.0, -880.0" style="fill:none;stroke-width:2.0;stroke:black;"/>
        <path d="M 830.0 -900.0 L 170.000000 -900.000000" style="fill:none;stroke-width:2.0;stroke:black;"/>
        <path d="M 830.0 -900.0 A20.0 20.0 0 0 1 850.0, -880.0" style="fill:none;stroke-width:2.0;stroke:black;"/>
        <path d="M 850.0 -460.0 L 850.000000 -880.000000" style="fill:none;stroke-width:2.0;stroke:black;"/>
        <path d="M 830.0 -440.0 A20.0 20.0 0 0 0 850.0, -460.0" style="fill:none;stroke-width:2.0;stroke:black;"/>
        <path d="M 170.0 -440.0 L 830.000000 -440.000000" style="fill:none;stroke-width:2.0;stroke:black;"/>
        <path d="M 150.0 -460.0 A20.0 20.0 0 0 0 170.0, -440.0" style="fill:none;stroke-width:2.0;stroke:black;"/>
        <path d="M 150.0 -880.0 L 150.000000 -460.000000" style="fill:none;stroke-width:2.0;stroke:black;"/>
        <path d="M 850.0 -849.5 L 850.300000 -849.500000" style="fill:none;stroke-width:2.0;stroke:black;"/>
        <path d="M 850.0 -844.5 L 850.300000 -844.500000" style="fill:none;stroke-width:2.0;stroke:black;"/>
        <path d="M 850.3 -844.5 L 850.300000 -849.500000" style="fill:none;stroke-width:2.0;stroke:black;"/>
        <path d="M 495.0 -447.5 A5.0 5.0 0 0 1 505.0, -447.5" style="fill:none;stroke-width:2.0;stroke:black;"/>
        <path d="M 505.0 -447.5 A5.0 5.0 0 0 1 495.0, -447.5" style="fill:none;stroke-width:2.0;stroke:black;"/>
        <path d="M 830.0 -900.0 L 170.000000 -900.000000" style="fill:none;stroke-width:2.0;stroke:black;"/>
        <path d="M 150.0 -880.0 L 150.000000 -460.000000" style="fill:none;stroke-width:2.0;stroke:black;"/>
        <path d="M 170.0 -440.0 L 830.000000 -440.000000" style="fill:none;stroke-width:2.0;stroke:black;"/>
        <path d="M 850.0 -460.0 L 850.000000 -828.500000" style="fill:none;stroke-width:2.0;stroke:black;"/>
        <path d="M 850.0 -837.5 L 850.000000 -844.500000" style="fill:none;stroke-width:2.0;stroke:black;"/>
        <path d="M 850.0 -849.5 L 850.000000 -880.000000" style="fill:none;stroke-width:2.0;stroke:black;"/>
        <path d="M 1000.0 -361.9 L 1000.000000 -362.000000" style="fill:none;stroke-width:2.0;stroke:black;"/>
        <path d="M 0.0 -361.9 L 0.000000 -362.000000" style="fill:none;stroke-width:2.0;stroke:black;"/>
        <path d="M 1000.0 -361.9 L 0.000000 -361.900000" style="fill:none;stroke-width:2.0;stroke:black;"/>
        <path d="M 1000.0 -362.0 L 0.000000 -362.000000" style="fill:none;stroke-width:2.0;stroke:black;"/>
        <path d="" style="fill:none;stroke-width:2.0;stroke:black;"/>
        <path d="" style="fill:none;stroke-width:2.0;stroke:black;"/>
        <path d="M 1000.0 -23.0 L 1000.000000 -0.000000" style="fill:none;stroke-width:2.0;stroke:black;"/>
        <path d="M 911.0 -23.0 L 911.000000 -0.000000" style="fill:none;stroke-width:2.0;stroke:black;"/>
        <path d="M 1000.0 -23.0 L 911.000000 -23.000000" style="fill:none;stroke-width:2.0;stroke:black;"/>
        <path d="M 1000.0 -0.0 L 911.000000 -0.000000" style="fill:none;stroke-width:2.0;stroke:black;"/>
        <path d="M 1000.0 -400.0 L 1000.000000 -362.000000" style="fill:none;stroke-width:2.0;stroke:black;"/>
        <path d="M 0.0 -400.0 L 0.000000 -362.000000" style="fill:none;stroke-width:2.0;stroke:black;"/>
        <path d="M 1000.0 -400.0 L 0.000000 -400.000000" style="fill:none;stroke-width:2.0;stroke:black;"/>
        <path d="M 1000.0 -362.0 L 0.000000 -362.000000" style="fill:none;stroke-width:2.0;stroke:black;"/>
        <path d="M 0.0 -61.1 L 0.000000 -61.000000" style="fill:none;stroke-width:2.0;stroke:black;"/>
        <path d="M 1000.0 -61.1 L 1000.000000 -61.000000" style="fill:none;stroke-width:2.0;stroke:black;"/>
        <path d="M 0.0 -61.1 L 1000.000000 -61.100000" style="fill:none;stroke-width:2.0;stroke:black;"/>
        <path d="M 0.0 -61.0 L 1000.000000 -61.000000" style="fill:none;stroke-width:2.0;stroke:black;"/>
        <path d="M 0.0 -362.0 L 38.000000 -362.000000" style="fill:none;stroke-width:2.0;stroke:black;"/>
        <path d="M 0.0 -61.0 L 38.000000 -61.000000" style="fill:none;stroke-width:2.0;stroke:black;"/>
        <path d="M 0.0 -362.0 L 0.000000 -61.000000" style="fill:none;stroke-width:2.0;stroke:black;"/>
        <path d="M 38.0 -362.0 L 38.000000 -61.000000" style="fill:none;stroke-width:2.0;stroke:black;"/>
        <path d="M 830.0 -900.0 L 170.000000 -900.000000" style="fill:none;stroke-width:2.0;stroke:black;"/>
        <path d="M 850.0 -460.0 L 850.000000 -880.000000" style="fill:none;stroke-width:2.0;stroke:black;"/>
        <path d="M 170.0 -440.0 L 830.000000 -440.000000" style="fill:none;stroke-width:2.0;stroke:black;"/>
        <path d="M 150.0 -880.0 L 150.000000 -460.000000" style="fill:none;stroke-width:2.0;stroke:black;"/>
        <path d="" style="fill:none;stroke-width:2.0;stroke:black;"/>
        <path d="" style="fill:none;stroke-width:2.0;stroke:black;"/>
        <path d="M 962.0 -221.0 L 962.000000 -202.000000" style="fill:none;stroke-width:2.0;stroke:black;"/>
        <path d="M 38.0 -221.0 L 38.000000 -202.000000" style="fill:none;stroke-width:2.0;stroke:black;"/>
        <path d="M 962.0 -221.0 L 38.000000 -221.000000" style="fill:none;stroke-width:2.0;stroke:black;"/>
        <path d="M 962.0 -202.0 L 38.000000 -202.000000" style="fill:none;stroke-width:2.0;stroke:black;"/>
        <path d="M 0.0 -23.0 L 0.000000 -61.000000" style="fill:none;stroke-width:2.0;stroke:black;"/>
        <path d="M 1000.0 -23.0 L 1000.000000 -61.000000" style="fill:none;stroke-width:2.0;stroke:black;"/>
        <path d="M 0.0 -23.0 L 1000.000000 -23.000000" style="fill:none;stroke-width:2.0;stroke:black;"/>
        <path d="M 0.0 -61.0 L 1000.000000 -61.000000" style="fill:none;stroke-width:2.0;stroke:black;"/>
        <path d="M 1000.0 -362.0 L 962.000000 -362.000000" style="fill:none;stroke-width:2.0;stroke:black;"/>
        <path d="M 1000.0 -61.0 L 962.000000 -61.000000" style="fill:none;stroke-width:2.0;stroke:black;"/>
        <path d="M 1000.0 -61.0 L 1000.000000 -362.000000" style="fill:none;stroke-width:2.0;stroke:black;"/>
        <path d="M 962.0 -61.0 L 962.000000 -362.000000" style="fill:none;stroke-width:2.0;stroke:black;"/>
        <path d="M 961.9 -362.0 L 962.000000 -362.000000" style="fill:none;stroke-width:2.0;stroke:black;"/>
        <path d="M 961.9 -61.0 L 962.000000 -61.000000" style="fill:none;stroke-width:2.0;stroke:black;"/>
        <path d="M 961.9 -61.0 L 961.900000 -362.000000" style="fill:none;stroke-width:2.0;stroke:black;"/>
        <path d="M 962.0 -61.0 L 962.000000 -362.000000" style="fill:none;stroke-width:2.0;stroke:black;"/>
        <path d="M 0.0 -23.0 L 0.000000 -0.000000" style="fill:none;stroke-width:2.0;stroke:black;"/>
        <path d="M 89.0 -23.0 L 89.000000 -0.000000" style="fill:none;stroke-width:2.0;stroke:black;"/>
        <path d="M 89.0 -23.0 L 0.000000 -23.000000" style="fill:none;stroke-width:2.0;stroke:black;"/>
        <path d="M 89.0 -0.0 L 0.000000 -0.000000" style="fill:none;stroke-width:2.0;stroke:black;"/>
        <path d="M 830.0 -885.0 L 170.000000 -885.000000" style="fill:none;stroke-width:2.0;stroke:black;"/>
        <path d="M 170.0 -885.0 A5.0 5.0 0 0 0 165.0, -880.0" style="fill:none;stroke-width:2.0;stroke:black;"/>
        <path d="M 165.0 -880.0 L 165.000000 -460.000000" style="fill:none;stroke-width:2.0;stroke:black;"/>
        <path d="M 165.0 -460.0 A5.0 5.0 0 0 0 170.0, -455.0" style="fill:none;stroke-width:2.0;stroke:black;"/>
        <path d="M 170.0 -455.0 L 830.000000 -455.000000" style="fill:none;stroke-width:2.0;stroke:black;"/>
        <path d="M 830.0 -455.0 A5.0 5.0 0 0 0 835.0, -460.0" style="fill:none;stroke-width:2.0;stroke:black;"/>
        <path d="M 835.0 -460.0 L 835.000000 -880.000000" style="fill:none;stroke-width:2.0;stroke:black;"/>
        <path d="M 830.0 -885.0 A5.0 5.0 0 0 1 835.0, -880.0" style="fill:none;stroke-width:2.0;stroke:black;"/>
        <path d="M 850.0 -837.5 L 850.300000 -837.500000" style="fill:none;stroke-width:2.0;stroke:black;"/>
        <path d="M 850.0 -828.5 L 850.300000 -828.500000" style="fill:none;stroke-width:2.0;stroke:black;"/>
        <path d="M 850.3 -828.5 L 850.300000 -837.500000" style="fill:none;stroke-width:2.0;stroke:black;"/>
        <path d="M 500.0 -440.0 L 500.000000 -419.000000" style="fill:none;stroke-width:2.0;stroke:black;"/>
        <path d="M 510.0 -419.0 L 510.000000 -440.000000" style="fill:none;stroke-width:2.0;stroke:black;"/>
        <path d="M 490.0 -419.0 L 490.000000 -440.000000" style="fill:none;stroke-width:2.0;stroke:black;"/>
    </g>
</svg>
