<?xml version="1.0" encoding="UTF-8"?>
<svg viewBox="0.0 -977.0  1365.0 1025.9" preserveAspectRatio="xMinYMin meet" xmlns="http://www.w3.org/2000/svg" version="1.1">
    <desc>Powered by Aleker CAD Engine</desc>
    <g id="cad" bboxX="1300" bboxY="977">
        <path d="M 38.1 -200.0 L 38.000000 -200.000000" style="fill:none;stroke-width:2.0;stroke:black;"/>
        <path d="M 38.1 -0.0 L 38.000000 -0.000000" style="fill:none;stroke-width:2.0;stroke:black;"/>
        <path d="M 38.1 -200.0 L 38.100000 -0.000000" style="fill:none;stroke-width:2.0;stroke:black;"/>
        <path d="M 38.0 -200.0 L 38.000000 -0.000000" style="fill:none;stroke-width:2.0;stroke:black;"/>
        <path d="M 1062.0 -925.5 L 1062.300000 -925.500000" style="fill:none;stroke-width:2.0;stroke:black;"/>
        <path d="M 1062.0 -920.5 L 1062.300000 -920.500000" style="fill:none;stroke-width:2.0;stroke:black;"/>
        <path d="M 1062.3 -920.5 L 1062.300000 -925.500000" style="fill:none;stroke-width:2.0;stroke:black;"/>
        <path d="M 1062.0 -913.5 L 1062.300000 -913.500000" style="fill:none;stroke-width:2.0;stroke:black;"/>
        <path d="M 1062.0 -904.5 L 1062.300000 -904.500000" style="fill:none;stroke-width:2.0;stroke:black;"/>
        <path d="M 1062.3 -904.5 L 1062.300000 -913.500000" style="fill:none;stroke-width:2.0;stroke:black;"/>
        <path d="" style="fill:none;stroke-width:2.0;stroke:black;"/>
        <path d="" style="fill:none;stroke-width:2.0;stroke:black;"/>
        <path d="M 1037.9 -200.0 L 1038.000000 -200.000000" style="fill:none;stroke-width:2.0;stroke:black;"/>
        <path d="M 1037.9 -0.0 L 1038.000000 -0.000000" style="fill:none;stroke-width:2.0;stroke:black;"/>
        <path d="M 1037.9 -200.0 L 1037.900000 -0.000000" style="fill:none;stroke-width:2.0;stroke:black;"/>
        <path d="M 1038.0 -200.0 L 1038.000000 -0.000000" style="fill:none;stroke-width:2.0;stroke:black;"/>
        <path d="M 759.0 -523.5 A3.0 3.0 0 0 1 765.0, -523.5" style="fill:none;stroke-width:2.0;stroke:black;"/>
        <path d="M 765.0 -523.5 A3.0 3.0 0 0 1 759.0, -523.5" style="fill:none;stroke-width:2.0;stroke:black;"/>
        <path d="" style="fill:none;stroke-width:2.0;stroke:black;"/>
        <path d="" style="fill:none;stroke-width:2.0;stroke:black;"/>
        <path d="M 757.0 -523.5 A5.0 5.0 0 0 1 767.0, -523.5" style="fill:none;stroke-width:2.0;stroke:black;"/>
        <path d="M 767.0 -523.5 A5.0 5.0 0 0 1 757.0, -523.5" style="fill:none;stroke-width:2.0;stroke:black;"/>
        <path d="M 1042.0 -961.0 L 482.000000 -961.000000" style="fill:none;stroke-width:2.0;stroke:black;"/>
        <path d="M 482.0 -961.0 A5.0 5.0 0 0 0 477.0, -956.0" style="fill:none;stroke-width:2.0;stroke:black;"/>
        <path d="M 477.0 -956.0 L 477.000000 -536.000000" style="fill:none;stroke-width:2.0;stroke:black;"/>
        <path d="M 477.0 -536.0 A5.0 5.0 0 0 0 482.0, -531.0" style="fill:none;stroke-width:2.0;stroke:black;"/>
        <path d="M 482.0 -531.0 L 1042.000000 -531.000000" style="fill:none;stroke-width:2.0;stroke:black;"/>
        <path d="M 1042.0 -531.0 A5.0 5.0 0 0 0 1047.0, -536.0" style="fill:none;stroke-width:2.0;stroke:black;"/>
        <path d="M 1047.0 -536.0 L 1047.000000 -956.000000" style="fill:none;stroke-width:2.0;stroke:black;"/>
        <path d="M 1042.0 -961.0 A5.0 5.0 0 0 1 1047.0, -956.0" style="fill:none;stroke-width:2.0;stroke:black;"/>
        <path d="M 0.0 -200.0 L 38.000000 -200.000000" style="fill:none;stroke-width:2.0;stroke:black;"/>
        <path d="M 0.0 -0.0 L 38.000000 -0.000000" style="fill:none;stroke-width:2.0;stroke:black;"/>
        <path d="M 0.0 -200.0 L 0.000000 -0.000000" style="fill:none;stroke-width:2.0;stroke:black;"/>
        <path d="M 38.0 -200.0 L 38.000000 -0.000000" style="fill:none;stroke-width:2.0;stroke:black;"/>
        <path d="M 1261.9 -438.0 L 1262.000000 -438.000000" style="fill:none;stroke-width:2.0;stroke:black;"/>
        <path d="M 1261.9 -0.0 L 1262.000000 -0.000000" style="fill:none;stroke-width:2.0;stroke:black;"/>
        <path d="M 1261.9 -0.0 L 1261.900000 -438.000000" style="fill:none;stroke-width:2.0;stroke:black;"/>
        <path d="M 1262.0 -0.0 L 1262.000000 -438.000000" style="fill:none;stroke-width:2.0;stroke:black;"/>
        <path d="M 1076.0 -238.0 L 1076.000000 -200.000000" style="fill:none;stroke-width:2.0;stroke:black;"/>
        <path d="M 0.0 -238.0 L 0.000000 -200.000000" style="fill:none;stroke-width:2.0;stroke:black;"/>
        <path d="M 0.0 -238.0 L 1076.000000 -238.000000" style="fill:none;stroke-width:2.0;stroke:black;"/>
        <path d="M 0.0 -200.0 L 1076.000000 -200.000000" style="fill:none;stroke-width:2.0;stroke:black;"/>
        <path d="M 1076.0 -200.0 L 1038.000000 -200.000000" style="fill:none;stroke-width:2.0;stroke:black;"/>
        <path d="M 1076.0 -0.0 L 1038.000000 -0.000000" style="fill:none;stroke-width:2.0;stroke:black;"/>
        <path d="M 1076.0 -200.0 L 1076.000000 -0.000000" style="fill:none;stroke-width:2.0;stroke:black;"/>
        <path d="M 1038.0 -200.0 L 1038.000000 -0.000000" style="fill:none;stroke-width:2.0;stroke:black;"/>
        <path d="M 1042.0 -976.0 L 482.000000 -976.000000" style="fill:none;stroke-width:2.0;stroke:black;"/>
        <path d="M 1062.0 -536.0 L 1062.000000 -956.000000" style="fill:none;stroke-width:2.0;stroke:black;"/>
        <path d="M 482.0 -516.0 L 1042.000000 -516.000000" style="fill:none;stroke-width:2.0;stroke:black;"/>
        <path d="M 462.0 -956.0 L 462.000000 -536.000000" style="fill:none;stroke-width:2.0;stroke:black;"/>
        <path d="M 262.1 -438.0 L 262.000000 -438.000000" style="fill:none;stroke-width:2.0;stroke:black;"/>
        <path d="M 262.1 -238.0 L 262.000000 -238.000000" style="fill:none;stroke-width:2.0;stroke:black;"/>
        <path d="M 262.1 -238.0 L 262.100000 -438.000000" style="fill:none;stroke-width:2.0;stroke:black;"/>
        <path d="M 262.0 -238.0 L 262.000000 -438.000000" style="fill:none;stroke-width:2.0;stroke:black;"/>
        <path d="M 224.0 -437.9 L 224.000000 -438.000000" style="fill:none;stroke-width:2.0;stroke:black;"/>
        <path d="M 1300.0 -437.9 L 1300.000000 -438.000000" style="fill:none;stroke-width:2.0;stroke:black;"/>
        <path d="M 1300.0 -437.9 L 224.000000 -437.900000" style="fill:none;stroke-width:2.0;stroke:black;"/>
        <path d="M 1300.0 -438.0 L 224.000000 -438.000000" style="fill:none;stroke-width:2.0;stroke:black;"/>
        <path d="M 224.0 -438.0 L 262.000000 -438.000000" style="fill:none;stroke-width:2.0;stroke:black;"/>
        <path d="M 224.0 -238.0 L 262.000000 -238.000000" style="fill:none;stroke-width:2.0;stroke:black;"/>
        <path d="M 224.0 -238.0 L 224.000000 -438.000000" style="fill:none;stroke-width:2.0;stroke:black;"/>
        <path d="M 262.0 -238.0 L 262.000000 -438.000000" style="fill:none;stroke-width:2.0;stroke:black;"/>
        <path d="M 224.0 -476.0 L 224.000000 -438.000000" style="fill:none;stroke-width:2.0;stroke:black;"/>
        <path d="M 1300.0 -476.0 L 1300.000000 -438.000000" style="fill:none;stroke-width:2.0;stroke:black;"/>
        <path d="M 1300.0 -476.0 L 224.000000 -476.000000" style="fill:none;stroke-width:2.0;stroke:black;"/>
        <path d="M 1300.0 -438.0 L 224.000000 -438.000000" style="fill:none;stroke-width:2.0;stroke:black;"/>
        <path d="M 1042.0 -976.0 L 482.000000 -976.000000" style="fill:none;stroke-width:2.0;stroke:black;"/>
        <path d="M 462.0 -956.0 L 462.000000 -536.000000" style="fill:none;stroke-width:2.0;stroke:black;"/>
        <path d="M 482.0 -516.0 L 1042.000000 -516.000000" style="fill:none;stroke-width:2.0;stroke:black;"/>
        <path d="M 1062.0 -536.0 L 1062.000000 -904.500000" style="fill:none;stroke-width:2.0;stroke:black;"/>
        <path d="M 1062.0 -913.5 L 1062.000000 -920.500000" style="fill:none;stroke-width:2.0;stroke:black;"/>
        <path d="M 1062.0 -925.5 L 1062.000000 -956.000000" style="fill:none;stroke-width:2.0;stroke:black;"/>
        <path d="M 482.0 -976.0 A20.0 20.0 0 0 0 462.0, -956.0" style="fill:none;stroke-width:2.0;stroke:black;"/>
        <path d="M 1042.0 -976.0 L 482.000000 -976.000000" style="fill:none;stroke-width:2.0;stroke:black;"/>
        <path d="M 1042.0 -976.0 A20.0 20.0 0 0 1 1062.0, -956.0" style="fill:none;stroke-width:2.0;stroke:black;"/>
        <path d="M 1062.0 -536.0 L 1062.000000 -956.000000" style="fill:none;stroke-width:2.0;stroke:black;"/>
        <path d="M 1042.0 -516.0 A20.0 20.0 0 0 0 1062.0, -536.0" style="fill:none;stroke-width:2.0;stroke:black;"/>
        <path d="M 482.0 -516.0 L 1042.000000 -516.000000" style="fill:none;stroke-width:2.0;stroke:black;"/>
        <path d="M 462.0 -536.0 A20.0 20.0 0 0 0 482.0, -516.0" style="fill:none;stroke-width:2.0;stroke:black;"/>
        <path d="M 462.0 -956.0 L 462.000000 -536.000000" style="fill:none;stroke-width:2.0;stroke:black;"/>
        <path d="M 1300.0 -438.0 L 1262.000000 -438.000000" style="fill:none;stroke-width:2.0;stroke:black;"/>
        <path d="M 1300.0 -0.0 L 1262.000000 -0.000000" style="fill:none;stroke-width:2.0;stroke:black;"/>
        <path d="M 1300.0 -0.0 L 1300.000000 -438.000000" style="fill:none;stroke-width:2.0;stroke:black;"/>
        <path d="M 1262.0 -0.0 L 1262.000000 -438.000000" style="fill:none;stroke-width:2.0;stroke:black;"/>
        <path d="M 1076.0 -199.9 L 1076.000000 -200.000000" style="fill:none;stroke-width:2.0;stroke:black;"/>
        <path d="M 0.0 -199.9 L 0.000000 -200.000000" style="fill:none;stroke-width:2.0;stroke:black;"/>
        <path d="M 0.0 -199.9 L 1076.000000 -199.900000" style="fill:none;stroke-width:2.0;stroke:black;"/>
        <path d="M 0.0 -200.0 L 1076.000000 -200.000000" style="fill:none;stroke-width:2.0;stroke:black;"/>
        <path d="M 762.0 -516.0 L 762.000000 -495.000000" style="fill:none;stroke-width:2.0;stroke:black;"/>
        <path d="M 772.0 -495.0 L 772.000000 -516.000000" style="fill:none;stroke-width:2.0;stroke:black;"/>
        <path d="M 752.0 -495.0 L 752.000000 -516.000000" style="fill:none;stroke-width:2.0;stroke:black;"/>
    </g>
</svg>
