<?xml version="1.0" encoding="UTF-8"?>
<svg viewBox="0.0 -901.0  1365.0 946.1" preserveAspectRatio="xMinYMin meet" xmlns="http://www.w3.org/2000/svg" version="1.1">
    <desc>Powered by Aleker CAD Engine</desc>
    <g id="cad" bboxX="1300" bboxY="901">
        <path d="M 980.0 -900.0 L 320.000000 -900.000000" style="fill:none;stroke-width:2.0;stroke:black;"/>
        <path d="M 300.0 -880.0 L 300.000000 -460.000000" style="fill:none;stroke-width:2.0;stroke:black;"/>
        <path d="M 320.0 -440.0 L 980.000000 -440.000000" style="fill:none;stroke-width:2.0;stroke:black;"/>
        <path d="M 1000.0 -460.0 L 1000.000000 -828.500000" style="fill:none;stroke-width:2.0;stroke:black;"/>
        <path d="M 1000.0 -837.5 L 1000.000000 -844.500000" style="fill:none;stroke-width:2.0;stroke:black;"/>
        <path d="M 1000.0 -849.5 L 1000.000000 -880.000000" style="fill:none;stroke-width:2.0;stroke:black;"/>
        <path d="" style="fill:none;stroke-width:2.0;stroke:black;"/>
        <path d="" style="fill:none;stroke-width:2.0;stroke:black;"/>
        <path d="M 980.0 -885.0 L 320.000000 -885.000000" style="fill:none;stroke-width:2.0;stroke:black;"/>
        <path d="M 320.0 -885.0 A5.0 5.0 0 0 0 315.0, -880.0" style="fill:none;stroke-width:2.0;stroke:black;"/>
        <path d="M 315.0 -880.0 L 315.000000 -460.000000" style="fill:none;stroke-width:2.0;stroke:black;"/>
        <path d="M 315.0 -460.0 A5.0 5.0 0 0 0 320.0, -455.0" style="fill:none;stroke-width:2.0;stroke:black;"/>
        <path d="M 320.0 -455.0 L 980.000000 -455.000000" style="fill:none;stroke-width:2.0;stroke:black;"/>
        <path d="M 980.0 -455.0 A5.0 5.0 0 0 0 985.0, -460.0" style="fill:none;stroke-width:2.0;stroke:black;"/>
        <path d="M 985.0 -460.0 L 985.000000 -880.000000" style="fill:none;stroke-width:2.0;stroke:black;"/>
        <path d="M 980.0 -885.0 A5.0 5.0 0 0 1 985.0, -880.0" style="fill:none;stroke-width:2.0;stroke:black;"/>
        <path d="M 1.0 -381.0 L 20.000000 -381.000000" style="fill:none;stroke-width:2.0;stroke:black;"/>
        <path d="M 1.0 -42.0 L 20.000000 -42.000000" style="fill:none;stroke-width:2.0;stroke:black;"/>
        <path d="M 1.0 -42.0 L 1.000000 -381.000000" style="fill:none;stroke-width:2.0;stroke:black;"/>
        <path d="M 20.0 -42.0 L 20.000000 -45.000000" style="fill:none;stroke-width:2.0;stroke:black;"/>
        <path d="M 20.0 -378.0 L 20.000000 -381.000000" style="fill:none;stroke-width:2.0;stroke:black;"/>
        <path d="M 872.7 -381.0 L 853.666667 -381.000000" style="fill:none;stroke-width:2.0;stroke:black;"/>
        <path d="M 872.7 -42.0 L 853.666667 -42.000000" style="fill:none;stroke-width:2.0;stroke:black;"/>
        <path d="M 872.7 -381.0 L 872.666667 -378.000000" style="fill:none;stroke-width:2.0;stroke:black;"/>
        <path d="M 872.7 -45.0 L 872.666667 -42.000000" style="fill:none;stroke-width:2.0;stroke:black;"/>
        <path d="M 853.7 -381.0 L 853.666667 -378.000000" style="fill:none;stroke-width:2.0;stroke:black;"/>
        <path d="M 853.7 -45.0 L 853.666667 -42.000000" style="fill:none;stroke-width:2.0;stroke:black;"/>
        <path d="M 843.7 -142.3 L 840.666667 -142.333333" style="fill:none;stroke-width:2.0;stroke:black;"/>
        <path d="M 459.3 -142.3 L 456.333333 -142.333333" style="fill:none;stroke-width:2.0;stroke:black;"/>
        <path d="M 843.7 -161.3 L 840.666667 -161.333333" style="fill:none;stroke-width:2.0;stroke:black;"/>
        <path d="M 459.3 -161.3 L 456.333333 -161.333333" style="fill:none;stroke-width:2.0;stroke:black;"/>
        <path d="M 1280.0 -381.0 L 872.666667 -381.000000" style="fill:none;stroke-width:2.0;stroke:black;"/>
        <path d="M 853.7 -381.0 L 446.333333 -381.000000" style="fill:none;stroke-width:2.0;stroke:black;"/>
        <path d="M 427.3 -381.0 L 20.000000 -381.000000" style="fill:none;stroke-width:2.0;stroke:black;"/>
        <path d="M 20.0 -42.0 L 427.333333 -42.000000" style="fill:none;stroke-width:2.0;stroke:black;"/>
        <path d="M 446.3 -42.0 L 853.666667 -42.000000" style="fill:none;stroke-width:2.0;stroke:black;"/>
        <path d="M 872.7 -42.0 L 1280.000000 -42.000000" style="fill:none;stroke-width:2.0;stroke:black;"/>
        <path d="M 320.0 -900.0 A20.0 20.0 0 0 0 300.0, -880.0" style="fill:none;stroke-width:2.0;stroke:black;"/>
        <path d="M 980.0 -900.0 L 320.000000 -900.000000" style="fill:none;stroke-width:2.0;stroke:black;"/>
        <path d="M 980.0 -900.0 A20.0 20.0 0 0 1 1000.0, -880.0" style="fill:none;stroke-width:2.0;stroke:black;"/>
        <path d="M 1000.0 -460.0 L 1000.000000 -880.000000" style="fill:none;stroke-width:2.0;stroke:black;"/>
        <path d="M 980.0 -440.0 A20.0 20.0 0 0 0 1000.0, -460.0" style="fill:none;stroke-width:2.0;stroke:black;"/>
        <path d="M 320.0 -440.0 L 980.000000 -440.000000" style="fill:none;stroke-width:2.0;stroke:black;"/>
        <path d="M 300.0 -460.0 A20.0 20.0 0 0 0 320.0, -440.0" style="fill:none;stroke-width:2.0;stroke:black;"/>
        <path d="M 300.0 -880.0 L 300.000000 -460.000000" style="fill:none;stroke-width:2.0;stroke:black;"/>
        <path d="M 647.0 -447.5 A3.0 3.0 0 0 1 653.0, -447.5" style="fill:none;stroke-width:2.0;stroke:black;"/>
        <path d="M 653.0 -447.5 A3.0 3.0 0 0 1 647.0, -447.5" style="fill:none;stroke-width:2.0;stroke:black;"/>
        <path d="M 840.7 -378.0 L 840.666667 -45.000000" style="fill:none;stroke-width:2.0;stroke:black;"/>
        <path d="M 459.3 -378.0 L 459.333667 -45.000000" style="fill:none;stroke-width:2.0;stroke:black;"/>
        <path d="M 840.7 -378.0 L 459.333667 -378.000000" style="fill:none;stroke-width:2.0;stroke:black;"/>
        <path d="M 840.7 -45.0 L 459.333667 -45.000000" style="fill:none;stroke-width:2.0;stroke:black;"/>
        <path d="M 1300.0 -23.0 L 1300.000000 -42.000000" style="fill:none;stroke-width:2.0;stroke:black;"/>
        <path d="M 0.0 -23.0 L 0.000000 -42.000000" style="fill:none;stroke-width:2.0;stroke:black;"/>
        <path d="M 0.0 -23.0 L 1300.000000 -23.000000" style="fill:none;stroke-width:2.0;stroke:black;"/>
        <path d="M 0.0 -42.0 L 1300.000000 -42.000000" style="fill:none;stroke-width:2.0;stroke:black;"/>
        <path d="M 3.0 -23.0 L 3.000000 -0.000000" style="fill:none;stroke-width:2.0;stroke:black;"/>
        <path d="M 92.0 -23.0 L 92.000000 -0.000000" style="fill:none;stroke-width:2.0;stroke:black;"/>
        <path d="M 92.0 -0.0 L 3.000000 -0.000000" style="fill:none;stroke-width:2.0;stroke:black;"/>
        <path d="M 1300.0 -400.0 L 1300.000000 -381.000000" style="fill:none;stroke-width:2.0;stroke:black;"/>
        <path d="M 0.0 -400.0 L 0.000000 -381.000000" style="fill:none;stroke-width:2.0;stroke:black;"/>
        <path d="M 1300.0 -400.0 L 0.000000 -400.000000" style="fill:none;stroke-width:2.0;stroke:black;"/>
        <path d="M 1300.0 -381.0 L 0.000000 -381.000000" style="fill:none;stroke-width:2.0;stroke:black;"/>
        <path d="M 20.0 -42.0 L 427.333333 -42.000000" style="fill:none;stroke-width:2.0;stroke:black;"/>
        <path d="M 446.3 -42.0 L 853.666667 -42.000000" style="fill:none;stroke-width:2.0;stroke:black;"/>
        <path d="M 872.7 -42.0 L 1280.000000 -42.000000" style="fill:none;stroke-width:2.0;stroke:black;"/>
        <path d="M 1297.0 -23.0 L 1297.000000 -0.000000" style="fill:none;stroke-width:2.0;stroke:black;"/>
        <path d="M 1208.0 -23.0 L 1208.000000 -0.000000" style="fill:none;stroke-width:2.0;stroke:black;"/>
        <path d="M 1297.0 -0.0 L 1208.000000 -0.000000" style="fill:none;stroke-width:2.0;stroke:black;"/>
        <path d="" style="fill:none;stroke-width:2.0;stroke:black;"/>
        <path d="M 446.3 -381.0 L 427.333333 -381.000000" style="fill:none;stroke-width:2.0;stroke:black;"/>
        <path d="M 446.3 -42.0 L 427.333333 -42.000000" style="fill:none;stroke-width:2.0;stroke:black;"/>
        <path d="M 446.3 -381.0 L 446.333333 -378.000000" style="fill:none;stroke-width:2.0;stroke:black;"/>
        <path d="M 446.3 -45.0 L 446.333333 -42.000000" style="fill:none;stroke-width:2.0;stroke:black;"/>
        <path d="M 427.3 -381.0 L 427.333333 -378.000000" style="fill:none;stroke-width:2.0;stroke:black;"/>
        <path d="M 427.3 -45.0 L 427.333333 -42.000000" style="fill:none;stroke-width:2.0;stroke:black;"/>
        <path d="M 980.0 -900.0 L 320.000000 -900.000000" style="fill:none;stroke-width:2.0;stroke:black;"/>
        <path d="M 1000.0 -460.0 L 1000.000000 -880.000000" style="fill:none;stroke-width:2.0;stroke:black;"/>
        <path d="M 320.0 -440.0 L 980.000000 -440.000000" style="fill:none;stroke-width:2.0;stroke:black;"/>
        <path d="M 300.0 -880.0 L 300.000000 -460.000000" style="fill:none;stroke-width:2.0;stroke:black;"/>
        <path d="M 1299.0 -381.0 L 1280.000000 -381.000000" style="fill:none;stroke-width:2.0;stroke:black;"/>
        <path d="M 1299.0 -42.0 L 1280.000000 -42.000000" style="fill:none;stroke-width:2.0;stroke:black;"/>
        <path d="M 1299.0 -381.0 L 1299.000000 -42.000000" style="fill:none;stroke-width:2.0;stroke:black;"/>
        <path d="M 1280.0 -381.0 L 1280.000000 -378.000000" style="fill:none;stroke-width:2.0;stroke:black;"/>
        <path d="M 1280.0 -45.0 L 1280.000000 -42.000000" style="fill:none;stroke-width:2.0;stroke:black;"/>
        <path d="M 645.0 -447.5 A5.0 5.0 0 0 1 655.0, -447.5" style="fill:none;stroke-width:2.0;stroke:black;"/>
        <path d="M 655.0 -447.5 A5.0 5.0 0 0 1 645.0, -447.5" style="fill:none;stroke-width:2.0;stroke:black;"/>
        <path d="M 1000.0 -849.5 L 1000.300000 -849.500000" style="fill:none;stroke-width:2.0;stroke:black;"/>
        <path d="M 1000.0 -844.5 L 1000.300000 -844.500000" style="fill:none;stroke-width:2.0;stroke:black;"/>
        <path d="M 1000.3 -844.5 L 1000.300000 -849.500000" style="fill:none;stroke-width:2.0;stroke:black;"/>
        <path d="M 843.7 -261.7 L 840.666667 -261.666667" style="fill:none;stroke-width:2.0;stroke:black;"/>
        <path d="M 459.3 -261.7 L 456.333333 -261.666667" style="fill:none;stroke-width:2.0;stroke:black;"/>
        <path d="M 843.7 -280.7 L 840.666667 -280.666667" style="fill:none;stroke-width:2.0;stroke:black;"/>
        <path d="M 459.3 -280.7 L 456.333333 -280.666667" style="fill:none;stroke-width:2.0;stroke:black;"/>
        <path d="M 1000.0 -837.5 L 1000.300000 -837.500000" style="fill:none;stroke-width:2.0;stroke:black;"/>
        <path d="M 1000.0 -828.5 L 1000.300000 -828.500000" style="fill:none;stroke-width:2.0;stroke:black;"/>
        <path d="M 1000.3 -828.5 L 1000.300000 -837.500000" style="fill:none;stroke-width:2.0;stroke:black;"/>
        <path d="M 1296.0 -378.0 L 843.666667 -378.000000" style="fill:none;stroke-width:2.0;stroke:black;"/>
        <path d="M 843.7 -378.0 L 843.666667 -45.000000" style="fill:none;stroke-width:2.0;stroke:black;"/>
        <path d="M 843.7 -45.0 L 1296.000000 -45.000000" style="fill:none;stroke-width:2.0;stroke:black;"/>
        <path d="M 1296.0 -378.0 L 1296.000000 -45.000000" style="fill:none;stroke-width:2.0;stroke:black;"/>
        <path d="M 4.0 -45.0 L 456.333333 -45.000000" style="fill:none;stroke-width:2.0;stroke:black;"/>
        <path d="M 456.3 -45.0 L 456.333333 -378.000000" style="fill:none;stroke-width:2.0;stroke:black;"/>
        <path d="M 456.3 -378.0 L 4.000000 -378.000000" style="fill:none;stroke-width:2.0;stroke:black;"/>
        <path d="M 4.0 -45.0 L 4.000000 -378.000000" style="fill:none;stroke-width:2.0;stroke:black;"/>
        <path d="M 650.0 -440.0 L 650.000000 -419.000000" style="fill:none;stroke-width:2.0;stroke:black;"/>
        <path d="M 660.0 -419.0 L 660.000000 -440.000000" style="fill:none;stroke-width:2.0;stroke:black;"/>
        <path d="M 640.0 -419.0 L 640.000000 -440.000000" style="fill:none;stroke-width:2.0;stroke:black;"/>
    </g>
</svg>
