{
    "asset": {
        "generator": "COLLADA2GLTF",
        "version": "2.0"
    },
    "scenes": [
        {
            "nodes": [
                0
            ]
        }
    ],
    "scene": 0,
    "nodes": [
        {
            "children": [
                6,
                5,
                4,
                3,
                2,
                1
            ],
            "name": "Y_UP"
        },
        {
            "mesh": 0,
            "name": "{15EE8765-5140-4f41-B9DF-2093271E5774}_Node"
        },
        {
            "mesh": 1,
            "name": "{1FA18999-0E02-4396-86E4-E4E7E05F59BF}_Node"
        },
        {
            "mesh": 2,
            "name": "{4AE69299-65D1-484f-A18C-0F0BBBC1D980}_Node"
        },
        {
            "mesh": 3,
            "name": "{25686E01-54E4-4237-A3E1-6D3E6D29E51C}_Node"
        },
        {
            "mesh": 4,
            "name": "{0E2C329B-34EA-47d5-91DF-304102BB3962}_Node"
        },
        {
            "mesh": 5,
            "name": "{686604B9-2863-4a23-840D-5C56A71E897E}_Node"
        }
    ],
    "meshes": [
        {
            "primitives": [
                {
                    "attributes": {
                        "NORMAL": 1,
                        "POSITION": 2
                    },
                    "indices": 0,
                    "mode": 4,
                    "material": 0
                }
            ],
            "name": "{15EE8765-5140-4f41-B9DF-2093271E5774}"
        },
        {
            "primitives": [
                {
                    "attributes": {
                        "NORMAL": 4,
                        "POSITION": 5
                    },
                    "indices": 3,
                    "mode": 4,
                    "material": 1
                }
            ],
            "name": "{1FA18999-0E02-4396-86E4-E4E7E05F59BF}"
        },
        {
            "primitives": [
                {
                    "attributes": {
                        "NORMAL": 7,
                        "POSITION": 8
                    },
                    "indices": 6,
                    "mode": 4,
                    "material": 2
                }
            ],
            "name": "{4AE69299-65D1-484f-A18C-0F0BBBC1D980}"
        },
        {
            "primitives": [
                {
                    "attributes": {
                        "NORMAL": 10,
                        "POSITION": 11,
                        "TEXCOORD_0": 12
                    },
                    "indices": 9,
                    "mode": 4,
                    "material": 3
                }
            ],
            "name": "{25686E01-54E4-4237-A3E1-6D3E6D29E51C}"
        },
        {
            "primitives": [
                {
                    "attributes": {
                        "NORMAL": 14,
                        "POSITION": 15
                    },
                    "indices": 13,
                    "mode": 4,
                    "material": 4
                }
            ],
            "name": "{0E2C329B-34EA-47d5-91DF-304102BB3962}"
        },
        {
            "primitives": [
                {
                    "attributes": {
                        "NORMAL": 17,
                        "POSITION": 18,
                        "TEXCOORD_0": 19
                    },
                    "indices": 16,
                    "mode": 4,
                    "material": 5
                }
            ],
            "name": "{686604B9-2863-4a23-840D-5C56A71E897E}"
        }
    ],
    "accessors": [
        {
            "bufferView": 0,
            "byteOffset": 0,
            "componentType": 5123,
            "count": 2265,
            "max": [
                762
            ],
            "min": [
                0
            ],
            "type": "SCALAR"
        },
        {
            "bufferView": 1,
            "byteOffset": 0,
            "componentType": 5126,
            "count": 763,
            "max": [
                0.0,
                1.0,
                0.0
            ],
            "min": [
                0.0,
                -1.0,
                0.0
            ],
            "type": "VEC3"
        },
        {
            "bufferView": 1,
            "byteOffset": 9156,
            "componentType": 5126,
            "count": 763,
            "max": [
                0.7092170119285584,
                0.7694999575614929,
                0.5010939836502075
            ],
            "min": [
                0.2905449867248535,
                0.7694999575614929,
                0.47062501311302187
            ],
            "type": "VEC3"
        },
        {
            "bufferView": 0,
            "byteOffset": 4530,
            "componentType": 5123,
            "count": 36,
            "max": [
                23
            ],
            "min": [
                0
            ],
            "type": "SCALAR"
        },
        {
            "bufferView": 1,
            "byteOffset": 18312,
            "componentType": 5126,
            "count": 24,
            "max": [
                1.0,
                1.0,
                1.0
            ],
            "min": [
                -1.0,
                -1.0,
                -1.0
            ],
            "type": "VEC3"
        },
        {
            "bufferView": 1,
            "byteOffset": 18600,
            "componentType": 5126,
            "count": 24,
            "max": [
                1.0190000534057618,
                0.75,
                0.6000000238418579
            ],
            "min": [
                1.0,
                0.0,
                0.0
            ],
            "type": "VEC3"
        },
        {
            "bufferView": 0,
            "byteOffset": 4602,
            "componentType": 5123,
            "count": 36,
            "max": [
                23
            ],
            "min": [
                0
            ],
            "type": "SCALAR"
        },
        {
            "bufferView": 1,
            "byteOffset": 18888,
            "componentType": 5126,
            "count": 24,
            "max": [
                1.0,
                1.0,
                1.0
            ],
            "min": [
                -1.0,
                -1.0,
                -1.0
            ],
            "type": "VEC3"
        },
        {
            "bufferView": 1,
            "byteOffset": 19176,
            "componentType": 5126,
            "count": 24,
            "max": [
                0.8340000510215759,
                0.5509999990463257,
                0.4010000228881836
            ],
            "min": [
                0.815000057220459,
                0.1990000158548355,
                0.1990000158548355
            ],
            "type": "VEC3"
        },
        {
            "bufferView": 0,
            "byteOffset": 4674,
            "componentType": 5123,
            "count": 36,
            "max": [
                23
            ],
            "min": [
                0
            ],
            "type": "SCALAR"
        },
        {
            "bufferView": 1,
            "byteOffset": 19464,
            "componentType": 5126,
            "count": 24,
            "max": [
                1.0,
                1.0,
                1.0
            ],
            "min": [
                -1.0,
                -1.0,
                -1.0
            ],
            "type": "VEC3"
        },
        {
            "bufferView": 1,
            "byteOffset": 19752,
            "componentType": 5126,
            "count": 24,
            "max": [
                1.0,
                0.7690000534057617,
                0.6000000238418579
            ],
            "min": [
                0.0,
                0.75,
                0.0
            ],
            "type": "VEC3"
        },
        {
            "bufferView": 2,
            "byteOffset": 0,
            "componentType": 5126,
            "count": 24,
            "max": [
                1.0,
                1.0
            ],
            "min": [
                -1.0,
                0.0
            ],
            "type": "VEC2"
        },
        {
            "bufferView": 0,
            "byteOffset": 4746,
            "componentType": 5123,
            "count": 2265,
            "max": [
                760
            ],
            "min": [
                0
            ],
            "type": "SCALAR"
        },
        {
            "bufferView": 1,
            "byteOffset": 20040,
            "componentType": 5126,
            "count": 761,
            "max": [
                1.0,
                0.0,
                0.0
            ],
            "min": [
                -1.0,
                0.0,
                0.0
            ],
            "type": "VEC3"
        },
        {
            "bufferView": 1,
            "byteOffset": 29172,
            "componentType": 5126,
            "count": 761,
            "max": [
                0.4994999766349793,
                0.5842170119285584,
                0.5010939836502075
            ],
            "min": [
                0.4994999766349793,
                0.1655450016260147,
                0.47062501311302187
            ],
            "type": "VEC3"
        },
        {
            "bufferView": 0,
            "byteOffset": 9276,
            "componentType": 5123,
            "count": 36,
            "max": [
                23
            ],
            "min": [
                0
            ],
            "type": "SCALAR"
        },
        {
            "bufferView": 1,
            "byteOffset": 38304,
            "componentType": 5126,
            "count": 24,
            "max": [
                1.0,
                1.0,
                1.0
            ],
            "min": [
                -1.0,
                -1.0,
                -1.0
            ],
            "type": "VEC3"
        },
        {
            "bufferView": 1,
            "byteOffset": 38592,
            "componentType": 5126,
            "count": 24,
            "max": [
                0.5190000534057617,
                0.75,
                0.6000000238418579
            ],
            "min": [
                0.5,
                0.0,
                0.0
            ],
            "type": "VEC3"
        },
        {
            "bufferView": 2,
            "byteOffset": 192,
            "componentType": 5126,
            "count": 24,
            "max": [
                1.0,
                1.0
            ],
            "min": [
                -1.0,
                0.0
            ],
            "type": "VEC2"
        }
    ],
    "materials": [
        {
            "pbrMetallicRoughness": {
                "baseColorFactor": [
                    0.0,
                    0.0,
                    0.0,
                    1.0
                ],
                "metallicFactor": 0.0
            },
            "emissiveFactor": [
                0.0,
                0.0,
                0.0
            ],
            "name": "{7A92B4F5-C9F1-4bc6-8038-9E1BCD9E4049}-Effect"
        },
        {
            "pbrMetallicRoughness": {
                "baseColorFactor": [
                    0.4517650008201599,
                    0.4517650008201599,
                    0.6000000238418579,
                    0.2400000095367432
                ],
                "metallicFactor": 0.0
            },
            "emissiveFactor": [
                0.0,
                0.0,
                0.0
            ],
            "alphaMode": "BLEND",
            "name": "{5A7BEB35-BAA7-4610-8392-B0ABFAD582DA}-Effect"
        },
        {
            "pbrMetallicRoughness": {
                "baseColorFactor": [
                    0.6000000238418579,
                    0.3011760115623474,
                    0.3011760115623474,
                    1.0
                ],
                "metallicFactor": 0.0
            },
            "emissiveFactor": [
                0.0,
                0.0,
                0.0
            ],
            "name": "{D310CA19-C73A-4ea3-9377-6B59CED86B3D}-Effect"
        },
        {
            "pbrMetallicRoughness": {
                "baseColorTexture": {
                    "index": 0
                },
                "metallicFactor": 0.0
            },
            "emissiveFactor": [
                0.0,
                0.0,
                0.0
            ],
            "name": "{D3D5350C-1CE6-4613-B53A-3F6D6EB4929D}-Effect"
        },
        {
            "pbrMetallicRoughness": {
                "baseColorFactor": [
                    0.0,
                    0.0,
                    0.0,
                    1.0
                ],
                "metallicFactor": 0.0
            },
            "emissiveFactor": [
                0.0,
                0.0,
                0.0
            ],
            "name": "{7A92B4F5-C9F1-4bc6-8038-9E1BCD9E4049}-Effect"
        },
        {
            "pbrMetallicRoughness": {
                "baseColorTexture": {
                    "index": 1
                },
                "metallicFactor": 0.0
            },
            "emissiveFactor": [
                0.0,
                0.0,
                0.0
            ],
            "name": "{AD58A2B4-7BE9-4225-B7CB-E84D84ABC29C}-Effect"
        }
    ],
    "textures": [
        {
            "sampler": 0,
            "source": 0
        },
        {
            "sampler": 0,
            "source": 1
        }
    ],
    "images": [
        {
            "uri": "data:image/jpeg;base64,"
        },
        {
            "uri": "data:image/jpeg;base64,"
        }
    ],
    "samplers": [
        {
            "magFilter": 9729,
            "minFilter": 9986,
            "wrapS": 10497,
            "wrapT": 10497
        }
    ],
    "bufferViews": [
        {
            "buffer": 0,
            "byteOffset": 39264,
            "byteLength": 9348,
            "target": 34963
        },
        {
            "buffer": 0,
            "byteOffset": 0,
            "byteLength": 38880,
            "byteStride": 12,
            "target": 34962
        },
        {
            "buffer": 0,
            "byteOffset": 38880,
            "byteLength": 384,
            "byteStride": 8,
            "target": 34962
        }
    ],
    "buffers": [
        {
            "byteLength": 48612,
            "uri": "data:application/octet-stream;base64,"
        }
    ]
}
