{
    "asset": {
        "generator": "COLLADA2GLTF",
        "version": "2.0"
    },
    "scenes": [
        {
            "nodes": [
                0
            ]
        }
    ],
    "scene": 0,
    "nodes": [
        {
            "children": [
                4,
                3,
                2,
                1
            ],
            "name": "Y_UP"
        },
        {
            "mesh": 0,
            "name": "{C76A2051-510B-4dc9-BC8A-DCF9D5F36715}_Node"
        },
        {
            "mesh": 1,
            "name": "{6CE853CF-B947-4461-AD17-1A2EC470382E}_Node"
        },
        {
            "mesh": 2,
            "name": "{1A3128E9-89DC-467d-BC20-2ED2C84592A7}_Node"
        },
        {
            "mesh": 3,
            "name": "{6D5020F8-B6A3-4f13-AC2A-F6B1FCF3ED49}_Node"
        }
    ],
    "meshes": [
        {
            "primitives": [
                {
                    "attributes": {
                        "NORMAL": 1,
                        "POSITION": 2
                    },
                    "indices": 0,
                    "mode": 4,
                    "material": 0
                }
            ],
            "name": "{C76A2051-510B-4dc9-BC8A-DCF9D5F36715}"
        },
        {
            "primitives": [
                {
                    "attributes": {
                        "NORMAL": 4,
                        "POSITION": 5,
                        "TEXCOORD_0": 6
                    },
                    "indices": 3,
                    "mode": 4,
                    "material": 1
                }
            ],
            "name": "{6CE853CF-B947-4461-AD17-1A2EC470382E}"
        },
        {
            "primitives": [
                {
                    "attributes": {
                        "NORMAL": 8,
                        "POSITION": 9
                    },
                    "indices": 7,
                    "mode": 4,
                    "material": 2
                }
            ],
            "name": "{1A3128E9-89DC-467d-BC20-2ED2C84592A7}"
        },
        {
            "primitives": [
                {
                    "attributes": {
                        "NORMAL": 11,
                        "POSITION": 12,
                        "TEXCOORD_0": 13
                    },
                    "indices": 10,
                    "mode": 4,
                    "material": 3
                }
            ],
            "name": "{6D5020F8-B6A3-4f13-AC2A-F6B1FCF3ED49}"
        }
    ],
    "accessors": [
        {
            "bufferView": 0,
            "byteOffset": 0,
            "componentType": 5123,
            "count": 2265,
            "max": [
                762
            ],
            "min": [
                0
            ],
            "type": "SCALAR"
        },
        {
            "bufferView": 1,
            "byteOffset": 0,
            "componentType": 5126,
            "count": 763,
            "max": [
                0.0,
                1.0,
                0.0
            ],
            "min": [
                0.0,
                -1.0,
                0.0
            ],
            "type": "VEC3"
        },
        {
            "bufferView": 1,
            "byteOffset": 9156,
            "componentType": 5126,
            "count": 763,
            "max": [
                0.7092170119285584,
                0.7694999575614929,
                0.5010939836502075
            ],
            "min": [
                0.2905449867248535,
                0.7694999575614929,
                0.47062501311302187
            ],
            "type": "VEC3"
        },
        {
            "bufferView": 0,
            "byteOffset": 4530,
            "componentType": 5123,
            "count": 36,
            "max": [
                23
            ],
            "min": [
                0
            ],
            "type": "SCALAR"
        },
        {
            "bufferView": 1,
            "byteOffset": 18312,
            "componentType": 5126,
            "count": 24,
            "max": [
                1.0,
                1.0,
                1.0
            ],
            "min": [
                -1.0,
                -1.0,
                -1.0
            ],
            "type": "VEC3"
        },
        {
            "bufferView": 1,
            "byteOffset": 18600,
            "componentType": 5126,
            "count": 24,
            "max": [
                1.0,
                0.7690000534057617,
                0.6000000238418579
            ],
            "min": [
                0.0,
                0.75,
                0.0
            ],
            "type": "VEC3"
        },
        {
            "bufferView": 2,
            "byteOffset": 0,
            "componentType": 5126,
            "count": 24,
            "max": [
                1.0,
                1.0
            ],
            "min": [
                -1.0,
                0.0
            ],
            "type": "VEC2"
        },
        {
            "bufferView": 0,
            "byteOffset": 4602,
            "componentType": 5123,
            "count": 2265,
            "max": [
                760
            ],
            "min": [
                0
            ],
            "type": "SCALAR"
        },
        {
            "bufferView": 1,
            "byteOffset": 18888,
            "componentType": 5126,
            "count": 761,
            "max": [
                1.0,
                0.0,
                0.0
            ],
            "min": [
                -1.0,
                0.0,
                0.0
            ],
            "type": "VEC3"
        },
        {
            "bufferView": 1,
            "byteOffset": 28020,
            "componentType": 5126,
            "count": 761,
            "max": [
                0.4994999766349793,
                0.5842170119285584,
                0.5010939836502075
            ],
            "min": [
                0.4994999766349793,
                0.1655450016260147,
                0.47062501311302187
            ],
            "type": "VEC3"
        },
        {
            "bufferView": 0,
            "byteOffset": 9132,
            "componentType": 5123,
            "count": 36,
            "max": [
                23
            ],
            "min": [
                0
            ],
            "type": "SCALAR"
        },
        {
            "bufferView": 1,
            "byteOffset": 37152,
            "componentType": 5126,
            "count": 24,
            "max": [
                1.0,
                1.0,
                1.0
            ],
            "min": [
                -1.0,
                -1.0,
                -1.0
            ],
            "type": "VEC3"
        },
        {
            "bufferView": 1,
            "byteOffset": 37440,
            "componentType": 5126,
            "count": 24,
            "max": [
                0.5190000534057617,
                0.75,
                0.6000000238418579
            ],
            "min": [
                0.5,
                0.0,
                0.0
            ],
            "type": "VEC3"
        },
        {
            "bufferView": 2,
            "byteOffset": 192,
            "componentType": 5126,
            "count": 24,
            "max": [
                1.0,
                1.0
            ],
            "min": [
                -1.0,
                0.0
            ],
            "type": "VEC2"
        }
    ],
    "materials": [
        {
            "pbrMetallicRoughness": {
                "baseColorFactor": [
                    0.0,
                    0.0,
                    0.0,
                    1.0
                ],
                "metallicFactor": 0.0
            },
            "emissiveFactor": [
                0.0,
                0.0,
                0.0
            ],
            "alphaMode": "BLEND",
            "name": "{7B39BE4C-3F9A-4fa5-8181-F141C0B4CF13}-Effect"
        },
        {
            "pbrMetallicRoughness": {
                "baseColorFactor": [
                    1.0,
                    1.0,
                    1.0,
                    0.30000001192092898
                ],
                "baseColorTexture": {
                    "index": 0
                },
                "metallicFactor": 0.0
            },
            "emissiveFactor": [
                0.0,
                0.0,
                0.0
            ],
            "alphaMode": "BLEND",
            "name": "{691DA433-50F7-4db7-B612-FA0176D4261C}-Effect"
        },
        {
            "pbrMetallicRoughness": {
                "baseColorFactor": [
                    0.0,
                    0.0,
                    0.0,
                    1.0
                ],
                "metallicFactor": 0.0
            },
            "emissiveFactor": [
                0.0,
                0.0,
                0.0
            ],
            "alphaMode": "BLEND",
            "name": "{7B39BE4C-3F9A-4fa5-8181-F141C0B4CF13}-Effect"
        },
        {
            "pbrMetallicRoughness": {
                "baseColorFactor": [
                    1.0,
                    1.0,
                    1.0,
                    0.27000001072883608
                ],
                "baseColorTexture": {
                    "index": 1
                },
                "metallicFactor": 0.0
            },
            "emissiveFactor": [
                0.0,
                0.0,
                0.0
            ],
            "alphaMode": "BLEND",
            "name": "{29E7BD79-73FF-4ed5-A87A-89AB8F61A440}-Effect"
        }
    ],
    "textures": [
        {
            "sampler": 0,
            "source": 0
        },
        {
            "sampler": 0,
            "source": 1
        }
    ],
    "images": [
        {
            "uri": "data:image/jpeg;base64,"
        },
        {
            "uri": "data:image/jpeg;base64,"
        }
    ],
    "samplers": [
        {
            "magFilter": 9729,
            "minFilter": 9986,
            "wrapS": 10497,
            "wrapT": 10497
        }
    ],
    "bufferViews": [
        {
            "buffer": 0,
            "byteOffset": 38112,
            "byteLength": 9204,
            "target": 34963
        },
        {
            "buffer": 0,
            "byteOffset": 0,
            "byteLength": 37728,
            "byteStride": 12,
            "target": 34962
        },
        {
            "buffer": 0,
            "byteOffset": 37728,
            "byteLength": 384,
            "byteStride": 8,
            "target": 34962
        }
    ],
    "buffers": [
        {
            "byteLength": 47316,
            "uri": "data:application/octet-stream;base64,"
        }
    ]
}
